<?xml version="1.0" encoding="UTF-8" standalone="no"?>
<!-- Created with Inkscape (http://www.inkscape.org/) -->
<svg
   xmlns:dc="http://purl.org/dc/elements/1.1/"
   xmlns:cc="http://creativecommons.org/ns#"
   xmlns:rdf="http://www.w3.org/1999/02/22-rdf-syntax-ns#"
   xmlns:svg="http://www.w3.org/2000/svg"
   xmlns="http://www.w3.org/2000/svg"
   xmlns:sodipodi="http://sodipodi.sourceforge.net/DTD/sodipodi-0.dtd"
   xmlns:inkscape="http://www.inkscape.org/namespaces/inkscape"
   width="48px"
   height="48px"
   id="svg2383"
   sodipodi:version="0.32"
   inkscape:version="0.46"
   sodipodi:docname="beenden.svg"
   inkscape:output_extension="org.inkscape.output.svg.inkscape">
  <defs
     id="defs2385">
    <inkscape:perspective
       sodipodi:type="inkscape:persp3d"
       inkscape:vp_x="0 : 24 : 1"
       inkscape:vp_y="0 : 1000 : 0"
       inkscape:vp_z="48 : 24 : 1"
       inkscape:persp3d-origin="24 : 16 : 1"
       id="perspective2391" />
  </defs>
  <sodipodi:namedview
     id="base"
     pagecolor="#ffffff"
     bordercolor="#666666"
     borderopacity="1.0"
     inkscape:pageopacity="0.0"
     inkscape:pageshadow="2"
     inkscape:zoom="4.9497475"
     inkscape:cx="12.688685"
     inkscape:cy="37.89409"
     inkscape:current-layer="layer1"
     showgrid="true"
     inkscape:grid-bbox="true"
     inkscape:document-units="px"
     showguides="true"
     inkscape:guide-bbox="true"
     inkscape:window-width="1440"
     inkscape:window-height="839"
     inkscape:window-x="0"
     inkscape:window-y="34" />
  <metadata
     id="metadata2388">
    <rdf:RDF>
      <cc:Work
         rdf:about="">
        <dc:format>image/svg+xml</dc:format>
        <dc:type
           rdf:resource="http://purl.org/dc/dcmitype/StillImage" />
      </cc:Work>
    </rdf:RDF>
  </metadata>
  <g
     id="layer1"
     inkscape:label="Layer 1"
     inkscape:groupmode="layer">
    <g
       id="g3204"
       transform="translate(-0.727623,-1.5737116)">
      <g
         transform="translate(1.7514991,7.8607486e-2)"
         id="g3181">
        <path
           sodipodi:type="arc"
           style="fill:none;fill-opacity:1;fill-rule:evenodd;stroke:#000000;stroke-width:0.48997509;stroke-linecap:butt;stroke-linejoin:miter;marker:none;marker-start:none;marker-mid:none;marker-end:none;stroke-miterlimit:4;stroke-dasharray:none;stroke-dashoffset:0;stroke-opacity:1;visibility:visible;display:inline;overflow:visible;enable-background:accumulate"
           id="path2395"
           sodipodi:cx="19.571705"
           sodipodi:cy="23.95837"
           sodipodi:rx="12.399623"
           sodipodi:ry="27.728687"
           d="M 7.1720819,23.958369 A 12.399623,27.728687 0 1 1 31.971325,23.977783 L 19.571705,23.95837 z"
           sodipodi:start="3.1415927"
           sodipodi:end="6.2838854"
           transform="matrix(1.371191,0,0,1.2171987,-3.7040528,18.311574)" />
        <path
           sodipodi:type="arc"
           style="fill:none;fill-opacity:1;fill-rule:evenodd;stroke:#000000;stroke-width:0.31068969;stroke-linecap:butt;stroke-linejoin:miter;marker:none;marker-start:none;marker-mid:none;marker-end:none;stroke-miterlimit:4;stroke-dasharray:none;stroke-dashoffset:0;stroke-opacity:1;visibility:visible;display:inline;overflow:visible;enable-background:accumulate"
           id="path2397"
           sodipodi:cx="26.415489"
           sodipodi:cy="34.186165"
           sodipodi:rx="10.505587"
           sodipodi:ry="11.38947"
           d="M 15.909903,34.186164 A 10.505587,11.38947 0 0 1 25.701181,22.823052"
           sodipodi:start="3.1415927"
           sodipodi:end="4.6443433"
           transform="matrix(1.5287202,0,0,2.7153497,-12.198635,-47.313868)"
           sodipodi:open="true" />
        <path
           style="fill:none;fill-opacity:1;fill-rule:evenodd;stroke:#000000;stroke-width:0.63300002;stroke-linecap:butt;stroke-linejoin:miter;marker:none;marker-start:none;marker-mid:none;marker-end:none;stroke-miterlimit:4;stroke-dasharray:none;stroke-dashoffset:0;stroke-opacity:1;visibility:visible;display:inline;overflow:visible;enable-background:accumulate"
           d="M 40.142857,45.607143 L 40.142857,45.607143 L 40.142857,45.607143 L 12.071429,45.5 L 6.25,47.321429 L 6.1785714,47.357143"
           id="path2399"
           sodipodi:nodetypes="cccccc" />
      </g>
      <path
         id="path3198"
         d="M 9.888172,47.188943 C 9.9045434,47.173916 10.810136,46.883555 11.900601,46.543695 L 13.883265,45.925768 L 27.704172,45.975573 L 41.525079,46.025378 L 41.525079,46.620819 L 41.525079,47.216265 L 25.691743,47.216265 C 16.983415,47.216265 9.8718077,47.20397 9.888172,47.188943 L 9.888172,47.188943 z"
         style="opacity:1;fill:#b5a157;fill-opacity:1;fill-rule:nonzero;stroke:none;stroke-width:0.40799999;stroke-linecap:round;stroke-linejoin:round;marker:none;marker-start:none;marker-mid:none;marker-end:none;stroke-miterlimit:4;stroke-dasharray:none;stroke-dashoffset:0;stroke-opacity:0.98983047;visibility:visible;display:inline;overflow:visible;enable-background:accumulate" />
      <path
         id="path3200"
         d="M 8.2668148,45.484122 C 8.4726077,39.414179 9.4225863,33.839336 11.088351,28.926295 C 13.429679,22.020743 16.897529,17.1483 20.905251,15.133259 C 22.073043,14.546102 23.681286,14.147453 24.882222,14.147453 C 25.485479,14.147452 26.661151,14.317334 27.199101,14.482235 L 27.623122,14.612212 L 27.020529,14.814418 C 21.564393,16.645296 16.948379,23.66765 14.817001,33.379655 C 14.108458,36.60828 13.738151,39.588504 13.572979,43.391572 L 13.489365,45.316881 L 10.917936,46.122205 C 9.5036506,46.565138 8.3175434,46.928213 8.2821434,46.929043 C 8.2444363,46.929927 8.2380863,46.331492 8.2668148,45.484122 z"
         style="opacity:1;fill:#d0a560;fill-opacity:1;fill-rule:nonzero;stroke:none;stroke-width:0.40799999;stroke-linecap:round;stroke-linejoin:round;marker:none;marker-start:none;marker-mid:none;marker-end:none;stroke-miterlimit:4;stroke-dasharray:none;stroke-dashoffset:0;stroke-opacity:0.98983047;visibility:visible;display:inline;overflow:visible;enable-background:accumulate" />
      <path
         id="path3202"
         d="M 27.560793,45.28373 C 21.746508,45.25799 16.370615,45.232281 15.614365,45.226598 L 14.239365,45.216265 L 14.240401,44.448408 C 14.242508,42.891039 14.413158,40.496104 14.674308,38.359122 C 15.708086,29.899558 18.662751,22.559616 22.667936,18.501465 C 24.434586,16.711455 26.333172,15.592083 28.275079,15.195602 C 28.756922,15.097225 28.786751,15.099372 29.096508,15.254774 C 29.273293,15.343466 29.707222,15.606306 30.060793,15.838864 C 35.275486,19.268777 39.378643,27.799148 40.876001,38.323407 C 41.194551,40.562318 41.321608,41.941 41.479993,44.876979 L 41.506008,45.359122 L 39.819115,45.344827 C 38.891322,45.336963 33.375079,45.30947 27.560793,45.28373 L 27.560793,45.28373 z"
         style="opacity:1;fill:#05050c;fill-opacity:1;fill-rule:nonzero;stroke:none;stroke-width:0.40799999;stroke-linecap:round;stroke-linejoin:round;marker:none;marker-start:none;marker-mid:none;marker-end:none;stroke-miterlimit:4;stroke-dasharray:none;stroke-dashoffset:0;stroke-opacity:0.98983047;visibility:visible;display:inline;overflow:visible;enable-background:accumulate" />
    </g>
    <g
       id="g3277"
       transform="translate(27.577164,-13.9198)">
      <g
         id="g3269">
        <path
           style="fill:none;fill-opacity:1;fill-rule:evenodd;stroke:#000000;stroke-width:0.40000001;stroke-linecap:round;stroke-linejoin:miter;marker:none;marker-start:none;marker-mid:none;marker-end:none;stroke-miterlimit:4;stroke-dasharray:none;stroke-dashoffset:0;stroke-opacity:1;visibility:visible;display:inline;overflow:visible;enable-background:accumulate"
           d="M 12.887554,52.355555 C 12.725991,52.244442 12.355721,52.388601 12.062216,52.406838 C 11.8464,52.420247 11.507294,52.485878 11.236878,52.509401 C 10.949753,52.534377 10.731798,52.617787 10.470493,52.663247 C 10.234131,52.704368 9.9906315,52.777501 9.7630611,52.817093 C 9.5102057,52.861083 9.2980608,53.009661 9.11458,53.073502 C 8.8731588,53.157506 8.7282443,53.195709 8.4661005,53.278629 C 8.1894852,53.36613 8.0497439,53.381759 7.814044,53.495666 C 7.563681,53.616659 7.3238824,53.77158 7.0512354,53.842731 C 6.7263312,53.92752 6.5537679,54.072842 6.2431652,54.222946 C 5.9837962,54.348291 5.8720405,54.445386 5.6953241,54.560678 C 5.4688267,54.708447 5.2008593,54.839521 4.9289385,54.970933 C 4.6719564,55.095123 4.5092724,55.248494 4.280459,55.381188 C 3.9602279,55.566898 3.6046938,55.73889 3.337215,55.894007 C 3.0675541,56.05039 2.7211152,56.190433 2.3939727,56.304262 C 2.1729869,56.381155 1.7908653,56.409188 1.5096826,56.458108 C 1.1008317,56.529238 0.82526132,56.603653 0.44853256,56.663235 C 0.1551233,56.709642 -0.12701844,56.738943 -0.43575752,56.7658 C -0.78133638,56.79586 -1.1256195,56.666292 -1.4379537,56.611954 C -1.6920571,56.567745 -1.8752062,56.538021 -2.2043377,56.509389 C -2.4924582,56.484327 -2.7110704,56.421846 -3.0261002,56.421846 C -3.3316865,56.421846 -3.6496792,56.401524 -3.9139673,56.355545 C -4.219679,56.302358 -4.4383011,56.213584 -4.6803512,56.150416 C -4.9220036,56.087354 -5.3312176,56.078206 -5.5056891,56.047853 C -5.7478383,56.005724 -6.0577906,55.982569 -6.2720747,55.945289 C -6.5687061,55.893683 -6.7286021,55.781644 -6.9205542,55.68888 C -7.0456127,55.628443 -8.5504578,55.366672 -8.6880136,55.332484"
           id="path3215"
           sodipodi:nodetypes="csssssssssssssssssssssssssc" />
        <path
           style="fill:none;fill-opacity:1;fill-rule:evenodd;stroke:#000000;stroke-width:0.40000001;stroke-linecap:butt;stroke-linejoin:miter;marker:none;marker-start:none;marker-mid:none;marker-end:none;stroke-miterlimit:4;stroke-dasharray:none;stroke-dashoffset:0;stroke-opacity:1;visibility:visible;display:inline;overflow:visible;enable-background:accumulate"
           d="M 12.946506,54.252986 C 12.874385,54.218133 12.28293,54.376678 12.121169,54.406832 C 11.786824,54.469154 11.605643,54.554133 11.354783,54.663241 C 11.145722,54.754171 10.844166,54.714023 10.643774,54.810867 C 10.453583,54.90278 10.185682,54.898195 9.9952947,55.024792 C 9.513101,55.345427 9.5274272,55.25452 9.2289091,55.398785 C 8.9651278,55.526262 8.6906964,55.651806 8.3964205,55.79402 C 8.0407362,55.965911 7.827043,56.206097 7.4394858,56.298042 C 7.1630455,56.363625 6.9655207,56.621265 6.6975203,56.714518 C 6.2491176,56.870541 5.9237661,57.069494 5.483932,57.146016 C 5.2257316,57.190936 4.9056508,57.343405 4.7520802,57.432465 C 4.4837694,57.588064 4.2302917,57.609658 3.9267423,57.688874 C 3.5301724,57.792364 3.2214564,57.806636 2.8066416,57.84272 C 2.453742,57.873418 2.1531391,57.866426 1.8044455,57.894001 C 1.4953581,57.918444 1.282104,57.833896 1.0380598,57.791438 C 0.78681874,57.747728 0.50577634,57.744201 0.25083278,57.722024 C 0.18033077,57.715891 -1.150411,57.420021 -0.52750868,57.513785"
           id="path3217"
           sodipodi:nodetypes="csssssssssssssssc" />
        <path
           style="fill:none;fill-opacity:1;fill-rule:evenodd;stroke:#000000;stroke-width:0.40000001;stroke-linecap:round;stroke-linejoin:miter;marker:none;marker-start:none;marker-mid:none;marker-end:none;stroke-miterlimit:4;stroke-dasharray:none;stroke-dashoffset:0;stroke-opacity:1;visibility:visible;display:inline;overflow:visible;enable-background:accumulate"
           d="M -7.8269155,55.48944 C -8.0742478,55.467924 -7.3552943,55.626191 -7.1194837,55.694567 C -6.9133507,55.754338 -6.7345808,55.910546 -6.4710042,56.002259 C -6.2561572,56.077016 -5.8866898,56.280363 -5.7492661,56.358121 C -5.3911124,56.560777 -5.5026915,56.547261 -5.2329975,56.617641 C -4.9534192,56.6906 -4.7981154,56.691369 -4.4666118,56.720206 C -4.1901699,56.744253 -3.9656978,56.926394 -3.7454894,56.964707 C -3.4587703,57.014588 -3.0566624,57.037298 -2.8159361,57.079179 C -2.5353196,57.127999 -2.2986028,57.219312 -2.0495505,57.284306 C -1.7711855,57.35695 -1.5638491,57.43157 -1.3421188,57.489434 C -1.0784366,57.558245 -0.72584562,57.517401 -0.45782706,57.540715 C -0.17732113,57.565117 0.00040712139,57.651207 0.24960468,57.694561 C 0.61224162,57.757652 0.76008769,57.702248 0.97491819,57.809034"
           id="path3219"
           sodipodi:nodetypes="csssssssssssc" />
        <path
           style="fill:none;fill-opacity:1;fill-rule:evenodd;stroke:#000000;stroke-width:0.40000001;stroke-linecap:butt;stroke-linejoin:miter;marker:none;marker-start:none;marker-mid:none;marker-end:none;stroke-miterlimit:4;stroke-dasharray:none;stroke-dashoffset:0;stroke-opacity:1;visibility:visible;display:inline;overflow:visible;enable-background:accumulate"
           d="M 12.996172,52.390551 L 13.017015,54.403079"
           id="path3221" />
      </g>
      <path
         id="path3275"
         d="M 1.0921334,57.578083 C 0.9393478,57.542928 0.72342769,57.51139 0.61231091,57.507998 C 0.50119413,57.504607 0.21708873,57.457541 -0.019034429,57.403409 C -0.25515759,57.349277 -0.61009994,57.304404 -0.80779184,57.303691 C -1.0770278,57.302718 -1.3622242,57.247039 -1.9442135,57.08182 C -2.3715534,56.960504 -2.9421886,56.835356 -3.2122984,56.803713 C -3.482403,56.772068 -3.8119653,56.700231 -3.9446589,56.644073 C -4.1851157,56.542304 -4.1852874,56.542062 -3.9956615,56.571074 C -3.8910249,56.587083 -3.5046415,56.620957 -3.1370319,56.646348 C -2.4010145,56.697186 -1.6847608,56.792103 -1.0331771,56.925151 C -0.66011259,57.001327 -0.54219243,57.004407 -0.073532159,56.950222 C 0.22034647,56.916245 0.60948754,56.857882 0.79122913,56.820528 C 0.97297578,56.783173 1.4161802,56.703746 1.7761279,56.644024 C 2.2130087,56.571537 2.5732392,56.476594 2.8596781,56.358442 C 3.2678757,56.190064 4.2567241,55.670438 4.526652,55.482469 C 4.5961,55.434107 4.9142981,55.252797 5.2337588,55.079555 C 5.5532195,54.906314 5.8486892,54.735773 5.890358,54.700575 C 6.0293449,54.583174 6.872504,54.136529 7.0772872,54.071825 C 7.188404,54.036717 7.4288455,53.933004 7.6116023,53.841354 C 7.7943541,53.749703 8.2148301,53.590248 8.5459934,53.487008 C 8.8771518,53.383768 9.2682727,53.246277 9.4151489,53.181473 C 9.7548329,53.031596 11.112518,52.743651 12.016494,52.629766 C 12.399604,52.581501 12.720792,52.550543 12.730247,52.560971 C 12.739697,52.571398 12.755809,52.906856 12.766042,53.306432 L 12.784649,54.032931 L 12.254319,54.151682 C 11.962637,54.216991 11.612155,54.316576 11.475466,54.372978 C 11.338777,54.429379 11.134221,54.489349 11.020897,54.506242 C 10.698841,54.554249 9.9716823,54.771813 9.8358774,54.860795 C 9.7683538,54.905036 9.3946074,55.085839 9.00533,55.262578 C 8.6160526,55.439316 8.1479984,55.673599 7.9652113,55.783205 C 7.7824242,55.892814 7.5305932,56.021985 7.4055868,56.070257 C 7.2805804,56.118531 7.0792873,56.225073 6.958266,56.307021 C 6.6917019,56.487521 6.0301681,56.75927 5.5097779,56.902038 C 5.2992621,56.959793 4.9635278,57.084658 4.7636995,57.179517 C 4.5638711,57.274375 4.1924128,57.39735 3.9382281,57.452795 C 3.0489403,57.646771 1.6569652,57.708047 1.0921334,57.578083 L 1.0921334,57.578083 z"
         style="opacity:1;fill:#808080;fill-opacity:1;fill-rule:nonzero;stroke:none;stroke-width:0.40799999;stroke-linecap:round;stroke-linejoin:round;marker:none;marker-start:none;marker-mid:none;marker-end:none;stroke-miterlimit:4;stroke-dasharray:none;stroke-dashoffset:0;stroke-opacity:0.98983047;visibility:visible;display:inline;overflow:visible;enable-background:accumulate" />
    </g>
    <g
       id="g3291"
       transform="translate(-0.404061,-5.1306019)">
      <rect
         y="7.8571429"
         x="11"
         height="6.5714288"
         width="26.928572"
         id="rect3285"
         style="opacity:1;fill:#009200;fill-opacity:1;fill-rule:nonzero;stroke:#ffffff;stroke-width:0.40000001;stroke-linecap:round;stroke-linejoin:round;stroke-miterlimit:4;stroke-dasharray:none;stroke-opacity:1" />
      <text
         transform="scale(1.143485,0.8745196)"
         id="text3287"
         y="15.273692"
         x="14.208722"
         style="font-size:6.86090994px;font-style:normal;font-weight:normal;fill:#ffffff;fill-opacity:1;stroke:none;stroke-width:1px;stroke-linecap:butt;stroke-linejoin:miter;stroke-opacity:1;font-family:Bitstream Vera Sans"
         xml:space="preserve"><tspan
           y="15.273692"
           x="14.208722"
           id="tspan3289"
           sodipodi:role="line">EXIT</tspan></text>
    </g>
  </g>
</svg>
