<?xml version="1.0" encoding="UTF-8" standalone="no"?>
<!-- Created with Inkscape (http://www.inkscape.org/) -->
<svg
   xmlns:dc="http://purl.org/dc/elements/1.1/"
   xmlns:cc="http://creativecommons.org/ns#"
   xmlns:rdf="http://www.w3.org/1999/02/22-rdf-syntax-ns#"
   xmlns:svg="http://www.w3.org/2000/svg"
   xmlns="http://www.w3.org/2000/svg"
   xmlns:xlink="http://www.w3.org/1999/xlink"
   xmlns:sodipodi="http://sodipodi.sourceforge.net/DTD/sodipodi-0.dtd"
   xmlns:inkscape="http://www.inkscape.org/namespaces/inkscape"
   width="48px"
   height="48px"
   id="svg2383"
   sodipodi:version="0.32"
   inkscape:version="0.46"
   sodipodi:docname="Pokal-Maus.svg"
   inkscape:output_extension="org.inkscape.output.svg.inkscape">
  <defs
     id="defs2385">
    <linearGradient
       inkscape:collect="always"
       id="linearGradient3465">
      <stop
         style="stop-color:#ffaaaa;stop-opacity:1;"
         offset="0"
         id="stop3467" />
      <stop
         style="stop-color:#ffaaaa;stop-opacity:0;"
         offset="1"
         id="stop3469" />
    </linearGradient>
    <inkscape:perspective
       sodipodi:type="inkscape:persp3d"
       inkscape:vp_x="0 : 24 : 1"
       inkscape:vp_y="0 : 1000 : 0"
       inkscape:vp_z="48 : 24 : 1"
       inkscape:persp3d-origin="24 : 16 : 1"
       id="perspective2391" />
    <linearGradient
       inkscape:collect="always"
       xlink:href="#linearGradient3465"
       id="linearGradient3471"
       x1="-30.857143"
       y1="7.4107141"
       x2="-27.107143"
       y2="7.4107141"
       gradientUnits="userSpaceOnUse" />
    <linearGradient
       inkscape:collect="always"
       xlink:href="#linearGradient3465"
       id="linearGradient3473"
       x1="-30.857143"
       y1="7.4107141"
       x2="-27.107143"
       y2="7.4107141"
       gradientUnits="userSpaceOnUse" />
    <linearGradient
       inkscape:collect="always"
       xlink:href="#linearGradient3465"
       id="linearGradient3475"
       x1="-24.441864"
       y1="10.260255"
       x2="-24.205391"
       y2="10.260255"
       gradientUnits="userSpaceOnUse" />
    <linearGradient
       inkscape:collect="always"
       xlink:href="#linearGradient3465"
       id="linearGradient3477"
       x1="-24.455275"
       y1="10.26069"
       x2="-24.190988"
       y2="10.26069"
       gradientUnits="userSpaceOnUse" />
    <linearGradient
       inkscape:collect="always"
       xlink:href="#linearGradient3465"
       id="linearGradient3479"
       x1="-21.383545"
       y1="10.162491"
       x2="-21.024553"
       y2="10.162491"
       gradientUnits="userSpaceOnUse" />
  </defs>
  <sodipodi:namedview
     id="base"
     pagecolor="#ffffff"
     bordercolor="#666666"
     borderopacity="1.0"
     inkscape:pageopacity="0.0"
     inkscape:pageshadow="2"
     inkscape:zoom="7"
     inkscape:cx="-24.332349"
     inkscape:cy="35.947141"
     inkscape:current-layer="layer1"
     showgrid="true"
     inkscape:grid-bbox="true"
     inkscape:document-units="px"
     showguides="true"
     inkscape:guide-bbox="true"
     inkscape:window-width="1494"
     inkscape:window-height="1006"
     inkscape:window-x="19"
     inkscape:window-y="43" />
  <metadata
     id="metadata2388">
    <rdf:RDF>
      <cc:Work
         rdf:about="">
        <dc:format>image/svg+xml</dc:format>
        <dc:type
           rdf:resource="http://purl.org/dc/dcmitype/StillImage" />
      </cc:Work>
    </rdf:RDF>
  </metadata>
  <g
     id="layer1"
     inkscape:label="Layer 1"
     inkscape:groupmode="layer">
    <g
       id="g3284"
       transform="translate(2,5.4285714)">
      <path
         sodipodi:nodetypes="ccccc"
         id="path2393"
         d="M 15.696428,37.357143 C 29.696428,37.428571 29.696428,37.428571 29.696428,37.428571 L 32.910714,42 L 12.196428,42.071428 L 15.696428,37.357143 z"
         style="opacity:1;fill:none;fill-opacity:1;fill-rule:evenodd;stroke:#000000;stroke-width:1.00399995;stroke-linecap:round;stroke-linejoin:round;marker:none;marker-start:none;marker-mid:none;marker-end:none;stroke-miterlimit:4;stroke-dasharray:none;stroke-dashoffset:0;stroke-opacity:1;visibility:visible;display:inline;overflow:visible;enable-background:accumulate" />
      <path
         id="path2395"
         d="M 20.496905,29.567689 C 20.343148,29.568877 19.894782,29.967781 19.587767,30.274796 C 18.940159,30.922404 20.175663,31.464078 20.547412,31.587994 C 21.003342,31.739971 20.994447,32.337331 21.102996,32.699162 C 21.180387,32.957131 20.946126,33.561949 20.900966,33.81033 C 20.824587,34.230414 20.484508,34.346858 20.143351,34.517437 C 19.838645,34.66979 19.263095,34.729957 18.931168,34.820483 C 18.387528,34.968748 18.31386,34.983222 17.921016,35.376067 C 17.670146,35.626936 17.630528,36.174906 17.516955,36.487234 C 17.33649,36.983511 17.415939,37.11077 17.415939,37.295356"
         style="opacity:1;fill:none;fill-opacity:1;fill-rule:evenodd;stroke:#000000;stroke-width:1.00399995;stroke-linecap:round;stroke-linejoin:round;marker:none;marker-start:none;marker-mid:none;marker-end:none;stroke-miterlimit:4;stroke-dasharray:none;stroke-dashoffset:0;stroke-opacity:1;visibility:visible;display:inline;overflow:visible;enable-background:accumulate" />
      <path
         id="path2399"
         d="M 24.915388,29.592943 C 25.069145,29.594131 25.517511,29.993035 25.824526,30.30005 C 26.472134,30.947658 25.23663,31.489332 24.864881,31.613248 C 24.408951,31.765225 24.417846,32.362585 24.309297,32.724416 C 24.231906,32.982385 24.466167,33.587203 24.511327,33.835584 C 24.587706,34.255668 24.927785,34.372112 25.268942,34.542691 C 25.573648,34.695044 26.149198,34.755211 26.481125,34.845737 C 27.024765,34.994002 27.098433,35.008476 27.491277,35.401321 C 27.742147,35.65219 27.781765,36.20016 27.895338,36.512488 C 28.075803,37.008765 27.996354,37.136024 27.996354,37.32061"
         style="opacity:1;fill:none;fill-opacity:1;fill-rule:evenodd;stroke:#000000;stroke-width:1.00399995;stroke-linecap:round;stroke-linejoin:round;marker:none;marker-start:none;marker-mid:none;marker-end:none;stroke-miterlimit:4;stroke-dasharray:none;stroke-dashoffset:0;stroke-opacity:1;visibility:visible;display:inline;overflow:visible;enable-background:accumulate" />
      <path
         transform="matrix(1.369613,0,0,1.2201758,-9.4273681,-15.607161)"
         d="M 33.789602,16.862047 A 10.606602,1.6414979 0 1 1 12.576399,16.862047 A 10.606602,1.6414979 0 1 1 33.789602,16.862047 z"
         sodipodi:ry="1.6414979"
         sodipodi:rx="10.606602"
         sodipodi:cy="16.862047"
         sodipodi:cx="23.183001"
         id="path2407"
         style="opacity:1;fill:none;fill-opacity:1;fill-rule:evenodd;stroke:#000000;stroke-width:0.77664685;stroke-linecap:round;stroke-linejoin:round;marker:none;marker-start:none;marker-mid:none;marker-end:none;stroke-miterlimit:4;stroke-dasharray:none;stroke-dashoffset:0;stroke-opacity:1;visibility:visible;display:inline;overflow:visible;enable-background:accumulate"
         sodipodi:type="arc" />
      <path
         sodipodi:nodetypes="csssssssssssssssc"
         id="path2411"
         d="M 7.8791899,4.9169939 C 7.8791899,5.590429 7.8791899,6.263864 7.8791899,6.937299 C 7.8791899,7.6284992 8.0089399,7.9982994 7.8791899,8.6545584 C 7.6718574,9.7032195 7.8422746,10.235895 7.7781746,10.876894 C 7.7371682,11.286958 7.6194342,12.096285 7.6771594,12.947706 C 7.722965,13.623319 7.5941335,13.74476 7.7781746,14.513443 C 7.9217718,15.113205 7.8236028,15.240581 8.131728,16.028672 C 8.4001697,16.715265 8.5649325,17.465237 8.8388348,18.149992 C 9.0749927,18.740387 9.377195,19.057562 9.6974644,19.564206 C 10.2916,20.504087 10.836741,20.94724 11.566246,21.786541 C 14.086509,24.686123 12.716498,23.261184 13.435029,23.907861 C 14.212574,24.607652 15.242201,25.550376 16.111933,26.130197 C 16.999935,26.722199 14.778043,25.117731 18.586807,28.150503 C 19.060535,28.527714 19.689122,28.914105 20.152543,29.261671 C 20.475053,29.503553 21.026424,29.918987 21.314219,30.170808 C 21.766533,30.566583 21.760864,30.557482 22.172848,30.877914 C 22.209244,30.906222 22.502098,31.132523 22.639147,31.189626"
         style="opacity:1;fill:none;fill-opacity:1;fill-rule:evenodd;stroke:#000000;stroke-width:1.00399995;stroke-linecap:round;stroke-linejoin:round;marker:none;marker-start:none;marker-mid:none;marker-end:none;stroke-miterlimit:4;stroke-dasharray:none;stroke-dashoffset:0;stroke-opacity:1;visibility:visible;display:inline;overflow:visible;enable-background:accumulate" />
      <path
         sodipodi:nodetypes="csssssssssssssssc"
         id="path2413"
         d="M 36.91326,4.7907249 C 36.91326,5.4641603 36.91326,6.1375953 36.91326,6.8110303 C 36.91326,7.5022303 36.78351,7.8720303 36.91326,8.5282893 C 37.120593,9.5769503 36.950176,10.109626 37.014276,10.750625 C 37.055282,11.160689 37.173016,11.970016 37.115291,12.821437 C 37.069485,13.49705 37.198317,13.618491 37.014276,14.387174 C 36.870679,14.986936 36.968848,15.114312 36.660722,15.902403 C 36.392281,16.588996 36.227518,17.338968 35.953616,18.023723 C 35.717458,18.614118 35.415255,18.931293 35.094986,19.437937 C 34.50085,20.377818 33.955709,20.820971 33.226204,21.660272 C 30.705941,24.559854 32.075952,23.134915 31.357421,23.781592 C 30.579876,24.481383 29.800249,25.459821 28.930517,26.039642 C 28.042515,26.631644 30.12155,25.134319 26.312786,28.167091 C 25.839058,28.544302 25.567614,29.037836 25.104193,29.385402 C 24.781683,29.627284 24.123169,30.114147 23.835374,30.365968 C 23.38306,30.761743 23.356342,30.714865 22.976745,31.073074 C 22.833206,31.208524 22.665352,31.166968 22.528303,31.224071"
         style="opacity:1;fill:none;fill-opacity:1;fill-rule:evenodd;stroke:#000000;stroke-width:1.00399995;stroke-linecap:round;stroke-linejoin:round;marker:none;marker-start:none;marker-mid:none;marker-end:none;stroke-miterlimit:4;stroke-dasharray:none;stroke-dashoffset:0;stroke-opacity:1;visibility:visible;display:inline;overflow:visible;enable-background:accumulate" />
      <path
         sodipodi:nodetypes="ccc"
         id="path2415"
         d="M 29.732142,37.464286 C 29.160714,36.607143 29.089285,36.464286 29.089285,36.464286 L 27.946428,36.464286"
         style="opacity:1;fill:none;fill-opacity:1;fill-rule:evenodd;stroke:#000000;stroke-width:1.00399995;stroke-linecap:round;stroke-linejoin:round;marker:none;marker-start:none;marker-mid:none;marker-end:none;stroke-miterlimit:4;stroke-dasharray:none;stroke-dashoffset:0;stroke-opacity:1;visibility:visible;display:inline;overflow:visible;enable-background:accumulate" />
      <path
         sodipodi:nodetypes="ccc"
         id="path2417"
         d="M 15.75,37.339286 C 16.321428,36.482143 16.392857,36.339286 16.392857,36.339286 L 17.535714,36.339286"
         style="opacity:1;fill:none;fill-opacity:1;fill-rule:evenodd;stroke:#000000;stroke-width:1.00399995;stroke-linecap:round;stroke-linejoin:round;marker:none;marker-start:none;marker-mid:none;marker-end:none;stroke-miterlimit:4;stroke-dasharray:none;stroke-dashoffset:0;stroke-opacity:1;visibility:visible;display:inline;overflow:visible;enable-background:accumulate" />
      <g
         style="stroke-width:1.00399995;stroke-linecap:round;stroke-linejoin:round;stroke-miterlimit:4;stroke-dasharray:none"
         id="g2455">
        <path
           style="opacity:1;fill:none;fill-opacity:1;fill-rule:evenodd;stroke:#000000;stroke-width:1.00399995;stroke-linecap:round;stroke-linejoin:round;marker:none;marker-start:none;marker-mid:none;marker-end:none;stroke-miterlimit:4;stroke-dasharray:none;stroke-dashoffset:0;stroke-opacity:1;visibility:visible;display:inline;overflow:visible;enable-background:accumulate"
           d="M 39.59798,8.6040508 C 39.701716,8.8461021 40.127677,9.2385647 40.052548,9.917249 C 40.035602,10.070335 39.777899,10.231134 39.698995,10.32131 C 39.536678,10.506815 39.252133,10.540461 39.042396,10.624356 C 38.826325,10.710784 38.579464,10.787653 38.385797,10.826386 C 38.10171,10.883204 37.889305,10.757392 37.729198,10.725371 C 37.477907,10.675113 37.425483,10.453307 37.274629,10.32131 C 37.130992,10.195628 37.030723,9.8125605 36.971583,9.6647109 C 36.899507,9.4845199 36.898494,9.0972321 36.870568,8.9576041 C 36.831359,8.7615585 36.792622,8.4811876 36.769553,8.2504973 C 36.744878,8.0037476 36.769553,7.7410885 36.769553,7.4928829 C 36.769553,7.3048884 36.948161,7.0211082 37.022091,6.8362838 C 37.114728,6.6046905 37.223438,6.5007051 37.325137,6.3312075 C 37.425911,6.1632503 37.633375,6.0438738 37.779705,5.8766389 C 37.955346,5.6759061 38.119607,5.4954433 38.284781,5.3715626 C 38.466227,5.2354784 38.767422,5.114653 38.941381,5.0180092 C 39.169716,4.8911561 39.435063,4.9192727 39.698995,4.8664863 C 39.990722,4.8081408 40.22279,4.87023 40.456609,4.9169939 C 40.724068,4.9704857 40.964207,5.0897282 41.163716,5.1695321 C 41.42944,5.2758215 41.466088,5.3962267 41.668792,5.5735931 C 41.825143,5.7103995 41.908165,5.8471615 42.022346,5.9776541 C 42.178145,6.1557106 42.282406,6.306222 42.426407,6.4322228 C 42.55444,6.5442515 42.621869,6.844664 42.729453,7.0383143 C 42.857566,7.2689178 42.854989,7.5360674 42.880976,7.7959287 C 42.900949,7.9956612 42.9985,8.282538 43.032498,8.4525278 C 43.085682,8.7184457 43.103603,8.8605229 43.133514,9.1596346 C 43.160436,9.4288556 43.103859,9.6582104 43.083006,9.8667414 C 43.060583,10.090974 42.964987,10.305313 42.931483,10.472833 C 42.887474,10.692881 42.819924,10.879107 42.77996,11.078924 C 42.725596,11.350748 42.676013,11.497646 42.628437,11.735524 C 42.573641,12.009508 42.464517,12.221087 42.375899,12.44263 C 42.274804,12.695369 42.177963,12.886963 42.072854,13.149737 C 41.968202,13.411366 41.852959,13.616258 41.7193,13.856844 C 41.578995,14.109394 41.406271,14.301133 41.264731,14.513443 C 41.135494,14.707299 40.967791,14.845588 40.86067,14.968012 C 40.700524,15.151036 40.5793,15.33287 40.456609,15.473088 C 40.328177,15.619868 40.196829,15.853134 40.103056,15.978164 C 39.962929,16.165001 39.838089,16.276253 39.698995,16.432733 C 39.474905,16.684834 39.396379,16.714285 39.244426,16.916888 C 39.090881,17.121614 38.936646,17.233045 38.819444,17.389315 C 38.679917,17.575351 38.551429,17.746316 38.388335,18.010199 C 38.258573,18.220152 38.219031,18.496145 38.212827,18.770877 C 38.206055,19.070739 38.215891,19.266869 38.358749,19.582063 C 38.458992,19.803236 38.586024,19.89619 38.679651,20.036631 C 38.806084,20.22628 38.865164,20.384793 39.047997,20.544772 C 39.246396,20.718371 39.293381,20.866905 39.585724,20.925374 C 39.873288,20.982886 40.697253,20.734787 40.790293,20.628456 C 40.883225,20.522249 40.994622,19.912105 40.992788,19.714448 C 40.990864,19.506948 40.675013,19.33894 40.593865,19.325935 C 40.287163,19.276785 40.031252,19.531982 39.909691,19.519826 C 39.718686,19.500725 39.637364,19.268282 39.67501,19.080051"
           id="path2447"
           sodipodi:nodetypes="csssssssssssssssssssssssssssssssssssssssssssssssssc" />
        <path
           style="opacity:1;fill:none;fill-opacity:1;fill-rule:evenodd;stroke:#000000;stroke-width:1.00399995;stroke-linecap:round;stroke-linejoin:round;marker:none;marker-start:none;marker-mid:none;marker-end:none;stroke-miterlimit:4;stroke-dasharray:none;stroke-dashoffset:0;stroke-opacity:1;visibility:visible;display:inline;overflow:visible;enable-background:accumulate"
           d="M 39.749503,19.362175 C 39.633458,19.350571 39.698995,18.728826 39.698995,18.554053 C 39.698995,18.29996 39.857622,18.16751 39.951533,17.998469 C 40.048325,17.824244 40.422431,17.833579 40.608132,17.796439 C 40.875283,17.743009 41.126339,17.859674 41.315239,17.897454 C 41.575177,17.949442 41.729027,18.121724 41.870823,18.2005 C 42.073819,18.313276 42.031599,18.425293 42.17947,18.536196 C 42.340365,18.656867 42.457998,19.007769 42.539151,19.210652 C 42.635963,19.452682 42.523375,19.657488 42.550882,19.932553 C 42.575511,20.178844 42.458531,20.482115 42.458531,20.743738 C 42.458531,20.991926 42.421424,21.068999 42.363644,21.227894 C 42.363644,21.563598 42.307587,21.55475 42.191201,21.845715 C 42.130175,21.998278 42.000576,22.179197 41.91214,22.267633 C 41.739595,22.440178 41.566925,22.562233 41.42492,22.686488 C 41.254955,22.835207 41.145976,22.807502 40.946892,22.918104 C 40.765597,23.018824 40.443295,23.054539 40.284165,23.102278 C 40.009596,23.184649 39.878249,23.137992 39.618901,23.137992 C 39.330721,23.137992 39.116442,23.047863 38.911794,22.986469 C 38.736815,22.933975 38.580529,22.86702 38.442432,22.784965 C 38.11697,22.59158 37.9827,22.47335 37.779705,22.247238 C 37.616966,22.065966 37.342556,21.880496 37.218519,21.715113 C 37.064902,21.510291 36.864831,21.15649 36.719045,21.028927 C 36.589034,20.915168 36.475852,20.638884 36.365492,20.473343 C 36.221759,20.257744 36.103687,20.157942 35.961431,19.968267 C 35.811514,19.768378 35.886336,19.520367 35.860415,19.26116 C 35.833877,18.99578 35.832369,18.784005 35.860415,18.503546 C 35.886439,18.243309 35.954779,17.986969 36.011938,17.796439 C 36.067349,17.611736 36.110713,17.730589 36.163461,17.695424"
           id="path2449"
           sodipodi:nodetypes="cssssssssscssssssssssssssssc" />
        <path
           style="opacity:1;fill:none;fill-opacity:1;fill-rule:evenodd;stroke:#000000;stroke-width:1.00399995;stroke-linecap:round;stroke-linejoin:round;marker:none;marker-start:none;marker-mid:none;marker-end:none;stroke-miterlimit:4;stroke-dasharray:none;stroke-dashoffset:0;stroke-opacity:1;visibility:visible;display:inline;overflow:visible;enable-background:accumulate"
           d="M 36.163461,17.493393 C 36.183647,17.326338 36.420245,17.016509 36.517015,16.836794 C 36.616867,16.651353 36.775297,16.458745 36.870568,16.331718 C 37.019083,16.133697 37.108666,15.949317 37.224121,15.776134 C 37.358955,15.573883 37.447616,15.414249 37.527167,15.271058 C 37.689375,14.979084 37.793878,14.889158 37.931228,14.614458 C 38.035346,14.406222 38.246479,14.218733 38.335289,14.058874 C 38.480571,13.797367 38.622958,13.658481 38.73935,13.503291 C 38.88739,13.305903 39.056256,13.131257 39.193919,12.947707 C 39.322534,12.77622 39.415572,12.579035 39.547472,12.341615 C 39.680912,12.101423 39.859693,11.948714 40.002041,11.786031 C 40.14374,11.624089 40.202692,11.485055 40.305087,11.331463 C 40.42688,11.148773 40.508319,10.974905 40.608132,10.725371 C 40.707008,10.478183 40.701869,10.408213 40.759655,10.11928 C 40.797276,9.9311759 40.810163,9.668911 40.810163,9.4121728 C 40.810163,9.135065 40.762575,8.9722043 40.709148,8.705066 C 40.665535,8.4870021 40.549908,8.2921188 40.507117,8.1494821 C 40.41989,7.858725 40.309131,7.923212 40.153564,7.7454211 C 40.002874,7.5732045 39.70366,7.6444058 39.547472,7.6444058 C 39.323156,7.6444058 39.350285,7.9649773 39.294934,8.1494821 C 39.185543,8.5141183 39.479621,8.5188556 39.547472,8.6545584 C 39.608175,8.7759636 39.715831,8.9407682 39.850518,8.9576041"
           id="path2453"
           sodipodi:nodetypes="cssssssssssssssssssssc" />
      </g>
      <g
         style="stroke-width:1.00399995;stroke-linecap:round;stroke-linejoin:round;stroke-miterlimit:4;stroke-dasharray:none"
         transform="matrix(-1,0,0,1,44.793591,0.3144354)"
         id="g2460">
        <path
           style="opacity:1;fill:none;fill-opacity:1;fill-rule:evenodd;stroke:#000000;stroke-width:1.00399995;stroke-linecap:round;stroke-linejoin:round;marker:none;marker-start:none;marker-mid:none;marker-end:none;stroke-miterlimit:4;stroke-dasharray:none;stroke-dashoffset:0;stroke-opacity:1;visibility:visible;display:inline;overflow:visible;enable-background:accumulate"
           d="M 39.59798,8.6040508 C 39.701716,8.8461021 40.127677,9.2385647 40.052548,9.917249 C 40.035602,10.070335 39.777899,10.231134 39.698995,10.32131 C 39.536678,10.506815 39.252133,10.540461 39.042396,10.624356 C 38.826325,10.710784 38.579464,10.787653 38.385797,10.826386 C 38.10171,10.883204 37.889305,10.757392 37.729198,10.725371 C 37.477907,10.675113 37.425483,10.453307 37.274629,10.32131 C 37.130992,10.195628 37.030723,9.8125605 36.971583,9.6647109 C 36.899507,9.4845199 36.898494,9.0972321 36.870568,8.9576041 C 36.831359,8.7615585 36.792622,8.4811876 36.769553,8.2504973 C 36.744878,8.0037476 36.769553,7.7410885 36.769553,7.4928829 C 36.769553,7.3048884 36.948161,7.0211082 37.022091,6.8362838 C 37.114728,6.6046905 37.223438,6.5007051 37.325137,6.3312075 C 37.425911,6.1632503 37.633375,6.0438738 37.779705,5.8766389 C 37.955346,5.6759061 38.119607,5.4954433 38.284781,5.3715626 C 38.466227,5.2354784 38.767422,5.114653 38.941381,5.0180092 C 39.169716,4.8911561 39.435063,4.9192727 39.698995,4.8664863 C 39.990722,4.8081408 40.22279,4.87023 40.456609,4.9169939 C 40.724068,4.9704857 40.964207,5.0897282 41.163716,5.1695321 C 41.42944,5.2758215 41.466088,5.3962267 41.668792,5.5735931 C 41.825143,5.7103995 41.908165,5.8471615 42.022346,5.9776541 C 42.178145,6.1557106 42.282406,6.306222 42.426407,6.4322228 C 42.55444,6.5442515 42.621869,6.844664 42.729453,7.0383143 C 42.857566,7.2689178 42.854989,7.5360674 42.880976,7.7959287 C 42.900949,7.9956612 42.9985,8.282538 43.032498,8.4525278 C 43.085682,8.7184457 43.103603,8.8605229 43.133514,9.1596346 C 43.160436,9.4288556 43.103859,9.6582104 43.083006,9.8667414 C 43.060583,10.090974 42.964987,10.305313 42.931483,10.472833 C 42.887474,10.692881 42.819924,10.879107 42.77996,11.078924 C 42.725596,11.350748 42.676013,11.497646 42.628437,11.735524 C 42.573641,12.009508 42.464517,12.221087 42.375899,12.44263 C 42.274804,12.695369 42.177963,12.886963 42.072854,13.149737 C 41.968202,13.411366 41.852959,13.616258 41.7193,13.856844 C 41.578995,14.109394 41.406271,14.301133 41.264731,14.513443 C 41.135494,14.707299 40.967791,14.845588 40.86067,14.968012 C 40.700524,15.151036 40.5793,15.33287 40.456609,15.473088 C 40.328177,15.619868 40.196829,15.853134 40.103056,15.978164 C 39.962929,16.165001 39.838089,16.276253 39.698995,16.432733 C 39.474905,16.684834 39.396379,16.714285 39.244426,16.916888 C 39.090881,17.121614 38.936646,17.233045 38.819444,17.389315 C 38.679917,17.575351 38.551429,17.746316 38.388335,18.010199 C 38.258573,18.220152 38.219031,18.496145 38.212827,18.770877 C 38.206055,19.070739 38.215891,19.266869 38.358749,19.582063 C 38.458992,19.803236 38.586024,19.89619 38.679651,20.036631 C 38.806084,20.22628 38.865164,20.384793 39.047997,20.544772 C 39.246396,20.718371 39.293381,20.866905 39.585724,20.925374 C 39.873288,20.982886 40.697253,20.734787 40.790293,20.628456 C 40.883225,20.522249 40.994622,19.912105 40.992788,19.714448 C 40.990864,19.506948 40.675013,19.33894 40.593865,19.325935 C 40.287163,19.276785 40.031252,19.531982 39.909691,19.519826 C 39.718686,19.500725 39.637364,19.268282 39.67501,19.080051"
           id="path2462"
           sodipodi:nodetypes="csssssssssssssssssssssssssssssssssssssssssssssssssc" />
        <path
           style="opacity:1;fill:none;fill-opacity:1;fill-rule:evenodd;stroke:#000000;stroke-width:1.00399995;stroke-linecap:round;stroke-linejoin:round;marker:none;marker-start:none;marker-mid:none;marker-end:none;stroke-miterlimit:4;stroke-dasharray:none;stroke-dashoffset:0;stroke-opacity:1;visibility:visible;display:inline;overflow:visible;enable-background:accumulate"
           d="M 39.749503,19.362175 C 39.633458,19.350571 39.698995,18.728826 39.698995,18.554053 C 39.698995,18.29996 39.857622,18.16751 39.951533,17.998469 C 40.048325,17.824244 40.422431,17.833579 40.608132,17.796439 C 40.875283,17.743009 41.126339,17.859674 41.315239,17.897454 C 41.575177,17.949442 41.729027,18.121724 41.870823,18.2005 C 42.073819,18.313276 42.031599,18.425293 42.17947,18.536196 C 42.340365,18.656867 42.457998,19.007769 42.539151,19.210652 C 42.635963,19.452682 42.523375,19.657488 42.550882,19.932553 C 42.575511,20.178844 42.458531,20.482115 42.458531,20.743738 C 42.458531,20.991926 42.421424,21.068999 42.363644,21.227894 C 42.363644,21.563598 42.307587,21.55475 42.191201,21.845715 C 42.130175,21.998278 42.000576,22.179197 41.91214,22.267633 C 41.739595,22.440178 41.566925,22.562233 41.42492,22.686488 C 41.254955,22.835207 41.145976,22.807502 40.946892,22.918104 C 40.765597,23.018824 40.443295,23.054539 40.284165,23.102278 C 40.009596,23.184649 39.878249,23.137992 39.618901,23.137992 C 39.330721,23.137992 39.116442,23.047863 38.911794,22.986469 C 38.736815,22.933975 38.580529,22.86702 38.442432,22.784965 C 38.11697,22.59158 37.9827,22.47335 37.779705,22.247238 C 37.616966,22.065966 37.342556,21.880496 37.218519,21.715113 C 37.064902,21.510291 36.864831,21.15649 36.719045,21.028927 C 36.589034,20.915168 36.475852,20.638884 36.365492,20.473343 C 36.221759,20.257744 36.103687,20.157942 35.961431,19.968267 C 35.811514,19.768378 35.886336,19.520367 35.860415,19.26116 C 35.833877,18.99578 35.832369,18.784005 35.860415,18.503546 C 35.886439,18.243309 35.954779,17.986969 36.011938,17.796439 C 36.067349,17.611736 36.110713,17.730589 36.163461,17.695424"
           id="path2464"
           sodipodi:nodetypes="cssssssssscssssssssssssssssc" />
        <path
           style="opacity:1;fill:none;fill-opacity:1;fill-rule:evenodd;stroke:#000000;stroke-width:1.00399995;stroke-linecap:round;stroke-linejoin:round;marker:none;marker-start:none;marker-mid:none;marker-end:none;stroke-miterlimit:4;stroke-dasharray:none;stroke-dashoffset:0;stroke-opacity:1;visibility:visible;display:inline;overflow:visible;enable-background:accumulate"
           d="M 36.163461,17.493393 C 36.183647,17.326338 36.420245,17.016509 36.517015,16.836794 C 36.616867,16.651353 36.775297,16.458745 36.870568,16.331718 C 37.019083,16.133697 37.108666,15.949317 37.224121,15.776134 C 37.358955,15.573883 37.447616,15.414249 37.527167,15.271058 C 37.689375,14.979084 37.793878,14.889158 37.931228,14.614458 C 38.035346,14.406222 38.246479,14.218733 38.335289,14.058874 C 38.480571,13.797367 38.622958,13.658481 38.73935,13.503291 C 38.88739,13.305903 39.056256,13.131257 39.193919,12.947707 C 39.322534,12.77622 39.415572,12.579035 39.547472,12.341615 C 39.680912,12.101423 39.859693,11.948714 40.002041,11.786031 C 40.14374,11.624089 40.202692,11.485055 40.305087,11.331463 C 40.42688,11.148773 40.508319,10.974905 40.608132,10.725371 C 40.707008,10.478183 40.701869,10.408213 40.759655,10.11928 C 40.797276,9.9311759 40.810163,9.668911 40.810163,9.4121728 C 40.810163,9.135065 40.762575,8.9722043 40.709148,8.705066 C 40.665535,8.4870021 40.549908,8.2921188 40.507117,8.1494821 C 40.41989,7.858725 40.309131,7.923212 40.153564,7.7454211 C 40.002874,7.5732045 39.70366,7.6444058 39.547472,7.6444058 C 39.323156,7.6444058 39.350285,7.9649773 39.294934,8.1494821 C 39.185543,8.5141183 39.479621,8.5188556 39.547472,8.6545584 C 39.608175,8.7759636 39.715831,8.9407682 39.850518,8.9576041"
           id="path2466"
           sodipodi:nodetypes="cssssssssssssssssssssc" />
      </g>
    </g>
    <path
       style="opacity:1;fill:#f9d100;fill-opacity:1;fill-rule:nonzero;stroke:none;stroke-width:0.40799999;stroke-linecap:round;stroke-linejoin:round;marker:none;marker-start:none;marker-mid:none;marker-end:none;stroke-miterlimit:4;stroke-dasharray:none;stroke-dashoffset:0;stroke-opacity:0.98983047;visibility:visible;display:inline;overflow:visible;enable-background:accumulate"
       d="M 24.223483,35.614426 C 24.095998,35.473558 23.337026,34.878915 22.536869,34.292999 C 21.736726,33.707086 20.529283,32.775725 19.853669,32.223312 C 19.17804,31.670899 18.239569,30.923254 17.76814,30.561875 C 16.615955,29.678652 15.294926,28.380005 13.794198,26.655256 C 12.025026,24.622001 11.48624,23.750262 10.88114,21.941985 C 10.29924,20.203049 10.282183,19.905972 10.425069,14.000056 L 10.482426,11.629555 L 11.196712,11.819854 C 13.237998,12.363701 16.14034,12.686632 20.706698,12.877994 C 27.199755,13.150098 35.509383,12.586476 37.790369,11.719249 C 37.984798,11.645324 38.187912,11.584974 38.241726,11.585134 C 38.343998,11.585442 38.466626,15.235182 38.467312,18.299128 C 38.467698,19.991785 38.439055,20.170454 37.917626,21.727699 C 37.264326,23.678744 36.767955,24.499686 35.053855,26.464038 C 32.879269,28.956104 31.835483,29.991278 30.054412,31.422256 C 29.111869,32.179539 27.89044,33.219444 27.340126,33.733164 C 25.914712,35.063802 24.904355,35.870556 24.663312,35.870556 C 24.548898,35.870556 24.350969,35.755299 24.223483,35.614428 L 24.223483,35.614426 z"
       id="path3302" />
    <path
       style="opacity:1;fill:#f9d100;fill-opacity:1;fill-rule:nonzero;stroke:none;stroke-width:0.40799999;stroke-linecap:round;stroke-linejoin:round;marker:none;marker-start:none;marker-mid:none;marker-end:none;stroke-miterlimit:4;stroke-dasharray:none;stroke-dashoffset:0;stroke-opacity:0.98983047;visibility:visible;display:inline;overflow:visible;enable-background:accumulate"
       d="M 40.910998,27.785116 C 40.274883,27.437471 39.746412,26.904332 39.041826,25.899426 C 38.559669,25.211769 38.410998,24.869454 38.410998,24.446984 C 38.410998,23.866501 38.78184,22.862616 39.243069,22.194559 C 39.393226,21.977074 39.879626,21.252699 40.323955,20.584842 C 40.768298,19.916985 41.391498,19.016985 41.708855,18.584842 C 42.816612,17.076389 43.113555,16.543769 43.27184,15.781291 C 43.588069,14.258015 42.938512,12.698502 41.905655,12.501276 C 41.332226,12.391779 40.85644,12.782188 40.749612,13.449888 C 40.684012,13.860028 40.739826,14.042735 41.039669,14.399082 C 41.649712,15.124086 41.512498,15.374651 40.344812,15.667721 C 39.837998,15.794924 39.594498,15.288476 39.480726,13.870556 L 39.383312,12.656271 L 39.984926,11.972912 C 40.667355,11.197788 41.209469,10.870556 41.811155,10.870556 C 42.526683,10.870556 43.05494,11.144498 43.602426,11.799475 C 44.024998,12.304999 44.180526,12.663845 44.372198,13.575562 C 44.607655,14.695556 44.605998,14.744698 44.288012,16.063676 C 44.109598,16.803725 43.779969,17.797582 43.555498,18.272239 C 43.171555,19.084098 41.337769,21.543312 40.765783,22.013414 C 40.186226,22.489745 39.696712,23.479469 39.696712,24.174939 C 39.696712,25.061586 39.830012,25.376602 40.550212,26.191985 C 41.074583,26.785668 41.220112,26.870556 41.71344,26.870556 C 42.57874,26.870556 43.20264,26.549686 43.391669,26.007464 C 43.720955,25.062852 43.460269,24.395405 42.69654,24.227661 C 42.252569,24.130145 42.136383,23.948456 42.446712,23.836975 C 42.795083,23.711826 43.524298,24.018445 43.769955,24.393366 C 43.974498,24.705549 44.002383,24.954426 43.925498,25.781711 C 43.785826,27.284584 43.318255,27.821084 42.036212,27.949538 C 41.550498,27.998205 41.209812,27.948419 40.910998,27.785116 z"
       id="path3304" />
    <path
       style="opacity:1;fill:#f9d100;fill-opacity:1;fill-rule:nonzero;stroke:none;stroke-width:0.40799999;stroke-linecap:round;stroke-linejoin:round;marker:none;marker-start:none;marker-mid:none;marker-end:none;stroke-miterlimit:4;stroke-dasharray:none;stroke-dashoffset:0;stroke-opacity:0.98983047;visibility:visible;display:inline;overflow:visible;enable-background:accumulate"
       d="M 20.839569,11.773885 C 16.41124,11.633441 11.348326,10.960176 10.786098,10.436978 C 10.617712,10.280284 11.909969,9.907385 13.482426,9.6589093 C 16.474355,9.1861293 18.390026,9.0848421 24.339569,9.0848421 C 30.289112,9.0848421 32.204783,9.1861321 35.196712,9.6589093 C 36.75214,9.9046907 38.01884,10.267494 37.913969,10.437169 C 37.871669,10.505618 37.275126,10.693235 36.588312,10.854088 C 33.419569,11.596224 27.020883,11.969934 20.839569,11.773888 L 20.839569,11.773885 z"
       id="path3306" />
    <path
       style="opacity:1;fill:#f9d100;fill-opacity:1;fill-rule:nonzero;stroke:none;stroke-width:0.40799999;stroke-linecap:round;stroke-linejoin:round;marker:none;marker-start:none;marker-mid:none;marker-end:none;stroke-miterlimit:4;stroke-dasharray:none;stroke-dashoffset:0;stroke-opacity:0.98983047;visibility:visible;display:inline;overflow:visible;enable-background:accumulate"
       d="M 5.9925833,28.048909 C 5.2033405,27.646465 4.9498548,27.174558 4.8720976,25.962971 C 4.8073119,24.953404 4.8245691,24.872565 5.1810405,24.516092 C 5.4612262,24.235911 5.6749119,24.150024 6.0095119,24.183111 C 6.5593405,24.237482 6.6955119,24.505212 6.1882548,24.534535 C 5.9873119,24.546154 5.6914262,24.674628 5.5307548,24.820038 C 5.2910262,25.036984 5.2505262,25.208349 5.3049833,25.775124 C 5.3958119,26.720366 5.7431833,27.041496 6.7667119,27.126374 C 7.4635833,27.184166 7.6161976,27.148566 7.9381833,26.853118 C 8.6478548,26.201932 9.1252833,25.291906 9.1252833,24.590359 C 9.1252833,23.788311 8.8545548,23.269292 7.8361691,22.119015 C 5.6870691,19.691555 5.0603119,18.638724 4.5433148,16.587689 C 4.0667319,14.696968 4.2910805,13.195952 5.2155691,12.089972 C 6.1509119,10.970999 7.2898405,10.872596 8.3914976,11.815578 C 9.2965262,12.590244 9.3994405,12.880038 9.2862833,14.335204 C 9.1653405,15.890669 8.9806548,16.143712 8.1483833,15.894356 C 7.3153833,15.644779 7.1874976,15.417445 7.6015119,14.922255 C 8.0908405,14.336985 8.1687405,13.965381 7.9245833,13.381042 C 7.7256548,12.904928 7.6688262,12.870556 7.0806262,12.870556 C 6.2677405,12.870556 5.7874262,13.325482 5.5484262,14.321778 C 5.2122548,15.723045 5.5572548,16.818706 6.9132119,18.656271 C 8.2017548,20.402458 10.014726,23.211879 10.209755,23.764668 C 10.535312,24.687402 10.462955,25.128025 9.8251119,26.107039 C 8.5501119,28.063969 7.2820976,28.706449 5.9925833,28.048906 L 5.9925833,28.048909 z"
       id="path3308" />
    <path
       style="opacity:1;fill:#f9d100;fill-opacity:1;fill-rule:nonzero;stroke:none;stroke-width:0.40799999;stroke-linecap:round;stroke-linejoin:round;marker:none;marker-start:none;marker-mid:none;marker-end:none;stroke-miterlimit:4;stroke-dasharray:none;stroke-dashoffset:0;stroke-opacity:0.98983047;visibility:visible;display:inline;overflow:visible;enable-background:accumulate"
       d="M 20.152126,41.767956 C 20.334783,41.106418 20.566798,40.928634 21.537012,40.706758 C 22.991683,40.374099 23.600683,39.689964 23.61664,38.370556 C 23.62904,37.345441 23.357898,36.815022 22.621898,36.424574 C 22.146698,36.172481 22.035069,36.050692 22.151069,35.910915 C 22.234698,35.810144 22.366683,35.727699 22.444383,35.727699 C 22.593212,35.727699 24.019769,36.865306 24.101469,37.049128 C 24.127669,37.108056 24.358198,37.156271 24.613769,37.156271 C 24.957483,37.156271 25.310155,36.970325 25.968455,36.442008 C 26.708612,35.847981 26.90494,35.752635 27.134712,35.875605 C 27.510412,36.076668 27.49414,36.108049 26.841655,36.440919 C 26.201198,36.767654 25.915183,37.148934 25.786626,37.847299 C 25.680998,38.421124 25.934583,39.552715 26.252555,39.926446 C 26.519083,40.239702 27.504083,40.719985 27.889412,40.724562 C 28.374698,40.730328 29.097598,41.169355 29.183155,41.510278 C 29.229212,41.693835 29.306212,41.946414 29.35424,42.071571 C 29.43304,42.276911 28.98094,42.299128 24.723512,42.299128 L 20.005469,42.299128 L 20.152126,41.767956 z"
       id="path3310" />
    <path
       style="opacity:1;fill:#552200;fill-opacity:1;fill-rule:nonzero;stroke:none;stroke-width:0.40799998999999998;stroke-linecap:round;stroke-linejoin:round;marker:none;marker-start:none;marker-mid:none;marker-end:none;stroke-miterlimit:4;stroke-dasharray:none;stroke-dashoffset:0;stroke-opacity:0.98983047000000002;visibility:visible;display:inline;overflow:visible;enable-background:accumulate"
       d="M 15.729083,46.406271 C 15.922683,46.150914 16.522055,45.337636 17.06104,44.598988 L 18.040983,43.255994 L 20.690283,43.348584 C 22.147383,43.399511 25.154326,43.441359 27.372355,43.441581 L 31.40514,43.441985 L 32.515212,45.021278 C 33.125755,45.889888 33.646712,46.661316 33.672898,46.735564 C 33.702483,46.819409 30.24544,46.870556 24.548798,46.870556 L 15.377083,46.870556 L 15.729083,46.406271 z"
       id="path3312" />
    <path
       style="opacity:1;fill:#f9d100;fill-opacity:1;fill-rule:nonzero;stroke:none;stroke-width:0.40799999;stroke-linecap:round;stroke-linejoin:round;marker:none;marker-start:none;marker-mid:none;marker-end:none;stroke-miterlimit:4;stroke-dasharray:none;stroke-dashoffset:0;stroke-opacity:0.98983047;visibility:visible;display:inline;overflow:visible;enable-background:accumulate"
       d=""
       id="path3407" />
    <g
       id="g3481"
       transform="translate(46.857143,-3.5714286)">
      <g
         id="g3378">
        <path
           style="opacity:1;fill:none;fill-opacity:1;fill-rule:evenodd;stroke:#000000;stroke-width:0.5;stroke-linecap:round;stroke-linejoin:round;marker:none;marker-start:none;marker-mid:none;marker-end:none;stroke-miterlimit:4;stroke-dasharray:none;stroke-dashoffset:0;stroke-opacity:1;visibility:visible;display:inline;overflow:visible;enable-background:accumulate"
           d="M -19.596959,9.8162338 C -19.577669,9.9319741 -19.568689,10.008093 -19.546452,10.11928 C -19.508459,10.309242 -19.420303,10.522136 -19.394929,10.775879 C -19.37184,11.006766 -19.316505,11.203823 -19.344421,11.482985 C -19.369434,11.733117 -19.369132,11.935746 -19.445436,12.190092 C -19.496643,12.360782 -19.56532,12.698216 -19.697975,12.897199 C -19.863392,13.145325 -19.86024,13.241212 -20.102036,13.452783 C -20.258874,13.590017 -20.365767,13.713716 -20.556604,13.856844 C -20.698675,13.963397 -20.882075,14.065163 -21.011173,14.210397 C -21.174036,14.393619 -21.209217,14.510454 -21.415234,14.664966 C -21.581108,14.789371 -21.8369,15.069027 -22.021325,15.069027 C -22.258522,15.069027 -22.386929,15.090666 -22.627417,15.018519 C -22.824299,14.959455 -23.000107,14.909849 -23.233509,14.816489 C -23.463893,14.724335 -23.63094,14.668281 -23.8396,14.563951 C -24.05032,14.458591 -24.261924,14.420417 -24.445692,14.210397 C -24.55575,14.084616 -24.707731,13.918139 -24.849753,13.755829 C -24.994487,13.590418 -25.098302,13.380512 -25.304321,13.200245 C -25.455563,13.067908 -25.663036,12.96872 -25.75889,12.796184 C -25.857688,12.618347 -25.937451,12.481026 -26.011428,12.2406 C -26.085258,12.000652 -26.145147,11.732981 -26.213459,11.584001 C -26.263768,11.332456 -26.180209,10.948455 -26.162951,10.775879 C -26.136645,10.512815 -26.109014,10.354669 -26.061936,10.11928 C -26.023531,9.9272567 -25.936282,9.5920277 -25.910413,9.4626804"
           id="path3334" />
        <path
           style="opacity:1;fill:none;fill-opacity:1;fill-rule:evenodd;stroke:#000000;stroke-width:0.5;stroke-linecap:round;stroke-linejoin:round;marker:none;marker-start:none;marker-mid:none;marker-end:none;stroke-miterlimit:4;stroke-dasharray:none;stroke-dashoffset:0;stroke-opacity:1;visibility:visible;display:inline;overflow:visible;enable-background:accumulate"
           d="M -24.748737,7.6949134 C -24.697644,7.4394456 -24.344949,7.3920721 -24.142646,7.2403448 C -23.866425,7.0331788 -23.726501,7.0070188 -23.486047,6.8867914 C -23.292808,6.7901722 -22.95891,6.8362838 -22.728432,6.8362838 C -22.571793,6.8362838 -22.310519,6.9501711 -22.122341,6.9878067 C -21.860473,7.0401801 -21.705637,7.0825132 -21.516249,7.1393295 C -21.376032,7.1813947 -21.16573,7.3145893 -21.011173,7.3918677 C -20.860765,7.4670717 -20.748423,7.6921537 -20.65762,7.7959287 C -20.570547,7.8954407 -20.506384,7.8463404 -20.506097,7.8464363 C -20.336869,8.0398399 -20.236723,7.4087035 -20.102036,7.1898372 C -20.006053,7.0338663 -19.921802,6.82937 -19.849498,6.6847609 C -19.748127,6.4820197 -19.61695,6.2459718 -19.495944,6.0281617 C -19.377422,5.8148217 -19.217871,5.6110517 -19.091883,5.4220702 C -18.92918,5.1780156 -18.661278,4.9155194 -18.485792,4.7149634 C -18.32894,4.5357041 -18.074141,4.4189249 -17.8797,4.3109024 C -17.639706,4.1775726 -17.392171,4.0653832 -17.122086,3.957349 C -16.875693,3.858792 -16.676409,3.7832398 -16.414979,3.7048109 C -16.177718,3.6336326 -15.889439,3.7371619 -15.707872,3.7553185 C -15.515325,3.7745732 -15.180469,4.0066858 -15.051273,4.0583643 C -14.802009,4.1580697 -14.54689,4.2487858 -14.344166,4.36141 C -14.062143,4.5180896 -13.93708,4.6895587 -13.738075,4.9169939 C -13.58818,5.0883021 -13.482583,5.346575 -13.384521,5.5230855 C -13.260364,5.7465684 -13.187933,5.9135402 -13.081475,6.1796846 C -13.000118,6.3830773 -12.964232,6.7153947 -12.929953,6.8867914 C -12.873677,7.1681669 -12.90627,7.3493248 -12.879445,7.6444058 C -12.855443,7.9084283 -12.879445,8.1874928 -12.879445,8.4525278 C -12.879445,8.7358648 -12.906348,8.9235846 -12.929953,9.1596346 C -12.956841,9.4285184 -13.09798,9.6554647 -13.182491,9.8667414 C -13.269624,10.084575 -13.508933,10.218172 -13.687567,10.422325 C -13.864231,10.624227 -14.098881,10.690117 -14.344166,10.826386 C -14.617564,10.978274 -14.829329,10.977909 -15.152288,10.977909 C -15.394195,10.977909 -15.693075,11.011785 -15.859395,11.028417 C -16.124049,11.054882 -16.360138,11.003596 -16.617009,10.977909 C -16.870244,10.952586 -17.060698,10.87907 -17.324116,10.826386 C -17.558739,10.779462 -17.762528,10.752241 -18.031223,10.725371 C -18.27422,10.701071 -18.500557,10.517434 -18.73833,10.422325 C -18.897986,10.358463 -19.150632,10.264074 -19.314835,10.172851 C -19.421978,10.113327 -19.461251,10.159079 -19.65053,9.7146926"
           id="path3336"
           sodipodi:nodetypes="cssssssssssssssssssssssssssssssssssssc" />
        <path
           style="opacity:1;fill:none;fill-opacity:1;fill-rule:evenodd;stroke:#000000;stroke-width:0.5;stroke-linecap:round;stroke-linejoin:round;marker:none;marker-start:none;marker-mid:none;marker-end:none;stroke-miterlimit:4;stroke-dasharray:none;stroke-dashoffset:0;stroke-opacity:1;visibility:visible;display:inline;overflow:visible;enable-background:accumulate"
           d="M -24.759991,7.6757769 C -24.847064,7.7752889 -24.911227,7.7261886 -24.911514,7.7262845 C -25.080742,7.9196881 -25.180888,7.2885517 -25.315575,7.0696854 C -25.411558,6.9137145 -25.495809,6.7092182 -25.568113,6.5646091 C -25.669484,6.3618679 -25.800661,6.12582 -25.921667,5.9080099 C -26.040189,5.6946699 -26.19974,5.4908999 -26.325728,5.3019184 C -26.488431,5.0578638 -26.756333,4.7953676 -26.931819,4.5948116 C -27.088671,4.4155523 -27.34347,4.2987731 -27.537911,4.1907506 C -27.777905,4.0574207 -28.02544,3.9452313 -28.295525,3.8371971 C -28.541918,3.7386401 -28.741202,3.6630879 -29.002632,3.584659 C -29.239893,3.5134807 -29.528172,3.61701 -29.709739,3.6351666 C -29.902286,3.6544213 -30.237142,3.8865339 -30.366338,3.9382124 C -30.615602,4.0379178 -30.870721,4.1286339 -31.073445,4.2412582 C -31.355468,4.3979378 -31.480531,4.5694069 -31.679536,4.7968421 C -31.829431,4.9681503 -31.935028,5.2264232 -32.03309,5.4029337 C -32.157247,5.6264166 -32.229678,5.7933884 -32.336136,6.0595328 C -32.417493,6.2629255 -32.453379,6.5952429 -32.487658,6.7666396 C -32.543934,7.0480151 -32.511341,7.229173 -32.538166,7.524254 C -32.562168,7.7882765 -32.538166,8.067341 -32.538166,8.332376 C -32.538166,8.615713 -32.511263,8.8034328 -32.487658,9.0394828 C -32.46077,9.3083666 -32.319631,9.5353129 -32.23512,9.7465896 C -32.147987,9.9644232 -31.908678,10.09802 -31.730044,10.302173 C -31.55338,10.504075 -31.31873,10.569965 -31.073445,10.706234 C -30.800047,10.858122 -30.588282,10.857757 -30.265323,10.857757 C -30.023416,10.857757 -29.724536,10.891633 -29.558216,10.908265 C -29.293562,10.93473 -29.057473,10.883444 -28.800602,10.857757 C -28.547367,10.832434 -28.356913,10.758918 -28.093495,10.706234 C -27.858872,10.65931 -27.655083,10.632089 -27.386388,10.605219 C -27.143391,10.580919 -26.917054,10.397282 -26.679281,10.302173 C -26.519625,10.238311 -26.016979,10.072494 -25.924205,9.5884139"
           id="path3340"
           sodipodi:nodetypes="csssssssssssssssssssssssssssss" />
        <path
           style="opacity:1;fill:none;fill-opacity:1;fill-rule:evenodd;stroke:#000000;stroke-width:0.5;stroke-linecap:round;stroke-linejoin:round;marker:none;marker-start:none;marker-mid:none;marker-end:none;stroke-miterlimit:4;stroke-dasharray:none;stroke-dashoffset:0;stroke-opacity:1;visibility:visible;display:inline;overflow:visible;enable-background:accumulate"
           d="M -23.142857,11.321429 C -23.100381,11.297408 -22.98107,11.28676 -22.892857,11.267857 C -22.828951,11.254163 -22.774358,11.266557 -22.678571,11.285714 C -22.598698,11.301689 -22.481334,11.310876 -22.428571,11.321429 C -22.359707,11.335201 -22.319836,11.436647 -22.285714,11.482143 C -22.224101,11.564294 -22.23609,11.587409 -22.214286,11.696429 C -22.195528,11.790216 -22.263288,11.872504 -22.285714,11.928571 C -22.320007,12.014302 -22.409282,12.028648 -22.464286,12.071429 C -22.539747,12.13012 -22.588949,12.11597 -22.678571,12.142857 C -22.750921,12.164562 -22.8316,12.168874 -22.928571,12.178571 C -22.988609,12.184575 -23.102443,12.136654 -23.160714,12.125 C -23.211919,12.114759 -23.263577,11.993802 -23.285714,11.964286 C -23.329586,11.905789 -23.32569,11.782263 -23.339286,11.714286 C -23.357987,11.620779 -23.346877,11.540197 -23.339286,11.464286 C -23.330395,11.375375 -23.268721,11.358439 -23.232143,11.303571 C -23.215307,11.278318 -23.172619,11.315476 -23.142857,11.321429 z"
           id="path3342" />
        <path
           style="opacity:1;fill:none;fill-opacity:1;fill-rule:evenodd;stroke:#000000;stroke-width:0.5;stroke-linecap:round;stroke-linejoin:round;marker:none;marker-start:none;marker-mid:none;marker-end:none;stroke-miterlimit:4;stroke-dasharray:none;stroke-dashoffset:0;stroke-opacity:1;visibility:visible;display:inline;overflow:visible;enable-background:accumulate"
           d="M -22.732143,12.178571 C -22.678903,12.098712 -22.767857,12.368306 -22.767857,12.464286 C -22.767857,12.54823 -22.745752,12.628381 -22.732143,12.696429 C -22.718438,12.764952 -22.695908,12.859744 -22.678571,12.946429 C -22.66193,13.029635 -22.667719,13.022398 -22.660714,13.071429"
           id="path3344" />
        <path
           style="opacity:1;fill:none;fill-opacity:1;fill-rule:evenodd;stroke:#000000;stroke-width:0.5;stroke-linecap:round;stroke-linejoin:round;marker:none;marker-start:none;marker-mid:none;marker-end:none;stroke-miterlimit:4;stroke-dasharray:none;stroke-dashoffset:0;stroke-opacity:1;visibility:visible;display:inline;overflow:visible;enable-background:accumulate"
           d="M -24.071429,12.660714 C -24.05525,12.741609 -23.912666,12.758414 -23.839286,12.803571 C -23.77334,12.844154 -23.69519,12.853943 -23.625,12.875 C -23.545756,12.898773 -23.469529,12.901261 -23.375,12.910714 C -23.281634,12.920051 -23.20664,12.938264 -23.125,12.946429 C -23.028192,12.956109 -22.964629,12.97318 -22.875,12.982143 C -22.808063,12.988837 -22.766259,13.009328 -22.732143,13.017857 C -22.633571,13.027714 -22.527859,13.017857 -22.428571,13.017857 C -22.331463,13.017857 -22.271465,13.000721 -22.178571,12.982143 C -22.100637,12.966556 -22.01798,12.960739 -21.946429,12.946429 C -21.861981,12.929539 -21.76601,12.895874 -21.696429,12.875 C -21.615425,12.850699 -21.54959,12.787471 -21.482143,12.75 C -21.424494,12.717973 -21.378808,12.646665 -21.375,12.642857"
           id="path3346" />
        <path
           style="opacity:1;fill:none;fill-opacity:1;fill-rule:evenodd;stroke:#000000;stroke-width:0.5;stroke-linecap:round;stroke-linejoin:round;marker:none;marker-start:none;marker-mid:none;marker-end:none;stroke-miterlimit:4;stroke-dasharray:none;stroke-dashoffset:0;stroke-opacity:1;visibility:visible;display:inline;overflow:visible;enable-background:accumulate"
           d="M -23.089286,12.982143 C -23.024924,12.946386 -23.053571,13.125 -23.035714,13.196429 C -23.034746,13.200301 -22.811635,13.226959 -22.785714,13.232143 C -22.620068,13.265272 -22.704604,13.20781 -22.607143,13.178571 C -22.561532,13.164888 -22.607143,13.083333 -22.607143,13.035714 C -22.527732,13.011891 -22.547619,13.190476 -22.517857,13.267857 C -22.501513,13.310352 -22.307004,13.215315 -22.303571,13.214286 C -22.116269,13.158095 -22.262217,13.161116 -22.178571,13.053571 C -22.1704,13.043065 -22.166667,13.029762 -22.160714,13.017857"
           id="path3348" />
        <path
           style="opacity:1;fill:none;fill-opacity:1;fill-rule:evenodd;stroke:#000000;stroke-width:0.5;stroke-linecap:round;stroke-linejoin:round;marker:none;marker-start:none;marker-mid:none;marker-end:none;stroke-miterlimit:4;stroke-dasharray:none;stroke-dashoffset:0;stroke-opacity:1;visibility:visible;display:inline;overflow:visible;enable-background:accumulate"
           d="M -21.714286,10.178571 C -21.704936,10.16655 -21.642293,10.005789 -21.625,9.9642857 C -21.589752,9.8796911 -21.527456,9.8104174 -21.482143,9.7499999 C -21.428344,9.6782684 -21.379767,9.6559577 -21.321429,9.5892857 C -21.26794,9.5281563 -21.202735,9.4863473 -21.142857,9.4464285 C -21.058969,9.390503 -21.002574,9.3760295 -20.910714,9.3392857 C -20.835441,9.3091765 -20.782922,9.2759478 -20.696429,9.2499999 C -20.619614,9.2269554 -20.54972,9.2042015 -20.464286,9.1785714 C -20.435214,9.16985 -20.404762,9.1666666 -20.375,9.1607142 C -20.373676,9.1603169 -20.391263,9.4304839 -20.392857,9.4464285 C -20.403561,9.5534665 -20.427234,9.644432 -20.446429,9.7499999 C -20.46069,9.8284356 -20.521573,9.9021457 -20.553571,9.9821428 C -20.590694,10.074949 -20.638475,10.129602 -20.678571,10.196429 C -20.727381,10.277779 -20.78873,10.335079 -20.839286,10.392857 C -20.907237,10.470515 -20.960524,10.497178 -21.035714,10.553571 C -21.110989,10.610027 -21.220913,10.660428 -21.285714,10.696429 C -21.364983,10.740467 -21.44609,10.767688 -21.517857,10.803571 C -21.602104,10.845695 -21.657333,10.838609 -21.75,10.857143 C -21.758255,10.858794 -21.738095,10.869048 -21.732143,10.875 C -21.758896,10.880351 -21.784606,10.600371 -21.785714,10.589286 C -21.793575,10.510679 -21.747233,10.39688 -21.732143,10.321429 C -21.718216,10.251792 -21.725239,10.266194 -21.714286,10.178571 z"
           id="path3350" />
        <path
           style="opacity:1;fill:none;fill-opacity:1;fill-rule:evenodd;stroke:#000000;stroke-width:0.5;stroke-linecap:round;stroke-linejoin:round;marker:none;marker-start:none;marker-mid:none;marker-end:none;stroke-miterlimit:4;stroke-dasharray:none;stroke-dashoffset:0;stroke-opacity:1;visibility:visible;display:inline;overflow:visible;enable-background:accumulate"
           d="M -23.777196,10.339248 C -23.786546,10.327227 -23.849189,10.166466 -23.866482,10.124962 C -23.90173,10.040368 -23.964026,9.971094 -24.009339,9.910677 C -24.063138,9.838945 -24.111715,9.816634 -24.170053,9.749962 C -24.223542,9.688833 -24.288747,9.647024 -24.348625,9.607105 C -24.432513,9.55118 -24.488908,9.536706 -24.580768,9.499962 C -24.656041,9.469853 -24.70856,9.436624 -24.795053,9.410677 C -24.871868,9.387632 -24.941762,9.364878 -25.027196,9.339248 C -25.056268,9.330527 -25.08672,9.327343 -25.116482,9.321391 C -25.117806,9.320994 -25.100219,9.591161 -25.098625,9.607105 C -25.087921,9.714143 -25.064248,9.805109 -25.045053,9.910677 C -25.030792,9.989112 -24.969909,10.062822 -24.937911,10.142819 C -24.900788,10.235626 -24.853007,10.290279 -24.812911,10.357106 C -24.764101,10.438456 -24.702752,10.495756 -24.652196,10.553534 C -24.584245,10.631192 -24.530958,10.657855 -24.455768,10.714248 C -24.380493,10.770704 -24.270569,10.821105 -24.205768,10.857106 C -24.126499,10.901144 -24.045392,10.928365 -23.973625,10.964248 C -23.889378,11.006372 -23.834149,10.999286 -23.741482,11.01782 C -23.733227,11.019471 -23.753387,11.029725 -23.759339,11.035677 C -23.732586,11.041028 -23.706876,10.761048 -23.705768,10.749963 C -23.697907,10.671356 -23.744249,10.557557 -23.759339,10.482106 C -23.773266,10.412469 -23.766243,10.426871 -23.777196,10.339248 z"
           id="path3354" />
        <path
           style="opacity:1;fill:none;fill-opacity:1;fill-rule:evenodd;stroke:#000000;stroke-width:0.5;stroke-linecap:round;stroke-linejoin:round;marker:none;marker-start:none;marker-mid:none;marker-end:none;stroke-miterlimit:4;stroke-dasharray:none;stroke-dashoffset:0;stroke-opacity:1;visibility:visible;display:inline;overflow:visible;enable-background:accumulate"
           d="M -21.392857,11.375 C -15.017857,9.9821428 -14,9.9285714 -14,9.9285714"
           id="path3356" />
        <path
           style="opacity:1;fill:none;fill-opacity:1;fill-rule:evenodd;stroke:#000000;stroke-width:0.5;stroke-linecap:round;stroke-linejoin:round;marker:none;marker-start:none;marker-mid:none;marker-end:none;stroke-miterlimit:4;stroke-dasharray:none;stroke-dashoffset:0;stroke-opacity:1;visibility:visible;display:inline;overflow:visible;enable-background:accumulate"
           d="M -21.071429,11.571429 C -14.214286,11.303571 -13.803571,11.642857 -13.803571,11.642857"
           id="path3358" />
        <path
           style="opacity:1;fill:none;fill-opacity:1;fill-rule:evenodd;stroke:#000000;stroke-width:0.5;stroke-linecap:round;stroke-linejoin:round;marker:none;marker-start:none;marker-mid:none;marker-end:none;stroke-miterlimit:4;stroke-dasharray:none;stroke-dashoffset:0;stroke-opacity:1;visibility:visible;display:inline;overflow:visible;enable-background:accumulate"
           d="M -21.428571,11.839286 C -14.035714,13.607143 -13.821429,13.892857 -13.821429,13.892857"
           id="path3360" />
        <path
           style="opacity:1;fill:none;fill-opacity:1;fill-rule:evenodd;stroke:#000000;stroke-width:0.5;stroke-linecap:round;stroke-linejoin:round;marker:none;marker-start:none;marker-mid:none;marker-end:none;stroke-miterlimit:4;stroke-dasharray:none;stroke-dashoffset:0;stroke-opacity:1;visibility:visible;display:inline;overflow:visible;enable-background:accumulate"
           d="M -24.151786,11.446428 C -30.526786,10.053571 -31.544643,10 -31.544643,10"
           id="path3362" />
        <path
           style="opacity:1;fill:none;fill-opacity:1;fill-rule:evenodd;stroke:#000000;stroke-width:0.5;stroke-linecap:round;stroke-linejoin:round;marker:none;marker-start:none;marker-mid:none;marker-end:none;stroke-miterlimit:4;stroke-dasharray:none;stroke-dashoffset:0;stroke-opacity:1;visibility:visible;display:inline;overflow:visible;enable-background:accumulate"
           d="M -24.473214,11.642857 C -31.330357,11.374999 -31.741072,11.714285 -31.741072,11.714285"
           id="path3364" />
        <path
           style="opacity:1;fill:none;fill-opacity:1;fill-rule:evenodd;stroke:#000000;stroke-width:0.5;stroke-linecap:round;stroke-linejoin:round;marker:none;marker-start:none;marker-mid:none;marker-end:none;stroke-miterlimit:4;stroke-dasharray:none;stroke-dashoffset:0;stroke-opacity:1;visibility:visible;display:inline;overflow:visible;enable-background:accumulate"
           d="M -24.116072,11.910714 C -31.508929,13.678571 -31.723214,13.964285 -31.723214,13.964285"
           id="path3366" />
        <path
           sodipodi:type="arc"
           style="opacity:1;fill:none;fill-opacity:1;fill-rule:evenodd;stroke:#000000;stroke-width:0.5;stroke-linecap:round;stroke-linejoin:round;marker:none;marker-start:none;marker-mid:none;marker-end:none;stroke-miterlimit:4;stroke-dasharray:none;stroke-dashoffset:0;stroke-opacity:1;visibility:visible;display:inline;overflow:visible;enable-background:accumulate"
           id="path3370"
           sodipodi:cx="-21.133928"
           sodipodi:cy="10.303572"
           sodipodi:rx="0.4375"
           sodipodi:ry="0.39285713"
           d="M -20.696428,10.303572 A 0.4375,0.39285713 0 1 1 -21.571428,10.303572 A 0.4375,0.39285713 0 1 1 -20.696428,10.303572 z"
           transform="translate(-7.1428572e-2,-0.1428571)" />
        <path
           sodipodi:type="arc"
           style="opacity:1;fill:none;fill-opacity:1;fill-rule:evenodd;stroke:#000000;stroke-width:0.5;stroke-linecap:round;stroke-linejoin:round;marker:none;marker-start:none;marker-mid:none;marker-end:none;stroke-miterlimit:4;stroke-dasharray:none;stroke-dashoffset:0;stroke-opacity:1;visibility:visible;display:inline;overflow:visible;enable-background:accumulate"
           id="path3372"
           sodipodi:cx="-24.321428"
           sodipodi:cy="10.258928"
           sodipodi:rx="0.39285713"
           sodipodi:ry="0.45535713"
           d="M -23.928571,10.258928 A 0.39285713,0.45535713 0 1 1 -24.714285,10.258928 A 0.39285713,0.45535713 0 1 1 -23.928571,10.258928 z" />
        <path
           style="opacity:1;fill:none;fill-opacity:1;fill-rule:evenodd;stroke:#000000;stroke-width:0.5;stroke-linecap:round;stroke-linejoin:round;marker:none;marker-start:none;marker-mid:none;marker-end:none;stroke-miterlimit:4;stroke-dasharray:none;stroke-dashoffset:0;stroke-opacity:1;visibility:visible;display:inline;overflow:visible;enable-background:accumulate"
           d="M -24,14.535714 C -23.943387,14.671324 -23.946429,14.986007 -23.946429,15.214286 C -23.946429,15.321079 -23.973709,15.376649 -24,15.464286"
           id="path3374" />
        <path
           style="opacity:1;fill:none;fill-opacity:1;fill-rule:evenodd;stroke:#000000;stroke-width:0.5;stroke-linecap:round;stroke-linejoin:round;marker:none;marker-start:none;marker-mid:none;marker-end:none;stroke-miterlimit:4;stroke-dasharray:none;stroke-dashoffset:0;stroke-opacity:1;visibility:visible;display:inline;overflow:visible;enable-background:accumulate"
           d="M -20.964285,14.196429 C -20.964285,14.336771 -20.921388,14.503694 -20.857143,14.696429 C -20.782982,14.91891 -20.737031,15.218978 -20.714285,15.446429 C -20.709775,15.491536 -20.678571,15.529762 -20.660714,15.571429"
           id="path3376" />
      </g>
      <path
         id="path3399"
         d="M -22.925207,14.624579 C -23.901249,14.274786 -24.197192,14.090247 -24.628721,13.56233 C -24.858514,13.281216 -25.163871,12.956994 -25.307292,12.841842 C -25.450721,12.726689 -25.547678,12.611993 -25.522757,12.586959 C -25.497835,12.561924 -25.132964,12.451307 -24.711935,12.341142 C -23.950792,12.141987 -23.778885,12.039237 -23.864192,11.83444 C -23.967964,11.585317 -23.857928,11.268773 -23.665935,11.264105 C -23.641192,11.263503 -23.607085,11.454664 -23.590142,11.688907 C -23.557249,12.143684 -23.401464,12.405869 -23.164135,12.405869 C -23.081392,12.405869 -23.032349,12.457362 -23.032349,12.544235 C -23.032349,12.663657 -23.069021,12.677094 -23.300207,12.64238 C -23.447528,12.620259 -23.670571,12.55526 -23.795857,12.497939 C -24.102649,12.357575 -24.277478,12.401154 -24.303585,12.624492 C -24.331549,12.863639 -24.151978,13.017697 -23.709999,13.133757 C -23.514078,13.185204 -23.305564,13.283762 -23.246635,13.352775 C -23.176871,13.434479 -22.989207,13.493525 -22.708692,13.522031 C -22.317399,13.561794 -22.258014,13.549079 -22.061042,13.383334 C -21.941764,13.282974 -21.759228,13.179538 -21.655399,13.153478 C -21.426728,13.096084 -21.103778,12.809742 -21.103778,12.664382 C -21.103778,12.375344 -21.417321,12.298886 -21.680649,12.523707 C -21.742578,12.576577 -21.943471,12.647897 -22.127078,12.6822 L -22.460921,12.744566 L -22.460921,12.539505 C -22.460921,12.426719 -22.427314,12.33444 -22.386242,12.33444 C -22.345171,12.33444 -22.232671,12.255544 -22.136242,12.159115 C -21.913578,11.936445 -21.897628,11.505595 -22.102421,11.245244 C -22.272628,11.028863 -22.727685,10.940221 -23.164485,11.038364 L -23.460921,11.104969 L -23.462492,10.73756 C -23.465578,10.013992 -23.932421,9.4158323 -24.695842,9.157288 C -25.249514,8.9697773 -25.356392,9.0360644 -25.346492,9.5608023 C -25.337671,10.028533 -25.164199,10.416877 -24.802578,10.7785 C -24.653949,10.927123 -24.561057,11.048726 -24.596135,11.048726 C -24.744214,11.048726 -25.786649,10.816268 -25.833285,10.77285 C -25.861292,10.746768 -25.827742,10.446494 -25.758721,10.105571 C -25.616578,9.4034694 -25.655107,9.1686352 -25.906585,9.2044144 C -26.010428,9.2191887 -26.119142,9.3285452 -26.213385,9.5130116 C -26.329064,9.7394323 -26.465399,9.854598 -26.870342,10.067951 C -27.516707,10.408502 -27.695557,10.413504 -29.139492,10.131389 C -30.800357,9.8068916 -31.488842,9.7080487 -31.656421,9.7700416 C -32.026828,9.9070637 -32.246635,9.2288287 -32.246635,7.9488359 C -32.246635,6.7893837 -32.175342,6.3828923 -31.852499,5.7016151 C -31.451614,4.8556544 -31.269285,4.6739787 -30.403142,4.2574273 C -29.403592,3.7767159 -29.171692,3.7673323 -28.260007,4.1707101 C -27.894142,4.3325866 -27.492364,4.5364866 -27.367149,4.623823 C -26.840778,4.9909701 -25.978557,6.242173 -25.567107,7.2359202 C -25.294978,7.8931837 -25.132178,8.0717987 -24.854092,8.0182166 C -24.736064,7.9954737 -24.591278,7.9192552 -24.532349,7.8488402 C -24.473421,7.7784252 -24.180178,7.5856644 -23.880699,7.4204837 C -23.242407,7.0684302 -23.015878,7.0483702 -22.156435,7.2678044 C -21.434721,7.4520766 -21.194007,7.5733087 -20.934721,7.8831123 C -20.760342,8.0914666 -20.691428,8.1245666 -20.470435,8.1061116 C -20.212607,8.0845802 -20.207678,8.0779037 -19.710921,7.0767273 C -19.203778,6.0546159 -18.545757,5.0982937 -18.161192,4.8244601 C -17.899349,4.6380094 -17.202799,4.2980544 -16.687878,4.105398 C -16.171371,3.9121487 -15.856107,3.9624744 -15.021764,4.3713644 C -14.190421,4.7787844 -13.970321,4.9899859 -13.616621,5.7196637 C -13.246742,6.4827194 -13.175207,6.8603159 -13.175207,8.0495623 C -13.175207,9.118148 -13.299749,9.6664387 -13.605278,9.942938 C -13.741914,10.066592 -13.746635,10.065808 -13.746635,9.9194523 C -13.746635,9.6378809 -13.942207,9.6191023 -15.000814,9.7990187 C -15.548514,9.8921052 -16.475228,10.062397 -17.060178,10.177448 L -18.123714,10.386629 L -18.673957,10.139172 C -19.054814,9.9678887 -19.261871,9.8279309 -19.346599,9.6845059 C -19.482028,9.4552337 -19.791778,9.3971173 -19.864757,9.5872844 C -19.901971,9.6842652 -19.790307,10.423237 -19.704749,10.646196 C -19.683849,10.700664 -19.937271,10.78415 -20.441907,10.889045 C -21.413907,11.091084 -21.426799,11.089928 -20.996635,10.839319 C -20.477271,10.536744 -20.114214,9.921208 -20.106914,9.3308687 C -20.101349,8.8811359 -20.379035,8.7908609 -20.958892,9.053888 C -21.692428,9.3866294 -22.032349,9.866518 -22.032349,10.569376 C -22.032349,10.985217 -21.949071,11.120154 -21.692421,11.120154 C -21.574814,11.120154 -21.541149,11.147124 -21.580964,11.20944 C -21.662857,11.337616 -21.672035,11.926613 -21.593657,12.023304 C -21.557221,12.068249 -21.166914,12.193421 -20.726307,12.301461 C -20.285699,12.409502 -19.912842,12.508302 -19.897735,12.521021 C -19.810499,12.594454 -20.105249,13.023624 -20.485657,13.377061 C -20.727407,13.601673 -21.154557,14.005397 -21.434871,14.274228 C -21.910142,14.730035 -21.965564,14.762659 -22.256299,14.757792 C -22.427771,14.754922 -22.728778,14.694977 -22.925207,14.62458 L -22.925207,14.624579 z"
         style="opacity:1;fill:#666666;fill-opacity:1;fill-rule:nonzero;stroke:none;stroke-width:0.40799999;stroke-linecap:round;stroke-linejoin:round;marker:none;marker-start:none;marker-mid:none;marker-end:none;stroke-miterlimit:4;stroke-dasharray:none;stroke-dashoffset:0;stroke-opacity:0.98983047;visibility:visible;display:inline;overflow:visible;enable-background:accumulate" />
      <path
         id="path3401"
         d="M -24.214286,15.428571 C -23.495891,15.699613 -22.524318,15.857143 -21.571429,15.857143 C -20.872345,15.857143 -21.024554,15.529018 -20.857143,15.428571"
         style="opacity:1;fill:none;fill-opacity:1;fill-rule:evenodd;stroke:#000000;stroke-width:0.30000001;stroke-linecap:butt;stroke-linejoin:miter;marker:none;marker-start:none;marker-mid:none;marker-end:none;stroke-miterlimit:4;stroke-dasharray:none;stroke-dashoffset:0;stroke-opacity:1;visibility:visible;display:inline;overflow:visible;enable-background:accumulate" />
      <path
         id="path3403"
         d="M -22.282349,15.643967 C -22.588399,15.618686 -23.344485,15.492696 -23.550207,15.432698 C -23.632549,15.408682 -23.675207,15.32476 -23.675207,15.186769 C -23.675207,15.071559 -23.664764,14.977297 -23.652007,14.977297 C -23.639242,14.977297 -23.392542,15.057654 -23.103778,15.155869 C -22.545685,15.345689 -21.980749,15.38605 -21.724085,15.254441 C -21.638271,15.210442 -21.467628,15.079468 -21.344871,14.963389 L -21.121678,14.752339 L -21.073192,15.010797 C -20.958328,15.62306 -21.173221,15.735586 -22.282349,15.643967 L -22.282349,15.643967 z"
         style="opacity:1;fill:#4d4d4d;fill-opacity:1;fill-rule:nonzero;stroke:none;stroke-width:0.40799999;stroke-linecap:round;stroke-linejoin:round;marker:none;marker-start:none;marker-mid:none;marker-end:none;stroke-miterlimit:4;stroke-dasharray:none;stroke-dashoffset:0;stroke-opacity:0.98983047;visibility:visible;display:inline;overflow:visible;enable-background:accumulate" />
      <path
         id="path3409"
         d="M -22.975358,11.913256 C -23.028387,11.899728 -23.033165,11.896293 -23.052898,11.857495 C -23.066401,11.830947 -23.098421,11.642382 -23.098421,11.589408 C -23.098421,11.572353 -23.049735,11.55548 -22.939893,11.534465 L -22.840427,11.515435 L -22.730585,11.533483 C -22.670172,11.543409 -22.601797,11.554147 -22.578641,11.557346 C -22.540707,11.562585 -22.533883,11.567302 -22.509684,11.605013 C -22.468447,11.669276 -22.462975,11.70858 -22.488186,11.759444 C -22.505049,11.793467 -22.52041,11.808059 -22.569329,11.836525 C -22.665679,11.892591 -22.890109,11.935003 -22.975359,11.913256 L -22.975358,11.913256 z"
         style="opacity:1;fill:#ffffff;fill-opacity:1;fill-rule:nonzero;stroke:none;stroke-width:0.40799999;stroke-linecap:round;stroke-linejoin:round;marker:none;marker-start:none;marker-mid:none;marker-end:none;stroke-miterlimit:4;stroke-dasharray:none;stroke-dashoffset:0;stroke-opacity:0.98983047;visibility:visible;display:inline;overflow:visible;enable-background:accumulate" />
      <rect
         y="13.169642"
         x="-22.428572"
         height="0.017857144"
         width="0.10714286"
         id="rect3411"
         style="opacity:1;fill:#ffffff;fill-opacity:1;fill-rule:nonzero;stroke:#ffffff;stroke-width:0.30000001;stroke-linecap:round;stroke-linejoin:round;stroke-miterlimit:4;stroke-dasharray:none;stroke-opacity:1" />
      <rect
         y="13.169642"
         x="-22.928572"
         height="0.017857144"
         width="0.13392857"
         id="rect3413"
         style="opacity:1;fill:#ffffff;fill-opacity:1;fill-rule:nonzero;stroke:#ffffff;stroke-width:0.30000001;stroke-linecap:round;stroke-linejoin:round;stroke-miterlimit:4;stroke-dasharray:none;stroke-opacity:1" />
      <path
         id="path3415"
         d="M -21.286733,10.281008 C -21.367583,10.248769 -21.406704,10.168158 -21.369244,10.110987 C -21.294354,9.9966924 -21.093002,10.004889 -21.035456,10.124574 C -21.019689,10.157369 -21.020374,10.166215 -21.04177,10.206178 C -21.082277,10.281832 -21.196876,10.316839 -21.286733,10.281008 L -21.286733,10.281008 z"
         style="opacity:0.89932891;fill:url(#linearGradient3479);fill-opacity:1;fill-rule:nonzero;stroke:none;stroke-width:0.40799999;stroke-linecap:round;stroke-linejoin:round;marker:none;marker-start:none;marker-mid:none;marker-end:none;stroke-miterlimit:4;stroke-dasharray:none;stroke-dashoffset:0;stroke-opacity:0.98983047;visibility:visible;display:inline;overflow:visible;enable-background:accumulate" />
      <path
         id="path3417"
         d="M -24.369614,10.440148 C -24.388025,10.430146 -24.415015,10.397328 -24.429592,10.367219 C -24.475119,10.27317 -24.458731,10.157641 -24.391429,10.098201 C -24.348533,10.060317 -24.327479,10.055766 -24.282535,10.074663 C -24.171976,10.12115 -24.157823,10.351166 -24.260549,10.43197 C -24.300863,10.463681 -24.323208,10.465356 -24.369614,10.440148 z"
         style="opacity:0.89932891;fill:url(#linearGradient3477);fill-opacity:1;fill-rule:nonzero;stroke:none;stroke-width:0.40799999;stroke-linecap:round;stroke-linejoin:round;marker:none;marker-start:none;marker-mid:none;marker-end:none;stroke-miterlimit:4;stroke-dasharray:none;stroke-dashoffset:0;stroke-opacity:0.98983047;visibility:visible;display:inline;overflow:visible;enable-background:accumulate" />
      <path
         id="path3419"
         d="M -22.988056,11.910233 C -23.044025,11.893718 -23.066429,11.84441 -23.083242,11.700742 C -23.099312,11.563397 -23.101667,11.567427 -22.991372,11.543468 C -22.896952,11.522957 -22.792939,11.523342 -22.652735,11.544721 L -22.535067,11.562663 L -22.504369,11.615048 C -22.449037,11.709461 -22.469018,11.779086 -22.567384,11.834637 C -22.669045,11.892049 -22.905611,11.934561 -22.988056,11.910233 L -22.988056,11.910233 z"
         style="opacity:1;fill:#ff8080;fill-opacity:1;fill-rule:nonzero;stroke:none;stroke-width:0.40799999;stroke-linecap:round;stroke-linejoin:round;marker:none;marker-start:none;marker-mid:none;marker-end:none;stroke-miterlimit:4;stroke-dasharray:none;stroke-dashoffset:0;stroke-opacity:0.98983047;visibility:visible;display:inline;overflow:visible;enable-background:accumulate" />
      <path
         id="path3421"
         d="M -25.819848,11.964591 C -25.834582,11.914978 -25.846635,11.871827 -25.846635,11.868699 C -25.846635,11.859054 -25.435562,11.865892 -25.276966,11.878177 L -25.126939,11.889797 L -25.459999,11.972295 L -25.79306,12.054794 L -25.819848,11.964591 z"
         style="opacity:1;fill:#666666;fill-opacity:1;fill-rule:nonzero;stroke:none;stroke-width:0.40799999;stroke-linecap:round;stroke-linejoin:round;marker:none;marker-start:none;marker-mid:none;marker-end:none;stroke-miterlimit:4;stroke-dasharray:none;stroke-dashoffset:0;stroke-opacity:0.98983047;visibility:visible;display:inline;overflow:visible;enable-background:accumulate" />
      <path
         id="path3423"
         d="M -20.051992,11.908138 L -20.426992,11.816547 L -20.232249,11.804066 C -20.125142,11.7972 -19.945855,11.791583 -19.833835,11.791583 L -19.63016,11.791583 L -19.642405,11.876404 C -19.64914,11.923056 -19.659676,11.969889 -19.665821,11.980477 C -19.673317,11.993398 -19.800328,11.969606 -20.051992,11.908139 L -20.051992,11.908138 z"
         style="opacity:1;fill:#666666;fill-opacity:1;fill-rule:nonzero;stroke:none;stroke-width:0.40799999;stroke-linecap:round;stroke-linejoin:round;marker:none;marker-start:none;marker-mid:none;marker-end:none;stroke-miterlimit:4;stroke-dasharray:none;stroke-dashoffset:0;stroke-opacity:0.98983047;visibility:visible;display:inline;overflow:visible;enable-background:accumulate" />
      <path
         id="path3425"
         d="M -24.371016,10.418325 C -24.475286,10.345292 -24.461242,10.125134 -24.350062,10.089848 C -24.288115,10.070186 -24.254239,10.092871 -24.223051,10.174903 C -24.16396,10.330327 -24.263308,10.493768 -24.371016,10.418325 z"
         style="opacity:0.89932891;fill:url(#linearGradient3475);fill-opacity:1;fill-rule:nonzero;stroke:none;stroke-width:0.40799999;stroke-linecap:round;stroke-linejoin:round;marker:none;marker-start:none;marker-mid:none;marker-end:none;stroke-miterlimit:4;stroke-dasharray:none;stroke-dashoffset:0;stroke-opacity:0.98983047;visibility:visible;display:inline;overflow:visible;enable-background:accumulate" />
      <path
         transform="matrix(1.2095238,0,0,1.2857143,6.0010206,-2.2244897)"
         d="M -27.107143,7.4107141 A 1.875,1.625 0 1 1 -30.857143,7.4107141 A 1.875,1.625 0 1 1 -27.107143,7.4107141 z"
         sodipodi:ry="1.625"
         sodipodi:rx="1.875"
         sodipodi:cy="7.4107141"
         sodipodi:cx="-28.982143"
         id="path3427"
         style="opacity:0.89932891;fill:url(#linearGradient3473);fill-opacity:1;fill-rule:evenodd;stroke:none;stroke-width:0.1;stroke-linecap:butt;stroke-linejoin:miter;marker:none;marker-start:none;marker-mid:none;marker-end:none;stroke-miterlimit:4;stroke-dasharray:none;stroke-dashoffset:0;stroke-opacity:1;visibility:visible;display:inline;overflow:visible;enable-background:accumulate"
         sodipodi:type="arc" />
      <path
         transform="matrix(-0.9338867,0.7686374,0.8170556,0.9927141,-49.335288,22.027182)"
         d="M -27.107143,7.4107141 A 1.875,1.625 0 1 1 -30.857143,7.4107141 A 1.875,1.625 0 1 1 -27.107143,7.4107141 z"
         sodipodi:ry="1.625"
         sodipodi:rx="1.875"
         sodipodi:cy="7.4107141"
         sodipodi:cx="-28.982143"
         id="path3437"
         style="opacity:0.89932891;fill:url(#linearGradient3471);fill-opacity:1;fill-rule:evenodd;stroke:none;stroke-width:0.1;stroke-linecap:butt;stroke-linejoin:miter;marker:none;marker-start:none;marker-mid:none;marker-end:none;stroke-miterlimit:4;stroke-dasharray:none;stroke-dashoffset:0;stroke-opacity:1;visibility:visible;display:inline;overflow:visible;enable-background:accumulate"
         sodipodi:type="arc" />
    </g>
  </g>
</svg>
