<?xml version="1.0" encoding="UTF-8" standalone="no"?>
<!-- Created with Inkscape (http://www.inkscape.org/) -->
<svg
   xmlns:dc="http://purl.org/dc/elements/1.1/"
   xmlns:cc="http://creativecommons.org/ns#"
   xmlns:rdf="http://www.w3.org/1999/02/22-rdf-syntax-ns#"
   xmlns:svg="http://www.w3.org/2000/svg"
   xmlns="http://www.w3.org/2000/svg"
   xmlns:sodipodi="http://sodipodi.sourceforge.net/DTD/sodipodi-0.dtd"
   xmlns:inkscape="http://www.inkscape.org/namespaces/inkscape"
   width="48px"
   height="48px"
   id="svg2383"
   sodipodi:version="0.32"
   inkscape:version="0.46"
   sodipodi:docname="Pokal-1.svg"
   inkscape:output_extension="org.inkscape.output.svg.inkscape">
  <defs
     id="defs2385">
    <inkscape:perspective
       sodipodi:type="inkscape:persp3d"
       inkscape:vp_x="0 : 24 : 1"
       inkscape:vp_y="0 : 1000 : 0"
       inkscape:vp_z="48 : 24 : 1"
       inkscape:persp3d-origin="24 : 16 : 1"
       id="perspective2391" />
  </defs>
  <sodipodi:namedview
     id="base"
     pagecolor="#ffffff"
     bordercolor="#666666"
     borderopacity="1.0"
     inkscape:pageopacity="0.0"
     inkscape:pageshadow="2"
     inkscape:zoom="0.875"
     inkscape:cx="33.336094"
     inkscape:cy="17.666056"
     inkscape:current-layer="layer1"
     showgrid="true"
     inkscape:grid-bbox="true"
     inkscape:document-units="px"
     showguides="true"
     inkscape:guide-bbox="true"
     inkscape:window-width="1494"
     inkscape:window-height="1004"
     inkscape:window-x="19"
     inkscape:window-y="43" />
  <metadata
     id="metadata2388">
    <rdf:RDF>
      <cc:Work
         rdf:about="">
        <dc:format>image/svg+xml</dc:format>
        <dc:type
           rdf:resource="http://purl.org/dc/dcmitype/StillImage" />
      </cc:Work>
    </rdf:RDF>
  </metadata>
  <g
     id="layer1"
     inkscape:label="Layer 1"
     inkscape:groupmode="layer">
    <g
       id="g2402"
       transform="translate(-0.5,-0.4285714)">
      <g
         transform="translate(2,5.4285714)"
         id="g3284">
        <path
           style="opacity:1;fill:none;fill-opacity:1;fill-rule:evenodd;stroke:#000000;stroke-width:1.00399995;stroke-linecap:round;stroke-linejoin:round;marker:none;marker-start:none;marker-mid:none;marker-end:none;stroke-miterlimit:4;stroke-dasharray:none;stroke-dashoffset:0;stroke-opacity:1;visibility:visible;display:inline;overflow:visible;enable-background:accumulate"
           d="M 15.696428,37.357143 C 29.696428,37.428571 29.696428,37.428571 29.696428,37.428571 L 32.910714,42 L 12.196428,42.071428 L 15.696428,37.357143 z"
           id="path2393"
           sodipodi:nodetypes="ccccc" />
        <path
           style="opacity:1;fill:none;fill-opacity:1;fill-rule:evenodd;stroke:#000000;stroke-width:1.00399995;stroke-linecap:round;stroke-linejoin:round;marker:none;marker-start:none;marker-mid:none;marker-end:none;stroke-miterlimit:4;stroke-dasharray:none;stroke-dashoffset:0;stroke-opacity:1;visibility:visible;display:inline;overflow:visible;enable-background:accumulate"
           d="M 20.496905,29.567689 C 20.343148,29.568877 19.894782,29.967781 19.587767,30.274796 C 18.940159,30.922404 20.175663,31.464078 20.547412,31.587994 C 21.003342,31.739971 20.994447,32.337331 21.102996,32.699162 C 21.180387,32.957131 20.946126,33.561949 20.900966,33.81033 C 20.824587,34.230414 20.484508,34.346858 20.143351,34.517437 C 19.838645,34.66979 19.263095,34.729957 18.931168,34.820483 C 18.387528,34.968748 18.31386,34.983222 17.921016,35.376067 C 17.670146,35.626936 17.630528,36.174906 17.516955,36.487234 C 17.33649,36.983511 17.415939,37.11077 17.415939,37.295356"
           id="path2395" />
        <path
           style="opacity:1;fill:none;fill-opacity:1;fill-rule:evenodd;stroke:#000000;stroke-width:1.00399995;stroke-linecap:round;stroke-linejoin:round;marker:none;marker-start:none;marker-mid:none;marker-end:none;stroke-miterlimit:4;stroke-dasharray:none;stroke-dashoffset:0;stroke-opacity:1;visibility:visible;display:inline;overflow:visible;enable-background:accumulate"
           d="M 24.915388,29.592943 C 25.069145,29.594131 25.517511,29.993035 25.824526,30.30005 C 26.472134,30.947658 25.23663,31.489332 24.864881,31.613248 C 24.408951,31.765225 24.417846,32.362585 24.309297,32.724416 C 24.231906,32.982385 24.466167,33.587203 24.511327,33.835584 C 24.587706,34.255668 24.927785,34.372112 25.268942,34.542691 C 25.573648,34.695044 26.149198,34.755211 26.481125,34.845737 C 27.024765,34.994002 27.098433,35.008476 27.491277,35.401321 C 27.742147,35.65219 27.781765,36.20016 27.895338,36.512488 C 28.075803,37.008765 27.996354,37.136024 27.996354,37.32061"
           id="path2399" />
        <path
           sodipodi:type="arc"
           style="opacity:1;fill:none;fill-opacity:1;fill-rule:evenodd;stroke:#000000;stroke-width:0.77664685;stroke-linecap:round;stroke-linejoin:round;marker:none;marker-start:none;marker-mid:none;marker-end:none;stroke-miterlimit:4;stroke-dasharray:none;stroke-dashoffset:0;stroke-opacity:1;visibility:visible;display:inline;overflow:visible;enable-background:accumulate"
           id="path2407"
           sodipodi:cx="23.183001"
           sodipodi:cy="16.862047"
           sodipodi:rx="10.606602"
           sodipodi:ry="1.6414979"
           d="M 33.789602,16.862047 A 10.606602,1.6414979 0 1 1 12.576399,16.862047 A 10.606602,1.6414979 0 1 1 33.789602,16.862047 z"
           transform="matrix(1.369613,0,0,1.2201758,-9.4273681,-15.607161)" />
        <path
           style="opacity:1;fill:none;fill-opacity:1;fill-rule:evenodd;stroke:#000000;stroke-width:1.00399995;stroke-linecap:round;stroke-linejoin:round;marker:none;marker-start:none;marker-mid:none;marker-end:none;stroke-miterlimit:4;stroke-dasharray:none;stroke-dashoffset:0;stroke-opacity:1;visibility:visible;display:inline;overflow:visible;enable-background:accumulate"
           d="M 7.8791899,4.9169939 C 7.8791899,5.590429 7.8791899,6.263864 7.8791899,6.937299 C 7.8791899,7.6284992 8.0089399,7.9982994 7.8791899,8.6545584 C 7.6718574,9.7032195 7.8422746,10.235895 7.7781746,10.876894 C 7.7371682,11.286958 7.6194342,12.096285 7.6771594,12.947706 C 7.722965,13.623319 7.5941335,13.74476 7.7781746,14.513443 C 7.9217718,15.113205 7.8236028,15.240581 8.131728,16.028672 C 8.4001697,16.715265 8.5649325,17.465237 8.8388348,18.149992 C 9.0749927,18.740387 9.377195,19.057562 9.6974644,19.564206 C 10.2916,20.504087 10.836741,20.94724 11.566246,21.786541 C 14.086509,24.686123 12.716498,23.261184 13.435029,23.907861 C 14.212574,24.607652 15.242201,25.550376 16.111933,26.130197 C 16.999935,26.722199 14.778043,25.117731 18.586807,28.150503 C 19.060535,28.527714 19.689122,28.914105 20.152543,29.261671 C 20.475053,29.503553 21.026424,29.918987 21.314219,30.170808 C 21.766533,30.566583 21.760864,30.557482 22.172848,30.877914 C 22.209244,30.906222 22.502098,31.132523 22.639147,31.189626"
           id="path2411"
           sodipodi:nodetypes="csssssssssssssssc" />
        <path
           style="opacity:1;fill:none;fill-opacity:1;fill-rule:evenodd;stroke:#000000;stroke-width:1.00399995;stroke-linecap:round;stroke-linejoin:round;marker:none;marker-start:none;marker-mid:none;marker-end:none;stroke-miterlimit:4;stroke-dasharray:none;stroke-dashoffset:0;stroke-opacity:1;visibility:visible;display:inline;overflow:visible;enable-background:accumulate"
           d="M 36.91326,4.7907249 C 36.91326,5.4641603 36.91326,6.1375953 36.91326,6.8110303 C 36.91326,7.5022303 36.78351,7.8720303 36.91326,8.5282893 C 37.120593,9.5769503 36.950176,10.109626 37.014276,10.750625 C 37.055282,11.160689 37.173016,11.970016 37.115291,12.821437 C 37.069485,13.49705 37.198317,13.618491 37.014276,14.387174 C 36.870679,14.986936 36.968848,15.114312 36.660722,15.902403 C 36.392281,16.588996 36.227518,17.338968 35.953616,18.023723 C 35.717458,18.614118 35.415255,18.931293 35.094986,19.437937 C 34.50085,20.377818 33.955709,20.820971 33.226204,21.660272 C 30.705941,24.559854 32.075952,23.134915 31.357421,23.781592 C 30.579876,24.481383 29.800249,25.459821 28.930517,26.039642 C 28.042515,26.631644 30.12155,25.134319 26.312786,28.167091 C 25.839058,28.544302 25.567614,29.037836 25.104193,29.385402 C 24.781683,29.627284 24.123169,30.114147 23.835374,30.365968 C 23.38306,30.761743 23.356342,30.714865 22.976745,31.073074 C 22.833206,31.208524 22.665352,31.166968 22.528303,31.224071"
           id="path2413"
           sodipodi:nodetypes="csssssssssssssssc" />
        <path
           style="opacity:1;fill:none;fill-opacity:1;fill-rule:evenodd;stroke:#000000;stroke-width:1.00399995;stroke-linecap:round;stroke-linejoin:round;marker:none;marker-start:none;marker-mid:none;marker-end:none;stroke-miterlimit:4;stroke-dasharray:none;stroke-dashoffset:0;stroke-opacity:1;visibility:visible;display:inline;overflow:visible;enable-background:accumulate"
           d="M 29.732142,37.464286 C 29.160714,36.607143 29.089285,36.464286 29.089285,36.464286 L 27.946428,36.464286"
           id="path2415"
           sodipodi:nodetypes="ccc" />
        <path
           style="opacity:1;fill:none;fill-opacity:1;fill-rule:evenodd;stroke:#000000;stroke-width:1.00399995;stroke-linecap:round;stroke-linejoin:round;marker:none;marker-start:none;marker-mid:none;marker-end:none;stroke-miterlimit:4;stroke-dasharray:none;stroke-dashoffset:0;stroke-opacity:1;visibility:visible;display:inline;overflow:visible;enable-background:accumulate"
           d="M 15.75,37.339286 C 16.321428,36.482143 16.392857,36.339286 16.392857,36.339286 L 17.535714,36.339286"
           id="path2417"
           sodipodi:nodetypes="ccc" />
        <g
           id="g2455"
           style="stroke-width:1.00399995;stroke-linecap:round;stroke-linejoin:round;stroke-miterlimit:4;stroke-dasharray:none">
          <path
             sodipodi:nodetypes="csssssssssssssssssssssssssssssssssssssssssssssssssc"
             id="path2447"
             d="M 39.59798,8.6040508 C 39.701716,8.8461021 40.127677,9.2385647 40.052548,9.917249 C 40.035602,10.070335 39.777899,10.231134 39.698995,10.32131 C 39.536678,10.506815 39.252133,10.540461 39.042396,10.624356 C 38.826325,10.710784 38.579464,10.787653 38.385797,10.826386 C 38.10171,10.883204 37.889305,10.757392 37.729198,10.725371 C 37.477907,10.675113 37.425483,10.453307 37.274629,10.32131 C 37.130992,10.195628 37.030723,9.8125605 36.971583,9.6647109 C 36.899507,9.4845199 36.898494,9.0972321 36.870568,8.9576041 C 36.831359,8.7615585 36.792622,8.4811876 36.769553,8.2504973 C 36.744878,8.0037476 36.769553,7.7410885 36.769553,7.4928829 C 36.769553,7.3048884 36.948161,7.0211082 37.022091,6.8362838 C 37.114728,6.6046905 37.223438,6.5007051 37.325137,6.3312075 C 37.425911,6.1632503 37.633375,6.0438738 37.779705,5.8766389 C 37.955346,5.6759061 38.119607,5.4954433 38.284781,5.3715626 C 38.466227,5.2354784 38.767422,5.114653 38.941381,5.0180092 C 39.169716,4.8911561 39.435063,4.9192727 39.698995,4.8664863 C 39.990722,4.8081408 40.22279,4.87023 40.456609,4.9169939 C 40.724068,4.9704857 40.964207,5.0897282 41.163716,5.1695321 C 41.42944,5.2758215 41.466088,5.3962267 41.668792,5.5735931 C 41.825143,5.7103995 41.908165,5.8471615 42.022346,5.9776541 C 42.178145,6.1557106 42.282406,6.306222 42.426407,6.4322228 C 42.55444,6.5442515 42.621869,6.844664 42.729453,7.0383143 C 42.857566,7.2689178 42.854989,7.5360674 42.880976,7.7959287 C 42.900949,7.9956612 42.9985,8.282538 43.032498,8.4525278 C 43.085682,8.7184457 43.103603,8.8605229 43.133514,9.1596346 C 43.160436,9.4288556 43.103859,9.6582104 43.083006,9.8667414 C 43.060583,10.090974 42.964987,10.305313 42.931483,10.472833 C 42.887474,10.692881 42.819924,10.879107 42.77996,11.078924 C 42.725596,11.350748 42.676013,11.497646 42.628437,11.735524 C 42.573641,12.009508 42.464517,12.221087 42.375899,12.44263 C 42.274804,12.695369 42.177963,12.886963 42.072854,13.149737 C 41.968202,13.411366 41.852959,13.616258 41.7193,13.856844 C 41.578995,14.109394 41.406271,14.301133 41.264731,14.513443 C 41.135494,14.707299 40.967791,14.845588 40.86067,14.968012 C 40.700524,15.151036 40.5793,15.33287 40.456609,15.473088 C 40.328177,15.619868 40.196829,15.853134 40.103056,15.978164 C 39.962929,16.165001 39.838089,16.276253 39.698995,16.432733 C 39.474905,16.684834 39.396379,16.714285 39.244426,16.916888 C 39.090881,17.121614 38.936646,17.233045 38.819444,17.389315 C 38.679917,17.575351 38.551429,17.746316 38.388335,18.010199 C 38.258573,18.220152 38.219031,18.496145 38.212827,18.770877 C 38.206055,19.070739 38.215891,19.266869 38.358749,19.582063 C 38.458992,19.803236 38.586024,19.89619 38.679651,20.036631 C 38.806084,20.22628 38.865164,20.384793 39.047997,20.544772 C 39.246396,20.718371 39.293381,20.866905 39.585724,20.925374 C 39.873288,20.982886 40.697253,20.734787 40.790293,20.628456 C 40.883225,20.522249 40.994622,19.912105 40.992788,19.714448 C 40.990864,19.506948 40.675013,19.33894 40.593865,19.325935 C 40.287163,19.276785 40.031252,19.531982 39.909691,19.519826 C 39.718686,19.500725 39.637364,19.268282 39.67501,19.080051"
             style="opacity:1;fill:none;fill-opacity:1;fill-rule:evenodd;stroke:#000000;stroke-width:1.00399995;stroke-linecap:round;stroke-linejoin:round;marker:none;marker-start:none;marker-mid:none;marker-end:none;stroke-miterlimit:4;stroke-dasharray:none;stroke-dashoffset:0;stroke-opacity:1;visibility:visible;display:inline;overflow:visible;enable-background:accumulate" />
          <path
             sodipodi:nodetypes="cssssssssscssssssssssssssssc"
             id="path2449"
             d="M 39.749503,19.362175 C 39.633458,19.350571 39.698995,18.728826 39.698995,18.554053 C 39.698995,18.29996 39.857622,18.16751 39.951533,17.998469 C 40.048325,17.824244 40.422431,17.833579 40.608132,17.796439 C 40.875283,17.743009 41.126339,17.859674 41.315239,17.897454 C 41.575177,17.949442 41.729027,18.121724 41.870823,18.2005 C 42.073819,18.313276 42.031599,18.425293 42.17947,18.536196 C 42.340365,18.656867 42.457998,19.007769 42.539151,19.210652 C 42.635963,19.452682 42.523375,19.657488 42.550882,19.932553 C 42.575511,20.178844 42.458531,20.482115 42.458531,20.743738 C 42.458531,20.991926 42.421424,21.068999 42.363644,21.227894 C 42.363644,21.563598 42.307587,21.55475 42.191201,21.845715 C 42.130175,21.998278 42.000576,22.179197 41.91214,22.267633 C 41.739595,22.440178 41.566925,22.562233 41.42492,22.686488 C 41.254955,22.835207 41.145976,22.807502 40.946892,22.918104 C 40.765597,23.018824 40.443295,23.054539 40.284165,23.102278 C 40.009596,23.184649 39.878249,23.137992 39.618901,23.137992 C 39.330721,23.137992 39.116442,23.047863 38.911794,22.986469 C 38.736815,22.933975 38.580529,22.86702 38.442432,22.784965 C 38.11697,22.59158 37.9827,22.47335 37.779705,22.247238 C 37.616966,22.065966 37.342556,21.880496 37.218519,21.715113 C 37.064902,21.510291 36.864831,21.15649 36.719045,21.028927 C 36.589034,20.915168 36.475852,20.638884 36.365492,20.473343 C 36.221759,20.257744 36.103687,20.157942 35.961431,19.968267 C 35.811514,19.768378 35.886336,19.520367 35.860415,19.26116 C 35.833877,18.99578 35.832369,18.784005 35.860415,18.503546 C 35.886439,18.243309 35.954779,17.986969 36.011938,17.796439 C 36.067349,17.611736 36.110713,17.730589 36.163461,17.695424"
             style="opacity:1;fill:none;fill-opacity:1;fill-rule:evenodd;stroke:#000000;stroke-width:1.00399995;stroke-linecap:round;stroke-linejoin:round;marker:none;marker-start:none;marker-mid:none;marker-end:none;stroke-miterlimit:4;stroke-dasharray:none;stroke-dashoffset:0;stroke-opacity:1;visibility:visible;display:inline;overflow:visible;enable-background:accumulate" />
          <path
             sodipodi:nodetypes="cssssssssssssssssssssc"
             id="path2453"
             d="M 36.163461,17.493393 C 36.183647,17.326338 36.420245,17.016509 36.517015,16.836794 C 36.616867,16.651353 36.775297,16.458745 36.870568,16.331718 C 37.019083,16.133697 37.108666,15.949317 37.224121,15.776134 C 37.358955,15.573883 37.447616,15.414249 37.527167,15.271058 C 37.689375,14.979084 37.793878,14.889158 37.931228,14.614458 C 38.035346,14.406222 38.246479,14.218733 38.335289,14.058874 C 38.480571,13.797367 38.622958,13.658481 38.73935,13.503291 C 38.88739,13.305903 39.056256,13.131257 39.193919,12.947707 C 39.322534,12.77622 39.415572,12.579035 39.547472,12.341615 C 39.680912,12.101423 39.859693,11.948714 40.002041,11.786031 C 40.14374,11.624089 40.202692,11.485055 40.305087,11.331463 C 40.42688,11.148773 40.508319,10.974905 40.608132,10.725371 C 40.707008,10.478183 40.701869,10.408213 40.759655,10.11928 C 40.797276,9.9311759 40.810163,9.668911 40.810163,9.4121728 C 40.810163,9.135065 40.762575,8.9722043 40.709148,8.705066 C 40.665535,8.4870021 40.549908,8.2921188 40.507117,8.1494821 C 40.41989,7.858725 40.309131,7.923212 40.153564,7.7454211 C 40.002874,7.5732045 39.70366,7.6444058 39.547472,7.6444058 C 39.323156,7.6444058 39.350285,7.9649773 39.294934,8.1494821 C 39.185543,8.5141183 39.479621,8.5188556 39.547472,8.6545584 C 39.608175,8.7759636 39.715831,8.9407682 39.850518,8.9576041"
             style="opacity:1;fill:none;fill-opacity:1;fill-rule:evenodd;stroke:#000000;stroke-width:1.00399995;stroke-linecap:round;stroke-linejoin:round;marker:none;marker-start:none;marker-mid:none;marker-end:none;stroke-miterlimit:4;stroke-dasharray:none;stroke-dashoffset:0;stroke-opacity:1;visibility:visible;display:inline;overflow:visible;enable-background:accumulate" />
        </g>
        <g
           id="g2460"
           transform="matrix(-1,0,0,1,44.793591,0.3144354)"
           style="stroke-width:1.00399995;stroke-linecap:round;stroke-linejoin:round;stroke-miterlimit:4;stroke-dasharray:none">
          <path
             sodipodi:nodetypes="csssssssssssssssssssssssssssssssssssssssssssssssssc"
             id="path2462"
             d="M 39.59798,8.6040508 C 39.701716,8.8461021 40.127677,9.2385647 40.052548,9.917249 C 40.035602,10.070335 39.777899,10.231134 39.698995,10.32131 C 39.536678,10.506815 39.252133,10.540461 39.042396,10.624356 C 38.826325,10.710784 38.579464,10.787653 38.385797,10.826386 C 38.10171,10.883204 37.889305,10.757392 37.729198,10.725371 C 37.477907,10.675113 37.425483,10.453307 37.274629,10.32131 C 37.130992,10.195628 37.030723,9.8125605 36.971583,9.6647109 C 36.899507,9.4845199 36.898494,9.0972321 36.870568,8.9576041 C 36.831359,8.7615585 36.792622,8.4811876 36.769553,8.2504973 C 36.744878,8.0037476 36.769553,7.7410885 36.769553,7.4928829 C 36.769553,7.3048884 36.948161,7.0211082 37.022091,6.8362838 C 37.114728,6.6046905 37.223438,6.5007051 37.325137,6.3312075 C 37.425911,6.1632503 37.633375,6.0438738 37.779705,5.8766389 C 37.955346,5.6759061 38.119607,5.4954433 38.284781,5.3715626 C 38.466227,5.2354784 38.767422,5.114653 38.941381,5.0180092 C 39.169716,4.8911561 39.435063,4.9192727 39.698995,4.8664863 C 39.990722,4.8081408 40.22279,4.87023 40.456609,4.9169939 C 40.724068,4.9704857 40.964207,5.0897282 41.163716,5.1695321 C 41.42944,5.2758215 41.466088,5.3962267 41.668792,5.5735931 C 41.825143,5.7103995 41.908165,5.8471615 42.022346,5.9776541 C 42.178145,6.1557106 42.282406,6.306222 42.426407,6.4322228 C 42.55444,6.5442515 42.621869,6.844664 42.729453,7.0383143 C 42.857566,7.2689178 42.854989,7.5360674 42.880976,7.7959287 C 42.900949,7.9956612 42.9985,8.282538 43.032498,8.4525278 C 43.085682,8.7184457 43.103603,8.8605229 43.133514,9.1596346 C 43.160436,9.4288556 43.103859,9.6582104 43.083006,9.8667414 C 43.060583,10.090974 42.964987,10.305313 42.931483,10.472833 C 42.887474,10.692881 42.819924,10.879107 42.77996,11.078924 C 42.725596,11.350748 42.676013,11.497646 42.628437,11.735524 C 42.573641,12.009508 42.464517,12.221087 42.375899,12.44263 C 42.274804,12.695369 42.177963,12.886963 42.072854,13.149737 C 41.968202,13.411366 41.852959,13.616258 41.7193,13.856844 C 41.578995,14.109394 41.406271,14.301133 41.264731,14.513443 C 41.135494,14.707299 40.967791,14.845588 40.86067,14.968012 C 40.700524,15.151036 40.5793,15.33287 40.456609,15.473088 C 40.328177,15.619868 40.196829,15.853134 40.103056,15.978164 C 39.962929,16.165001 39.838089,16.276253 39.698995,16.432733 C 39.474905,16.684834 39.396379,16.714285 39.244426,16.916888 C 39.090881,17.121614 38.936646,17.233045 38.819444,17.389315 C 38.679917,17.575351 38.551429,17.746316 38.388335,18.010199 C 38.258573,18.220152 38.219031,18.496145 38.212827,18.770877 C 38.206055,19.070739 38.215891,19.266869 38.358749,19.582063 C 38.458992,19.803236 38.586024,19.89619 38.679651,20.036631 C 38.806084,20.22628 38.865164,20.384793 39.047997,20.544772 C 39.246396,20.718371 39.293381,20.866905 39.585724,20.925374 C 39.873288,20.982886 40.697253,20.734787 40.790293,20.628456 C 40.883225,20.522249 40.994622,19.912105 40.992788,19.714448 C 40.990864,19.506948 40.675013,19.33894 40.593865,19.325935 C 40.287163,19.276785 40.031252,19.531982 39.909691,19.519826 C 39.718686,19.500725 39.637364,19.268282 39.67501,19.080051"
             style="opacity:1;fill:none;fill-opacity:1;fill-rule:evenodd;stroke:#000000;stroke-width:1.00399995;stroke-linecap:round;stroke-linejoin:round;marker:none;marker-start:none;marker-mid:none;marker-end:none;stroke-miterlimit:4;stroke-dasharray:none;stroke-dashoffset:0;stroke-opacity:1;visibility:visible;display:inline;overflow:visible;enable-background:accumulate" />
          <path
             sodipodi:nodetypes="cssssssssscssssssssssssssssc"
             id="path2464"
             d="M 39.749503,19.362175 C 39.633458,19.350571 39.698995,18.728826 39.698995,18.554053 C 39.698995,18.29996 39.857622,18.16751 39.951533,17.998469 C 40.048325,17.824244 40.422431,17.833579 40.608132,17.796439 C 40.875283,17.743009 41.126339,17.859674 41.315239,17.897454 C 41.575177,17.949442 41.729027,18.121724 41.870823,18.2005 C 42.073819,18.313276 42.031599,18.425293 42.17947,18.536196 C 42.340365,18.656867 42.457998,19.007769 42.539151,19.210652 C 42.635963,19.452682 42.523375,19.657488 42.550882,19.932553 C 42.575511,20.178844 42.458531,20.482115 42.458531,20.743738 C 42.458531,20.991926 42.421424,21.068999 42.363644,21.227894 C 42.363644,21.563598 42.307587,21.55475 42.191201,21.845715 C 42.130175,21.998278 42.000576,22.179197 41.91214,22.267633 C 41.739595,22.440178 41.566925,22.562233 41.42492,22.686488 C 41.254955,22.835207 41.145976,22.807502 40.946892,22.918104 C 40.765597,23.018824 40.443295,23.054539 40.284165,23.102278 C 40.009596,23.184649 39.878249,23.137992 39.618901,23.137992 C 39.330721,23.137992 39.116442,23.047863 38.911794,22.986469 C 38.736815,22.933975 38.580529,22.86702 38.442432,22.784965 C 38.11697,22.59158 37.9827,22.47335 37.779705,22.247238 C 37.616966,22.065966 37.342556,21.880496 37.218519,21.715113 C 37.064902,21.510291 36.864831,21.15649 36.719045,21.028927 C 36.589034,20.915168 36.475852,20.638884 36.365492,20.473343 C 36.221759,20.257744 36.103687,20.157942 35.961431,19.968267 C 35.811514,19.768378 35.886336,19.520367 35.860415,19.26116 C 35.833877,18.99578 35.832369,18.784005 35.860415,18.503546 C 35.886439,18.243309 35.954779,17.986969 36.011938,17.796439 C 36.067349,17.611736 36.110713,17.730589 36.163461,17.695424"
             style="opacity:1;fill:none;fill-opacity:1;fill-rule:evenodd;stroke:#000000;stroke-width:1.00399995;stroke-linecap:round;stroke-linejoin:round;marker:none;marker-start:none;marker-mid:none;marker-end:none;stroke-miterlimit:4;stroke-dasharray:none;stroke-dashoffset:0;stroke-opacity:1;visibility:visible;display:inline;overflow:visible;enable-background:accumulate" />
          <path
             sodipodi:nodetypes="cssssssssssssssssssssc"
             id="path2466"
             d="M 36.163461,17.493393 C 36.183647,17.326338 36.420245,17.016509 36.517015,16.836794 C 36.616867,16.651353 36.775297,16.458745 36.870568,16.331718 C 37.019083,16.133697 37.108666,15.949317 37.224121,15.776134 C 37.358955,15.573883 37.447616,15.414249 37.527167,15.271058 C 37.689375,14.979084 37.793878,14.889158 37.931228,14.614458 C 38.035346,14.406222 38.246479,14.218733 38.335289,14.058874 C 38.480571,13.797367 38.622958,13.658481 38.73935,13.503291 C 38.88739,13.305903 39.056256,13.131257 39.193919,12.947707 C 39.322534,12.77622 39.415572,12.579035 39.547472,12.341615 C 39.680912,12.101423 39.859693,11.948714 40.002041,11.786031 C 40.14374,11.624089 40.202692,11.485055 40.305087,11.331463 C 40.42688,11.148773 40.508319,10.974905 40.608132,10.725371 C 40.707008,10.478183 40.701869,10.408213 40.759655,10.11928 C 40.797276,9.9311759 40.810163,9.668911 40.810163,9.4121728 C 40.810163,9.135065 40.762575,8.9722043 40.709148,8.705066 C 40.665535,8.4870021 40.549908,8.2921188 40.507117,8.1494821 C 40.41989,7.858725 40.309131,7.923212 40.153564,7.7454211 C 40.002874,7.5732045 39.70366,7.6444058 39.547472,7.6444058 C 39.323156,7.6444058 39.350285,7.9649773 39.294934,8.1494821 C 39.185543,8.5141183 39.479621,8.5188556 39.547472,8.6545584 C 39.608175,8.7759636 39.715831,8.9407682 39.850518,8.9576041"
             style="opacity:1;fill:none;fill-opacity:1;fill-rule:evenodd;stroke:#000000;stroke-width:1.00399995;stroke-linecap:round;stroke-linejoin:round;marker:none;marker-start:none;marker-mid:none;marker-end:none;stroke-miterlimit:4;stroke-dasharray:none;stroke-dashoffset:0;stroke-opacity:1;visibility:visible;display:inline;overflow:visible;enable-background:accumulate" />
        </g>
      </g>
      <path
         id="path3302"
         d="M 24.223483,35.614426 C 24.095998,35.473558 23.337026,34.878915 22.536869,34.292999 C 21.736726,33.707086 20.529283,32.775725 19.853669,32.223312 C 19.17804,31.670899 18.239569,30.923254 17.76814,30.561875 C 16.615955,29.678652 15.294926,28.380005 13.794198,26.655256 C 12.025026,24.622001 11.48624,23.750262 10.88114,21.941985 C 10.29924,20.203049 10.282183,19.905972 10.425069,14.000056 L 10.482426,11.629555 L 11.196712,11.819854 C 13.237998,12.363701 16.14034,12.686632 20.706698,12.877994 C 27.199755,13.150098 35.509383,12.586476 37.790369,11.719249 C 37.984798,11.645324 38.187912,11.584974 38.241726,11.585134 C 38.343998,11.585442 38.466626,15.235182 38.467312,18.299128 C 38.467698,19.991785 38.439055,20.170454 37.917626,21.727699 C 37.264326,23.678744 36.767955,24.499686 35.053855,26.464038 C 32.879269,28.956104 31.835483,29.991278 30.054412,31.422256 C 29.111869,32.179539 27.89044,33.219444 27.340126,33.733164 C 25.914712,35.063802 24.904355,35.870556 24.663312,35.870556 C 24.548898,35.870556 24.350969,35.755299 24.223483,35.614428 L 24.223483,35.614426 z"
         style="opacity:1;fill:#f9d100;fill-opacity:1;fill-rule:nonzero;stroke:none;stroke-width:0.40799999;stroke-linecap:round;stroke-linejoin:round;marker:none;marker-start:none;marker-mid:none;marker-end:none;stroke-miterlimit:4;stroke-dasharray:none;stroke-dashoffset:0;stroke-opacity:0.98983047;visibility:visible;display:inline;overflow:visible;enable-background:accumulate" />
      <path
         id="path3304"
         d="M 40.910998,27.785116 C 40.274883,27.437471 39.746412,26.904332 39.041826,25.899426 C 38.559669,25.211769 38.410998,24.869454 38.410998,24.446984 C 38.410998,23.866501 38.78184,22.862616 39.243069,22.194559 C 39.393226,21.977074 39.879626,21.252699 40.323955,20.584842 C 40.768298,19.916985 41.391498,19.016985 41.708855,18.584842 C 42.816612,17.076389 43.113555,16.543769 43.27184,15.781291 C 43.588069,14.258015 42.938512,12.698502 41.905655,12.501276 C 41.332226,12.391779 40.85644,12.782188 40.749612,13.449888 C 40.684012,13.860028 40.739826,14.042735 41.039669,14.399082 C 41.649712,15.124086 41.512498,15.374651 40.344812,15.667721 C 39.837998,15.794924 39.594498,15.288476 39.480726,13.870556 L 39.383312,12.656271 L 39.984926,11.972912 C 40.667355,11.197788 41.209469,10.870556 41.811155,10.870556 C 42.526683,10.870556 43.05494,11.144498 43.602426,11.799475 C 44.024998,12.304999 44.180526,12.663845 44.372198,13.575562 C 44.607655,14.695556 44.605998,14.744698 44.288012,16.063676 C 44.109598,16.803725 43.779969,17.797582 43.555498,18.272239 C 43.171555,19.084098 41.337769,21.543312 40.765783,22.013414 C 40.186226,22.489745 39.696712,23.479469 39.696712,24.174939 C 39.696712,25.061586 39.830012,25.376602 40.550212,26.191985 C 41.074583,26.785668 41.220112,26.870556 41.71344,26.870556 C 42.57874,26.870556 43.20264,26.549686 43.391669,26.007464 C 43.720955,25.062852 43.460269,24.395405 42.69654,24.227661 C 42.252569,24.130145 42.136383,23.948456 42.446712,23.836975 C 42.795083,23.711826 43.524298,24.018445 43.769955,24.393366 C 43.974498,24.705549 44.002383,24.954426 43.925498,25.781711 C 43.785826,27.284584 43.318255,27.821084 42.036212,27.949538 C 41.550498,27.998205 41.209812,27.948419 40.910998,27.785116 z"
         style="opacity:1;fill:#f9d100;fill-opacity:1;fill-rule:nonzero;stroke:none;stroke-width:0.40799999;stroke-linecap:round;stroke-linejoin:round;marker:none;marker-start:none;marker-mid:none;marker-end:none;stroke-miterlimit:4;stroke-dasharray:none;stroke-dashoffset:0;stroke-opacity:0.98983047;visibility:visible;display:inline;overflow:visible;enable-background:accumulate" />
      <path
         id="path3306"
         d="M 20.839569,11.773885 C 16.41124,11.633441 11.348326,10.960176 10.786098,10.436978 C 10.617712,10.280284 11.909969,9.907385 13.482426,9.6589093 C 16.474355,9.1861293 18.390026,9.0848421 24.339569,9.0848421 C 30.289112,9.0848421 32.204783,9.1861321 35.196712,9.6589093 C 36.75214,9.9046907 38.01884,10.267494 37.913969,10.437169 C 37.871669,10.505618 37.275126,10.693235 36.588312,10.854088 C 33.419569,11.596224 27.020883,11.969934 20.839569,11.773888 L 20.839569,11.773885 z"
         style="opacity:1;fill:#f9d100;fill-opacity:1;fill-rule:nonzero;stroke:none;stroke-width:0.40799999;stroke-linecap:round;stroke-linejoin:round;marker:none;marker-start:none;marker-mid:none;marker-end:none;stroke-miterlimit:4;stroke-dasharray:none;stroke-dashoffset:0;stroke-opacity:0.98983047;visibility:visible;display:inline;overflow:visible;enable-background:accumulate" />
      <path
         id="path3308"
         d="M 5.9925833,28.048909 C 5.2033405,27.646465 4.9498548,27.174558 4.8720976,25.962971 C 4.8073119,24.953404 4.8245691,24.872565 5.1810405,24.516092 C 5.4612262,24.235911 5.6749119,24.150024 6.0095119,24.183111 C 6.5593405,24.237482 6.6955119,24.505212 6.1882548,24.534535 C 5.9873119,24.546154 5.6914262,24.674628 5.5307548,24.820038 C 5.2910262,25.036984 5.2505262,25.208349 5.3049833,25.775124 C 5.3958119,26.720366 5.7431833,27.041496 6.7667119,27.126374 C 7.4635833,27.184166 7.6161976,27.148566 7.9381833,26.853118 C 8.6478548,26.201932 9.1252833,25.291906 9.1252833,24.590359 C 9.1252833,23.788311 8.8545548,23.269292 7.8361691,22.119015 C 5.6870691,19.691555 5.0603119,18.638724 4.5433148,16.587689 C 4.0667319,14.696968 4.2910805,13.195952 5.2155691,12.089972 C 6.1509119,10.970999 7.2898405,10.872596 8.3914976,11.815578 C 9.2965262,12.590244 9.3994405,12.880038 9.2862833,14.335204 C 9.1653405,15.890669 8.9806548,16.143712 8.1483833,15.894356 C 7.3153833,15.644779 7.1874976,15.417445 7.6015119,14.922255 C 8.0908405,14.336985 8.1687405,13.965381 7.9245833,13.381042 C 7.7256548,12.904928 7.6688262,12.870556 7.0806262,12.870556 C 6.2677405,12.870556 5.7874262,13.325482 5.5484262,14.321778 C 5.2122548,15.723045 5.5572548,16.818706 6.9132119,18.656271 C 8.2017548,20.402458 10.014726,23.211879 10.209755,23.764668 C 10.535312,24.687402 10.462955,25.128025 9.8251119,26.107039 C 8.5501119,28.063969 7.2820976,28.706449 5.9925833,28.048906 L 5.9925833,28.048909 z"
         style="opacity:1;fill:#f9d100;fill-opacity:1;fill-rule:nonzero;stroke:none;stroke-width:0.40799999;stroke-linecap:round;stroke-linejoin:round;marker:none;marker-start:none;marker-mid:none;marker-end:none;stroke-miterlimit:4;stroke-dasharray:none;stroke-dashoffset:0;stroke-opacity:0.98983047;visibility:visible;display:inline;overflow:visible;enable-background:accumulate" />
      <path
         id="path3310"
         d="M 20.152126,41.767956 C 20.334783,41.106418 20.566798,40.928634 21.537012,40.706758 C 22.991683,40.374099 23.600683,39.689964 23.61664,38.370556 C 23.62904,37.345441 23.357898,36.815022 22.621898,36.424574 C 22.146698,36.172481 22.035069,36.050692 22.151069,35.910915 C 22.234698,35.810144 22.366683,35.727699 22.444383,35.727699 C 22.593212,35.727699 24.019769,36.865306 24.101469,37.049128 C 24.127669,37.108056 24.358198,37.156271 24.613769,37.156271 C 24.957483,37.156271 25.310155,36.970325 25.968455,36.442008 C 26.708612,35.847981 26.90494,35.752635 27.134712,35.875605 C 27.510412,36.076668 27.49414,36.108049 26.841655,36.440919 C 26.201198,36.767654 25.915183,37.148934 25.786626,37.847299 C 25.680998,38.421124 25.934583,39.552715 26.252555,39.926446 C 26.519083,40.239702 27.504083,40.719985 27.889412,40.724562 C 28.374698,40.730328 29.097598,41.169355 29.183155,41.510278 C 29.229212,41.693835 29.306212,41.946414 29.35424,42.071571 C 29.43304,42.276911 28.98094,42.299128 24.723512,42.299128 L 20.005469,42.299128 L 20.152126,41.767956 z"
         style="opacity:1;fill:#f9d100;fill-opacity:1;fill-rule:nonzero;stroke:none;stroke-width:0.40799999;stroke-linecap:round;stroke-linejoin:round;marker:none;marker-start:none;marker-mid:none;marker-end:none;stroke-miterlimit:4;stroke-dasharray:none;stroke-dashoffset:0;stroke-opacity:0.98983047;visibility:visible;display:inline;overflow:visible;enable-background:accumulate" />
      <path
         id="path3312"
         d="M 15.729083,46.406271 C 15.922683,46.150914 16.522055,45.337636 17.06104,44.598988 L 18.040983,43.255994 L 20.690283,43.348584 C 22.147383,43.399511 25.154326,43.441359 27.372355,43.441581 L 31.40514,43.441985 L 32.515212,45.021278 C 33.125755,45.889888 33.646712,46.661316 33.672898,46.735564 C 33.702483,46.819409 30.24544,46.870556 24.548798,46.870556 L 15.377083,46.870556 L 15.729083,46.406271 z"
         style="opacity:1;fill:#552200;fill-opacity:1;fill-rule:nonzero;stroke:none;stroke-width:0.40799999;stroke-linecap:round;stroke-linejoin:round;marker:none;marker-start:none;marker-mid:none;marker-end:none;stroke-miterlimit:4;stroke-dasharray:none;stroke-dashoffset:0;stroke-opacity:0.98983047;visibility:visible;display:inline;overflow:visible;enable-background:accumulate" />
    </g>
    <g
       id="g3272"
       transform="matrix(1.3658575,0,0,1.2165211,-27.118486,-26.078965)">
      <path
         transform="matrix(1.001991,0,0,0.5569684,-3.4151089,14.801313)"
         sodipodi:end="6.8463761"
         sodipodi:start="1.8000437"
         d="M 39.546501,41.690441 A 6.3387074,3.7123106 0 1 1 46.34667,40.057207 L 40.986938,38.075253 z"
         sodipodi:ry="3.7123106"
         sodipodi:rx="6.3387074"
         sodipodi:cy="38.075253"
         sodipodi:cx="40.986938"
         id="path2427"
         style="opacity:1;fill:none;fill-opacity:1;fill-rule:evenodd;stroke:#000000;stroke-width:0.65993285;stroke-linecap:butt;stroke-linejoin:miter;marker:none;marker-start:none;marker-mid:none;marker-end:none;stroke-miterlimit:4;stroke-dasharray:none;stroke-dashoffset:0;stroke-opacity:1;visibility:visible;display:inline;overflow:visible;enable-background:accumulate"
         sodipodi:type="arc" />
      <path
         id="path2431"
         d="M 31.320857,35.946534 C 31.371364,41.653896 31.371364,41.653896 31.371364,41.653896"
         style="opacity:1;fill:none;fill-opacity:1;fill-rule:evenodd;stroke:#000000;stroke-width:0.493;stroke-linecap:butt;stroke-linejoin:miter;marker:none;marker-start:none;marker-mid:none;marker-end:none;stroke-miterlimit:4;stroke-dasharray:none;stroke-dashoffset:0;stroke-opacity:1;visibility:visible;display:inline;overflow:visible;enable-background:accumulate" />
      <path
         id="path2433"
         d="M 36.242603,38.003462 C 36.29311,43.710824 36.29311,43.710824 36.29311,43.710824"
         style="opacity:1;fill:none;fill-opacity:1;fill-rule:evenodd;stroke:#000000;stroke-width:0.493;stroke-linecap:butt;stroke-linejoin:miter;marker:none;marker-start:none;marker-mid:none;marker-end:none;stroke-miterlimit:4;stroke-dasharray:none;stroke-dashoffset:0;stroke-opacity:1;visibility:visible;display:inline;overflow:visible;enable-background:accumulate" />
      <path
         id="path2435"
         d="M 37.689032,36.003462 C 37.739539,41.710824 37.739539,41.710824 37.739539,41.710824"
         style="opacity:1;fill:none;fill-opacity:1;fill-rule:evenodd;stroke:#000000;stroke-width:0.493;stroke-linecap:butt;stroke-linejoin:miter;marker:none;marker-start:none;marker-mid:none;marker-end:none;stroke-miterlimit:4;stroke-dasharray:none;stroke-dashoffset:0;stroke-opacity:1;visibility:visible;display:inline;overflow:visible;enable-background:accumulate" />
      <path
         id="path2437"
         d="M 42.974747,37.146319 C 43.025254,42.853681 43.025254,42.853681 43.025254,42.853681"
         style="opacity:1;fill:none;fill-opacity:1;fill-rule:evenodd;stroke:#000000;stroke-width:0.493;stroke-linecap:butt;stroke-linejoin:miter;marker:none;marker-start:none;marker-mid:none;marker-end:none;stroke-miterlimit:4;stroke-dasharray:none;stroke-dashoffset:0;stroke-opacity:1;visibility:visible;display:inline;overflow:visible;enable-background:accumulate" />
      <path
         id="path2439"
         d="M 37.75,41.660714 C 37.744048,41.666667 37.738095,41.672619 37.75,41.660714 z"
         style="opacity:1;fill:none;fill-opacity:1;fill-rule:evenodd;stroke:#000000;stroke-width:0.493;stroke-linecap:butt;stroke-linejoin:miter;marker:none;marker-start:none;marker-mid:none;marker-end:none;stroke-miterlimit:4;stroke-dasharray:none;stroke-dashoffset:0;stroke-opacity:1;visibility:visible;display:inline;overflow:visible;enable-background:accumulate" />
      <path
         id="path2441"
         d="M 44.010461,35.985605 C 44.060968,41.692967 44.060968,41.692967 44.060968,41.692967"
         style="opacity:1;fill:none;fill-opacity:1;fill-rule:evenodd;stroke:#000000;stroke-width:0.493;stroke-linecap:butt;stroke-linejoin:miter;marker:none;marker-start:none;marker-mid:none;marker-end:none;stroke-miterlimit:4;stroke-dasharray:none;stroke-dashoffset:0;stroke-opacity:1;visibility:visible;display:inline;overflow:visible;enable-background:accumulate" />
      <path
         id="path2443"
         d="M 36.321429,43.696429 L 37.732143,41.660714"
         style="opacity:1;fill:none;fill-opacity:1;fill-rule:evenodd;stroke:#000000;stroke-width:0.493;stroke-linecap:butt;stroke-linejoin:miter;marker:none;marker-start:none;marker-mid:none;marker-end:none;stroke-miterlimit:4;stroke-dasharray:none;stroke-dashoffset:0;stroke-opacity:1;visibility:visible;display:inline;overflow:visible;enable-background:accumulate" />
      <path
         sodipodi:nodetypes="cc"
         id="path2445"
         d="M 37.750001,41.696428 L 43.053572,42.857142"
         style="opacity:1;fill:none;fill-opacity:1;fill-rule:evenodd;stroke:#000000;stroke-width:0.493;stroke-linecap:butt;stroke-linejoin:miter;marker:none;marker-start:none;marker-mid:none;marker-end:none;stroke-miterlimit:4;stroke-dasharray:none;stroke-dashoffset:0;stroke-opacity:1;visibility:visible;display:inline;overflow:visible;enable-background:accumulate" />
      <path
         sodipodi:open="true"
         transform="matrix(1.001991,0,0,0.5569684,-3.327472,20.454458)"
         sodipodi:end="3.1721074"
         sodipodi:start="1.8000437"
         d="M 39.546501,41.690441 A 6.3387074,3.7123106 0 0 1 34.651182,37.96199"
         sodipodi:ry="3.7123106"
         sodipodi:rx="6.3387074"
         sodipodi:cy="38.075253"
         sodipodi:cx="40.986938"
         id="path2448"
         style="opacity:1;fill:none;fill-opacity:1;fill-rule:evenodd;stroke:#000000;stroke-width:0.65993285;stroke-linecap:butt;stroke-linejoin:miter;marker:none;marker-start:none;marker-mid:none;marker-end:none;stroke-miterlimit:4;stroke-dasharray:none;stroke-dashoffset:0;stroke-opacity:1;visibility:visible;display:inline;overflow:visible;enable-background:accumulate"
         sodipodi:type="arc" />
      <path
         sodipodi:open="true"
         transform="matrix(1.001991,0,0,0.5569684,-3.4078291,20.516959)"
         sodipodi:end="6.8463761"
         sodipodi:start="6.2570797"
         d="M 47.323486,37.978351 A 6.3387074,3.7123106 0 0 1 46.34667,40.057207"
         sodipodi:ry="3.7123106"
         sodipodi:rx="6.3387074"
         sodipodi:cy="38.075253"
         sodipodi:cx="40.986938"
         id="path2450"
         style="opacity:1;fill:none;fill-opacity:1;fill-rule:evenodd;stroke:#000000;stroke-width:0.65993285;stroke-linecap:butt;stroke-linejoin:miter;marker:none;marker-start:none;marker-mid:none;marker-end:none;stroke-miterlimit:4;stroke-dasharray:none;stroke-dashoffset:0;stroke-opacity:1;visibility:visible;display:inline;overflow:visible;enable-background:accumulate"
         sodipodi:type="arc" />
      <path
         d="M 42.500001,39.910713 A 1.5178572,1.125 0 1 1 39.464286,39.910713 A 1.5178572,1.125 0 1 1 42.500001,39.910713 z"
         sodipodi:ry="1.125"
         sodipodi:rx="1.5178572"
         sodipodi:cy="39.910713"
         sodipodi:cx="40.982143"
         id="path3222"
         style="opacity:1;fill:none;fill-opacity:1;fill-rule:evenodd;stroke:#000000;stroke-width:0.2;stroke-linecap:butt;stroke-linejoin:miter;marker:none;marker-start:none;marker-mid:none;marker-end:none;stroke-miterlimit:4;stroke-dasharray:none;stroke-dashoffset:0;stroke-opacity:1;visibility:visible;display:inline;overflow:visible;enable-background:accumulate"
         sodipodi:type="arc" />
      <path
         d="M 40.17857,37.910713 A 0.75,0.76785713 0 1 1 38.67857,37.910713 A 0.75,0.76785713 0 1 1 40.17857,37.910713 z"
         sodipodi:ry="0.76785713"
         sodipodi:rx="0.75"
         sodipodi:cy="37.910713"
         sodipodi:cx="39.42857"
         id="path3224"
         style="opacity:1;fill:none;fill-opacity:1;fill-rule:evenodd;stroke:#000000;stroke-width:0.2;stroke-linecap:butt;stroke-linejoin:miter;marker:none;marker-start:none;marker-mid:none;marker-end:none;stroke-miterlimit:4;stroke-dasharray:none;stroke-dashoffset:0;stroke-opacity:1;visibility:visible;display:inline;overflow:visible;enable-background:accumulate"
         sodipodi:type="arc" />
      <path
         d="M 37.428572,39.125 A 0.19642857,1.1607143 0 1 1 37.035715,39.125 A 0.19642857,1.1607143 0 1 1 37.428572,39.125 z"
         sodipodi:ry="1.1607143"
         sodipodi:rx="0.19642857"
         sodipodi:cy="39.125"
         sodipodi:cx="37.232143"
         id="path3226"
         style="opacity:1;fill:none;fill-opacity:1;fill-rule:evenodd;stroke:#000000;stroke-width:0.2;stroke-linecap:butt;stroke-linejoin:miter;marker:none;marker-start:none;marker-mid:none;marker-end:none;stroke-miterlimit:4;stroke-dasharray:none;stroke-dashoffset:0;stroke-opacity:1;visibility:visible;display:inline;overflow:visible;enable-background:accumulate"
         sodipodi:type="arc" />
      <path
         d="M 37.285713,41.357143 A 0.23214285,0.75 0 1 1 36.821427,41.357143 A 0.23214285,0.75 0 1 1 37.285713,41.357143 z"
         sodipodi:ry="0.75"
         sodipodi:rx="0.23214285"
         sodipodi:cy="41.357143"
         sodipodi:cx="37.05357"
         id="path3228"
         style="opacity:1;fill:none;fill-opacity:1;fill-rule:evenodd;stroke:#000000;stroke-width:0.2;stroke-linecap:butt;stroke-linejoin:miter;marker:none;marker-start:none;marker-mid:none;marker-end:none;stroke-miterlimit:4;stroke-dasharray:none;stroke-dashoffset:0;stroke-opacity:1;visibility:visible;display:inline;overflow:visible;enable-background:accumulate"
         sodipodi:type="arc" />
      <path
         d="M 38.999999,39.535713 A 0.23214285,0.35714287 0 1 1 38.535714,39.535713 A 0.23214285,0.35714287 0 1 1 38.999999,39.535713 z"
         sodipodi:ry="0.35714287"
         sodipodi:rx="0.23214285"
         sodipodi:cy="39.535713"
         sodipodi:cx="38.767857"
         id="path3230"
         style="opacity:1;fill:none;fill-opacity:1;fill-rule:evenodd;stroke:#000000;stroke-width:0.2;stroke-linecap:butt;stroke-linejoin:miter;marker:none;marker-start:none;marker-mid:none;marker-end:none;stroke-miterlimit:4;stroke-dasharray:none;stroke-dashoffset:0;stroke-opacity:1;visibility:visible;display:inline;overflow:visible;enable-background:accumulate"
         sodipodi:type="arc" />
      <path
         d="M 39.642859,41.017857 A 0.5714286,0.3392857 0 1 1 38.500002,41.017857 A 0.5714286,0.3392857 0 1 1 39.642859,41.017857 z"
         sodipodi:ry="0.3392857"
         sodipodi:rx="0.5714286"
         sodipodi:cy="41.017857"
         sodipodi:cx="39.07143"
         id="path3232"
         style="opacity:1;fill:none;fill-opacity:1;fill-rule:evenodd;stroke:#000000;stroke-width:0.2;stroke-linecap:butt;stroke-linejoin:miter;marker:none;marker-start:none;marker-mid:none;marker-end:none;stroke-miterlimit:4;stroke-dasharray:none;stroke-dashoffset:0;stroke-opacity:1;visibility:visible;display:inline;overflow:visible;enable-background:accumulate"
         sodipodi:type="arc" />
      <path
         d="M 42.571427,41.69643 A 1.0178572,0.4107143 0 1 1 40.535713,41.69643 A 1.0178572,0.4107143 0 1 1 42.571427,41.69643 z"
         sodipodi:ry="0.4107143"
         sodipodi:rx="1.0178572"
         sodipodi:cy="41.69643"
         sodipodi:cx="41.55357"
         id="path3234"
         style="opacity:1;fill:none;fill-opacity:1;fill-rule:evenodd;stroke:#000000;stroke-width:0.2;stroke-linecap:butt;stroke-linejoin:miter;marker:none;marker-start:none;marker-mid:none;marker-end:none;stroke-miterlimit:4;stroke-dasharray:none;stroke-dashoffset:0;stroke-opacity:1;visibility:visible;display:inline;overflow:visible;enable-background:accumulate"
         sodipodi:type="arc" />
      <path
         d="M 41.642856,38 A 0.48214287,0.4642857 0 1 1 40.67857,38 A 0.48214287,0.4642857 0 1 1 41.642856,38 z"
         sodipodi:ry="0.4642857"
         sodipodi:rx="0.48214287"
         sodipodi:cy="38"
         sodipodi:cx="41.160713"
         id="path3236"
         style="opacity:1;fill:none;fill-opacity:1;fill-rule:evenodd;stroke:#000000;stroke-width:0.2;stroke-linecap:butt;stroke-linejoin:miter;marker:none;marker-start:none;marker-mid:none;marker-end:none;stroke-miterlimit:4;stroke-dasharray:none;stroke-dashoffset:0;stroke-opacity:1;visibility:visible;display:inline;overflow:visible;enable-background:accumulate"
         sodipodi:type="arc" />
      <path
         d="M 42.499999,38.25 A 0.23214285,0.71428573 0 1 1 42.035714,38.25 A 0.23214285,0.71428573 0 1 1 42.499999,38.25 z"
         sodipodi:ry="0.71428573"
         sodipodi:rx="0.23214285"
         sodipodi:cy="38.25"
         sodipodi:cx="42.267857"
         id="path3238"
         style="opacity:1;fill:#ff7f2a;fill-opacity:1;fill-rule:evenodd;stroke:#000000;stroke-width:0.2;stroke-linecap:butt;stroke-linejoin:miter;marker:none;marker-start:none;marker-mid:none;marker-end:none;stroke-miterlimit:4;stroke-dasharray:none;stroke-dashoffset:0;stroke-opacity:1;visibility:visible;display:inline;overflow:visible;enable-background:accumulate"
         sodipodi:type="arc" />
      <path
         id="path3240"
         d="M 41.194351,41.958401 C 40.957783,41.921124 40.740941,41.825223 40.685748,41.733468 C 40.551751,41.510697 41.456044,41.326788 42.038516,41.458349 C 42.247151,41.505474 42.45038,41.621999 42.45038,41.694501 C 42.45038,41.756825 42.263423,41.876088 42.093237,41.92233 C 41.900916,41.974588 41.419633,41.993899 41.194351,41.958401 L 41.194351,41.958401 z"
         style="opacity:1;fill:#ff6600;fill-opacity:1;fill-rule:nonzero;stroke:none;stroke-width:0.40799999;stroke-linecap:round;stroke-linejoin:round;marker:none;marker-start:none;marker-mid:none;marker-end:none;stroke-miterlimit:4;stroke-dasharray:none;stroke-dashoffset:0;stroke-opacity:0.98983047;visibility:visible;display:inline;overflow:visible;enable-background:accumulate" />
      <path
         id="path3242"
         d="M 40.640373,40.883969 C 40.059787,40.787041 39.593237,40.353777 39.593237,39.911541 C 39.593237,39.008717 41.134441,38.576254 42.002158,39.235595 C 42.217248,39.399033 42.379112,39.684928 42.378601,39.900498 C 42.378162,40.08731 42.244873,40.371635 42.088683,40.518944 C 41.923851,40.674397 41.64058,40.809761 41.352216,40.870869 C 41.08603,40.927277 40.918276,40.930365 40.640373,40.883969 z"
         style="opacity:1;fill:#ff6600;fill-opacity:1;fill-rule:nonzero;stroke:none;stroke-width:0.40799999;stroke-linecap:round;stroke-linejoin:round;marker:none;marker-start:none;marker-mid:none;marker-end:none;stroke-miterlimit:4;stroke-dasharray:none;stroke-dashoffset:0;stroke-opacity:0.98983047;visibility:visible;display:inline;overflow:visible;enable-background:accumulate" />
      <path
         id="path3244"
         d="M 40.985112,38.290917 C 40.849076,38.197157 40.809894,38.130766 40.808658,37.991931 C 40.806637,37.764935 41.070244,37.597081 41.286705,37.687525 C 41.545476,37.795646 41.595623,38.035106 41.40038,38.230349 C 41.262623,38.368105 41.126016,38.388029 40.985112,38.290916 L 40.985112,38.290917 z"
         style="opacity:1;fill:#ff6600;fill-opacity:1;fill-rule:nonzero;stroke:none;stroke-width:0.40799999;stroke-linecap:round;stroke-linejoin:round;marker:none;marker-start:none;marker-mid:none;marker-end:none;stroke-miterlimit:4;stroke-dasharray:none;stroke-dashoffset:0;stroke-opacity:0.98983047;visibility:visible;display:inline;overflow:visible;enable-background:accumulate" />
      <path
         id="path3246"
         d="M 39.178376,38.497736 C 38.952312,38.395078 38.830937,38.21055 38.815266,37.945704 C 38.803823,37.752327 38.814558,37.707721 38.907244,37.563489 C 39.153455,37.180353 39.690812,37.176713 39.950994,37.556421 C 40.021758,37.659696 40.039666,37.730158 40.039666,37.90534 C 40.039666,38.18357 39.914801,38.394177 39.689091,38.496654 C 39.500801,38.582138 39.364866,38.582426 39.178376,38.497737 L 39.178376,38.497736 z"
         style="opacity:1;fill:#ff6600;fill-opacity:1;fill-rule:nonzero;stroke:none;stroke-width:0.40799999;stroke-linecap:round;stroke-linejoin:round;marker:none;marker-start:none;marker-mid:none;marker-end:none;stroke-miterlimit:4;stroke-dasharray:none;stroke-dashoffset:0;stroke-opacity:0.98983047;visibility:visible;display:inline;overflow:visible;enable-background:accumulate" />
      <path
         id="path3248"
         d="M 38.701637,39.711268 C 38.645533,39.60644 38.657037,39.402568 38.722101,39.34857 C 38.770901,39.308068 38.787012,39.311123 38.829244,39.36888 C 38.913594,39.484234 38.872258,39.780349 38.771808,39.780349 C 38.753548,39.780349 38.721969,39.749262 38.701637,39.711268 L 38.701637,39.711268 z"
         style="opacity:1;fill:#ff6600;fill-opacity:1;fill-rule:nonzero;stroke:none;stroke-width:0.40799999;stroke-linecap:round;stroke-linejoin:round;marker:none;marker-start:none;marker-mid:none;marker-end:none;stroke-miterlimit:4;stroke-dasharray:none;stroke-dashoffset:0;stroke-opacity:0.98983047;visibility:visible;display:inline;overflow:visible;enable-background:accumulate" />
      <path
         id="path3250"
         d="M 38.858191,41.207959 C 38.702912,41.160446 38.603262,41.043617 38.651605,40.965758 C 38.792826,40.738305 39.503951,40.77575 39.503951,41.010639 C 39.503951,41.165816 39.111933,41.285602 38.858191,41.207959 z"
         style="opacity:1;fill:#ff7f2a;fill-opacity:1;fill-rule:nonzero;stroke:none;stroke-width:0.40799999;stroke-linecap:round;stroke-linejoin:round;marker:none;marker-start:none;marker-mid:none;marker-end:none;stroke-miterlimit:4;stroke-dasharray:none;stroke-dashoffset:0;stroke-opacity:0.98983047;visibility:visible;display:inline;overflow:visible;enable-background:accumulate" />
      <path
         id="path3252"
         d="M 37.188037,39.773358 C 37.157337,39.517733 37.163387,38.622752 37.197166,38.423206 C 37.220001,38.288289 37.229608,38.273957 37.257016,38.33392 C 37.305219,38.439373 37.299087,39.874519 37.250226,39.923368 C 37.221451,39.952135 37.204637,39.911569 37.188037,39.773359 L 37.188037,39.773358 z"
         style="opacity:1;fill:#ff7f2a;fill-opacity:1;fill-rule:nonzero;stroke:none;stroke-width:0.40799999;stroke-linecap:round;stroke-linejoin:round;marker:none;marker-start:none;marker-mid:none;marker-end:none;stroke-miterlimit:4;stroke-dasharray:none;stroke-dashoffset:0;stroke-opacity:0.98983047;visibility:visible;display:inline;overflow:visible;enable-background:accumulate" />
      <path
         id="path3254"
         d="M 36.98343,41.77142 C 36.935408,41.594213 36.954987,40.936732 37.011283,40.836141 C 37.047101,40.772138 37.051016,40.772885 37.093233,40.851768 C 37.193873,41.039817 37.16348,41.923206 37.056366,41.923206 C 37.038869,41.923206 37.006051,41.854902 36.98343,41.77142 z"
         style="opacity:1;fill:#ff6600;fill-opacity:1;fill-rule:nonzero;stroke:none;stroke-width:0.40799999;stroke-linecap:round;stroke-linejoin:round;marker:none;marker-start:none;marker-mid:none;marker-end:none;stroke-miterlimit:4;stroke-dasharray:none;stroke-dashoffset:0;stroke-opacity:0.98983047;visibility:visible;display:inline;overflow:visible;enable-background:accumulate" />
      <path
         id="path3256"
         d="M 35.557523,43.334092 C 33.609937,43.101464 32.109033,42.5488 31.745537,41.930443 L 31.646808,41.762492 L 31.623337,40.173206 C 31.610426,39.299099 31.598373,38.22437 31.596551,37.784921 L 31.593237,36.985923 L 31.673594,37.04353 C 32.480183,37.621777 33.997062,38.071162 35.70038,38.236492 L 35.968237,38.262492 L 35.990176,39.691063 C 36.030501,42.317648 36.02673,43.387966 35.977166,43.383188 C 35.952612,43.380819 35.763773,43.358727 35.557523,43.334092 L 35.557523,43.334092 z"
         style="opacity:1;fill:#ffa500;fill-opacity:1;fill-rule:nonzero;stroke:none;stroke-width:0.40799999;stroke-linecap:round;stroke-linejoin:round;marker:none;marker-start:none;marker-mid:none;marker-end:none;stroke-miterlimit:4;stroke-dasharray:none;stroke-dashoffset:0;stroke-opacity:0.98983047;visibility:visible;display:inline;overflow:visible;enable-background:accumulate" />
      <path
         id="path3258"
         d="M 35.771808,37.719974 C 35.267887,37.666647 34.524619,37.543367 34.058933,37.435875 C 32.200216,37.006839 31.249866,36.300791 31.698137,35.681969 C 31.817855,35.5167 32.154051,35.267188 32.468237,35.110424 C 34.044416,34.323985 37.231151,34.001925 39.968237,34.352453 C 41.554937,34.555656 42.847783,34.982675 43.419766,35.492474 C 43.731669,35.770471 43.800526,35.978326 43.667251,36.239565 C 43.555155,36.459293 43.113776,36.816063 42.954033,36.816063 C 42.893498,36.816063 37.733305,35.766141 37.592894,35.725256 C 37.555541,35.714379 37.315548,36.022149 36.811669,36.727095 C 36.020366,37.834165 36.103226,37.755048 35.771808,37.719975 L 35.771808,37.719974 z"
         style="opacity:1;fill:#ffa500;fill-opacity:1;fill-rule:nonzero;stroke:none;stroke-width:0.40799999;stroke-linecap:round;stroke-linejoin:round;marker:none;marker-start:none;marker-mid:none;marker-end:none;stroke-miterlimit:4;stroke-dasharray:none;stroke-dashoffset:0;stroke-opacity:0.98983047;visibility:visible;display:inline;overflow:visible;enable-background:accumulate" />
      <path
         id="path3260"
         d="M 43.271755,41.074992 C 43.271723,40.372759 43.26208,39.235706 43.250323,38.548206 L 43.228944,37.298206 L 43.49578,37.13316 L 43.762616,36.968116 L 43.778926,39.293874 C 43.787905,40.573043 43.781937,41.624992 43.765669,41.631539 C 43.749405,41.638088 43.736094,41.692925 43.736094,41.753402 C 43.736094,41.897132 43.593098,42.137593 43.436676,42.256903 C 43.368262,42.309084 43.30318,42.351777 43.292048,42.351777 C 43.280916,42.351777 43.271783,41.777224 43.271755,41.074992 z"
         style="opacity:1;fill:#ffa500;fill-opacity:1;fill-rule:nonzero;stroke:none;stroke-width:0.40799999;stroke-linecap:round;stroke-linejoin:round;marker:none;marker-start:none;marker-mid:none;marker-end:none;stroke-miterlimit:4;stroke-dasharray:none;stroke-dashoffset:0;stroke-opacity:0.98983047;visibility:visible;display:inline;overflow:visible;enable-background:accumulate" />
      <path
         id="path3262"
         d="M 36.545391,42.097437 C 36.532419,41.68099 36.521808,40.597583 36.521808,39.689865 L 36.521808,38.039471 L 36.953537,37.436695 C 37.190987,37.105169 37.399916,36.818652 37.417823,36.799992 C 37.437469,36.779517 37.449483,37.027346 37.448116,37.424992 C 37.446798,37.808234 37.43353,38.053517 37.416398,38.011252 C 37.37093,37.899079 37.281666,37.841559 37.189108,37.86479 C 37.013312,37.908911 36.936205,38.297249 36.936405,39.137492 C 36.936594,39.921692 37.017576,40.337111 37.182612,40.400442 C 37.260208,40.430217 37.372616,40.35293 37.408562,40.245091 C 37.429376,40.182647 37.445644,40.296413 37.46213,40.619665 C 37.499458,41.351644 37.49333,41.543447 37.430123,41.621737 C 37.377755,41.686607 37.375316,41.680735 37.392248,41.530349 C 37.418301,41.298945 37.351469,40.829357 37.269662,40.668997 C 37.199191,40.530866 37.077544,40.465604 36.968523,40.50744 C 36.869833,40.545309 36.779926,40.748585 36.735476,41.034318 C 36.664344,41.491572 36.74043,41.96875 36.911794,42.140114 L 37.010273,42.238592 L 36.818294,42.51793 C 36.712705,42.671568 36.613412,42.810173 36.597644,42.825943 C 36.581873,42.841714 36.558358,42.513886 36.545391,42.097438 L 36.545391,42.097437 z"
         style="opacity:1;fill:#ffa500;fill-opacity:1;fill-rule:nonzero;stroke:none;stroke-width:0.40799999;stroke-linecap:round;stroke-linejoin:round;marker:none;marker-start:none;marker-mid:none;marker-end:none;stroke-miterlimit:4;stroke-dasharray:none;stroke-dashoffset:0;stroke-opacity:0.98983047;visibility:visible;display:inline;overflow:visible;enable-background:accumulate" />
      <path
         id="path3264"
         d="M 43.295116,41.359407 C 43.283041,40.834675 43.268837,39.70706 43.263555,38.853596 L 43.253951,37.301844 L 43.478451,37.16143 C 43.60193,37.084203 43.71443,37.032492 43.728451,37.046515 C 43.742476,37.060538 43.753951,38.103263 43.753951,39.363681 C 43.753951,41.182025 43.743991,41.689603 43.70573,41.821196 C 43.656416,41.990801 43.495248,42.218109 43.380926,42.279292 C 43.320576,42.31159 43.315862,42.261062 43.295116,41.359408 L 43.295116,41.359407 z"
         style="opacity:1;fill:#ffbf00;fill-opacity:1;fill-rule:nonzero;stroke:none;stroke-width:0.40799999;stroke-linecap:round;stroke-linejoin:round;marker:none;marker-start:none;marker-mid:none;marker-end:none;stroke-miterlimit:4;stroke-dasharray:none;stroke-dashoffset:0;stroke-opacity:0.98983047;visibility:visible;display:inline;overflow:visible;enable-background:accumulate" />
      <path
         id="path3266"
         d="M 42.057523,42.37414 L 41.396808,42.226777 L 41.736094,42.203771 C 42.325601,42.1638 42.683055,41.965434 42.675041,41.682711 C 42.670294,41.515229 42.54043,41.391924 42.248994,41.278188 C 42.070516,41.208535 41.971241,41.1962 41.57538,41.194492 C 41.038255,41.192173 40.774283,41.253357 40.578048,41.425654 C 40.365676,41.612119 40.384687,41.851535 40.624408,42.009544 C 40.698833,42.058598 40.703466,42.068463 40.646808,42.057238 C 40.607523,42.049455 39.995348,41.917056 39.286419,41.76302 L 37.997458,41.482955 L 37.975944,38.927245 C 37.964112,37.521604 37.960587,36.36538 37.968108,36.357857 C 37.979808,36.346156 42.469837,37.254285 42.634133,37.301583 C 42.684366,37.316046 42.695994,37.402464 42.714341,37.897637 C 42.742219,38.650208 42.761091,42.53169 42.736844,42.525927 C 42.726608,42.523495 42.420916,42.45519 42.057523,42.374141 L 42.057523,42.37414 z M 39.401641,41.414149 C 39.667451,41.297833 39.808748,41.104365 39.749687,40.937585 C 39.607616,40.536403 38.853201,40.440599 38.495455,40.778307 C 38.302344,40.9606 38.380648,41.237683 38.664666,41.377091 C 38.85023,41.468173 39.234069,41.487474 39.401637,41.414149 L 39.401641,41.414149 z M 41.498798,41.080914 C 42.51453,40.819027 42.928455,39.881155 42.323723,39.211789 C 42.194548,39.068807 42.193723,39.066063 42.279976,39.066063 C 42.442487,39.066063 42.53698,38.901606 42.588316,38.529391 C 42.676076,37.893082 42.466223,37.327255 42.182808,37.436012 C 41.948708,37.525842 41.843094,38.325074 42.003712,38.791265 C 42.031569,38.87212 42.050433,38.9422 42.045633,38.946998 C 42.040837,38.951796 41.954941,38.916493 41.854758,38.868547 C 40.985669,38.452617 39.831005,38.745439 39.459151,39.47607 C 39.332933,39.724064 39.32988,40.079641 39.451783,40.33392 C 39.613698,40.671663 39.999566,40.958577 40.45773,41.081898 C 40.714326,41.150965 41.228991,41.150477 41.498798,41.080913 L 41.498798,41.080914 z M 38.960608,39.922824 C 39.127316,39.791694 39.151844,39.411766 39.007801,39.191926 C 38.926976,39.068574 38.723012,39.035219 38.602001,39.125565 C 38.304751,39.347495 38.416676,39.994634 38.752308,39.994634 C 38.816666,39.994634 38.910398,39.96232 38.960608,39.922825 L 38.960608,39.922824 z M 39.789666,38.712497 C 40.319798,38.466526 40.451155,37.732737 40.045287,37.28455 C 39.923808,37.150402 39.635301,37.031047 39.432523,37.031047 C 39.204891,37.031047 38.933826,37.154849 38.78143,37.32842 C 38.637612,37.492217 38.541583,37.806324 38.570601,38.01803 C 38.611394,38.315645 38.82883,38.609144 39.093237,38.723494 C 39.268687,38.79937 39.614187,38.793915 39.789666,38.712497 L 39.789666,38.712497 z M 41.439241,38.506909 C 41.507801,38.474375 41.605733,38.38454 41.656862,38.307274 C 41.991973,37.800893 41.389733,37.2008 40.858733,37.511987 C 40.694226,37.608394 40.557523,37.834166 40.557523,38.009442 C 40.557523,38.165942 40.664123,38.350936 40.818919,38.463071 C 40.986958,38.584798 41.237751,38.602522 41.439241,38.50691 L 41.439241,38.506909 z"
         style="opacity:1;fill:#ffa500;fill-opacity:1;fill-rule:nonzero;stroke:none;stroke-width:0.40799999;stroke-linecap:round;stroke-linejoin:round;marker:none;marker-start:none;marker-mid:none;marker-end:none;stroke-miterlimit:4;stroke-dasharray:none;stroke-dashoffset:0;stroke-opacity:0.98983047;visibility:visible;display:inline;overflow:visible;enable-background:accumulate" />
      <path
         id="path3268"
         d="M 36.580166,42.435206 C 36.568494,42.241998 36.548723,41.180942 36.536226,40.077303 L 36.513505,38.070687 L 36.955155,37.460533 L 37.396808,36.850382 L 37.414666,37.127865 C 37.429573,37.359514 37.403433,38.067119 37.384866,37.934541 C 37.376826,37.877142 37.252751,37.841677 37.161405,37.870669 C 37.120326,37.883707 37.06443,37.947715 37.037191,38.01291 C 36.958726,38.200695 36.904637,38.92649 36.931276,39.434034 C 36.973458,40.237658 37.122158,40.572855 37.339891,40.355124 C 37.406855,40.288159 37.408308,40.288889 37.428441,40.399767 C 37.457062,40.557396 37.464291,41.528344 37.437044,41.555591 C 37.424733,41.567898 37.414666,41.504382 37.414666,41.414443 C 37.414666,41.179633 37.321951,40.728429 37.251658,40.621149 C 37.186426,40.521592 37.066223,40.475724 36.959398,40.509629 C 36.804537,40.558781 36.67993,41.047329 36.710512,41.485479 C 36.734444,41.828367 36.78378,41.996653 36.901333,42.136357 L 36.992401,42.244582 L 36.823105,42.48568 C 36.729994,42.618284 36.642016,42.740213 36.627598,42.756634 C 36.613173,42.773054 36.591833,42.628412 36.580166,42.435205 L 36.580166,42.435206 z"
         style="opacity:1;fill:#ffbf00;fill-opacity:1;fill-rule:nonzero;stroke:none;stroke-width:0.40799999;stroke-linecap:round;stroke-linejoin:round;marker:none;marker-start:none;marker-mid:none;marker-end:none;stroke-miterlimit:4;stroke-dasharray:none;stroke-dashoffset:0;stroke-opacity:0.98983047;visibility:visible;display:inline;overflow:visible;enable-background:accumulate" />
      <path
         id="path3270"
         d="M 35.164666,37.621032 C 33.691194,37.3917 32.761566,37.099652 32.095448,36.656818 C 31.818973,36.473019 31.69138,36.324224 31.627551,36.111182 C 31.58743,35.977274 31.591216,35.947848 31.668655,35.79168 C 31.966801,35.190433 33.398751,34.632595 35.271808,34.388019 C 37.307141,34.122255 39.757851,34.222788 41.432523,34.640745 C 42.522662,34.912818 43.443608,35.387406 43.647848,35.782358 C 43.708512,35.899667 43.715433,36.057537 43.665655,36.188464 C 43.612516,36.328224 43.346798,36.598298 43.154212,36.708288 L 42.981587,36.806878 L 40.635626,36.331874 C 39.345348,36.070622 38.128951,35.822799 37.932523,35.781159 L 37.57538,35.705448 L 37.468237,35.827928 C 37.409308,35.895292 37.153176,36.237591 36.899055,36.588593 C 36.644937,36.939594 36.350941,37.335259 36.24573,37.467849 L 36.054444,37.70892 L 35.868483,37.705275 C 35.766205,37.703271 35.449487,37.665361 35.164666,37.621031 L 35.164666,37.621032 z"
         style="opacity:1;fill:#ffbf00;fill-opacity:1;fill-rule:nonzero;stroke:none;stroke-width:0.40799999;stroke-linecap:round;stroke-linejoin:round;marker:none;marker-start:none;marker-mid:none;marker-end:none;stroke-miterlimit:4;stroke-dasharray:none;stroke-dashoffset:0;stroke-opacity:0.98983047;visibility:visible;display:inline;overflow:visible;enable-background:accumulate" />
    </g>
  </g>
</svg>
