<?xml version="1.0" encoding="UTF-8" standalone="no"?><!DOCTYPE svg PUBLIC "-//W3C//DTD SVG 1.1//EN" "http://www.w3.org/Graphics/SVG/1.1/DTD/svg11.dtd"><svg width="100%" height="100%" viewBox="0 0 64 64" version="1.1" xmlns="http://www.w3.org/2000/svg" xmlns:xlink="http://www.w3.org/1999/xlink" xml:space="preserve" xmlns:serif="http://www.serif.com/" style="fill-rule:evenodd;clip-rule:evenodd;"><g id="Layer-1" serif:id="Layer 1"><path id="path2513" d="M31.653,38.826c-0.098,7.193 -0.196,12.633 -0.293,18.95l-0,0.786" style="fill:none;stroke:#000;stroke-width:1.4px;"/><path id="path2477" d="M7.883,29.595c-2.313,-2.552 -3.526,-5.416 -3.526,-8.326c0,-9.491 12.897,-17.301 28.569,-17.301c15.672,0 28.569,7.81 28.569,17.301c-0,9.491 -12.897,17.3 -28.569,17.3c-0.417,0 -0.835,-0.005 -1.252,-0.016l1.252,-17.284l-25.043,8.326Z" style="fill:none;stroke:#000;stroke-width:1.43px;"/><path id="path2491" d="M61.507,21.03c0.031,5.962 -0.536,20.702 -0.536,20.702" style="fill:none;stroke:#000;stroke-width:1.33px;"/><path id="path2511" d="M4.336,21.864c-0.71,24.475 -0.355,24.475 -0.355,24.475" style="fill:none;stroke:#000;stroke-width:1.37px;"/><path id="path2515" d="M31.931,34.403c-23.887,17.162 -24.214,17.43 -24.214,17.43" style="fill:none;stroke:#000;stroke-width:1.39px;"/><path id="path2517" d="M8.174,29.068c-0.314,22.233 -0.47,22.48 -0.47,22.48" style="fill:none;stroke:#000;stroke-width:1.37px;"/><path id="path2519" d="M3.938,44.878c-0.576,1.068 0.55,2.079 0.784,2.965c0.163,0.615 0.976,1.191 1.413,1.976c0.454,0.817 0.816,1.125 1.255,1.729c0.252,0.348 0.201,0.106 0.47,0.247" style="fill:none;stroke:#000;stroke-width:1.37px;"/><path id="path3297" d="M60.978,41.438c-1.156,6.569 -10.175,13.419 -20.625,15.663c-3.158,0.678 -6.255,0.894 -9.041,0.631" style="fill:none;stroke:#000;stroke-width:1.56px;"/><path id="path3299" d="M14.946,36.711l-0,0.002c-0,1.341 -0.651,2.445 -1.443,2.445c-0.791,0 -1.442,-1.104 -1.442,-2.445l0,-0.002c0,-1.342 0.651,-2.446 1.442,-2.446c0.792,0 1.443,1.104 1.443,2.446Z" style="fill:none;stroke:#000;stroke-width:0.48px;"/><path id="path3301" d="M25.374,32.781l0,0.001c0,0.719 -1.427,1.31 -3.161,1.31c-1.735,-0 -3.162,-0.591 -3.162,-1.31l-0,-0.001c-0,-0.719 1.427,-1.31 3.162,-1.31c1.734,-0 3.161,0.591 3.161,1.31Z" style="fill:none;stroke:#000;stroke-width:0.48px;"/><path id="path3303" d="M30.7,29.287l-0,0.002c-0,1.773 -0.701,3.232 -1.553,3.232c-0.853,-0 -1.554,-1.459 -1.554,-3.232l0,-0.002c0,-1.773 0.701,-3.232 1.554,-3.232c0.852,-0 1.553,1.459 1.553,3.232Z" style="fill:none;stroke:#000;stroke-width:0.48px;"/><path id="path3305" d="M20.049,39.419l0,0.001c0,1.006 -0.576,1.834 -1.276,1.834c-0.7,0 -1.276,-0.828 -1.276,-1.834l0,-0.001c0,-1.007 0.576,-1.835 1.276,-1.835c0.7,0 1.276,0.828 1.276,1.835Z" style="fill:none;stroke:#000;stroke-width:0.48px;"/><path id="path3307" d="M13.06,44.223c-0,0.863 -0.351,1.572 -0.777,1.572c-0.426,0 -0.777,-0.709 -0.777,-1.572c0,-0.862 0.351,-1.572 0.777,-1.572c0.426,0 0.777,0.71 0.777,1.572Z" style="fill:none;stroke:#000;stroke-width:0.48px;"/><path id="path3309" d="M11.284,33.568c0,1.054 -0.35,1.921 -0.776,1.921c-0.426,0 -0.777,-0.867 -0.777,-1.921c0,-1.055 0.351,-1.922 0.777,-1.922c0.426,0 0.776,0.867 0.776,1.922Z" style="fill:none;stroke:#000;stroke-width:0.48px;"/><path id="path3311" d="M17.608,32.606l0,0.002c0,1.293 -0.701,2.358 -1.553,2.358c-0.852,-0 -1.553,-1.065 -1.553,-2.358l-0,-0.002c-0,-1.294 0.701,-2.358 1.553,-2.358c0.852,-0 1.553,1.064 1.553,2.358Z" style="fill:none;stroke:#000;stroke-width:0.48px;"/><path id="path3313" d="M26.04,27.89l0,0.001c0,0.719 -0.776,1.31 -1.72,1.31c-0.943,-0 -1.719,-0.591 -1.719,-1.31l-0,-0.001c-0,-0.719 0.776,-1.31 1.719,-1.31c0.944,-0 1.72,0.591 1.72,1.31Z" style="fill:none;stroke:#000;stroke-width:0.48px;"/><path id="path3315" d="M24.487,37.672l-0,0.001c-0,0.527 -0.626,0.961 -1.387,0.961c-0.761,-0 -1.387,-0.434 -1.387,-0.961l0,-0.001c0,-0.527 0.626,-0.96 1.387,-0.96c0.761,-0 1.387,0.433 1.387,0.96Z" style="fill:none;stroke:#000;stroke-width:0.48px;"/><path id="path3317" d="M27.593,34.965l0,0c0,0.671 -0.325,1.223 -0.721,1.223c-0.395,0 -0.721,-0.552 -0.721,-1.223l0,-0c0,-0.671 0.326,-1.223 0.721,-1.223c0.396,-0 0.721,0.552 0.721,1.223Z" style="fill:none;stroke:#000;stroke-width:0.48px;"/><path id="path3319" d="M16.499,42.738c-0,0.623 -0.351,1.136 -0.777,1.136c-0.426,-0 -0.776,-0.513 -0.776,-1.136c-0,-0.623 0.35,-1.135 0.776,-1.135c0.426,-0 0.777,0.512 0.777,1.135Z" style="fill:none;stroke:#000;stroke-width:0.48px;"/><path id="path3321" d="M11.728,41.254c0,1.054 -0.45,1.921 -0.998,1.921c-0.548,0 -0.999,-0.867 -0.999,-1.921c0,-1.055 0.451,-1.922 0.999,-1.922c0.548,0 0.998,0.867 0.998,1.922Z" style="fill:#fc0;stroke:#000;stroke-width:0.48px;"/><path id="path3323" d="M32.386,37.063c0.022,-0.312 0.304,-4.223 0.628,-8.69c0.324,-4.468 0.572,-8.154 0.551,-8.192c-0.022,-0.038 -5.745,1.829 -12.72,4.149c-6.974,2.32 -12.741,4.218 -12.815,4.218c-0.074,-0 -0.605,-0.727 -1.181,-1.616c-0.842,-1.299 -1.125,-1.872 -1.444,-2.921c-0.349,-1.15 -0.396,-1.467 -0.396,-2.658c-0,-2.824 1.075,-5.269 3.438,-7.818c3.722,-4.013 9.817,-6.799 17.863,-8.164c2.611,-0.443 10.553,-0.444 13.203,-0.001c6.909,1.155 11.72,3.064 15.809,6.273c3.259,2.558 5.306,5.85 5.55,8.928c0.312,3.929 -2.213,8.116 -6.806,11.285c-4.93,3.402 -13.169,5.754 -20.217,5.771l-1.503,0.004l0.04,-0.568Z" style="fill:#fc0;fill-opacity:0.96;fill-rule:nonzero;stroke:#d9d9d9;stroke-opacity:0.96;stroke-width:0.04px;"/><path id="path3325" d="M32.005,54.555c0.039,-1.286 0.104,-5.151 0.145,-8.589c0.04,-3.438 0.115,-6.291 0.165,-6.34c0.051,-0.049 1.5,-0.164 3.22,-0.255c11.124,-0.59 20.508,-4.934 24.491,-11.338l0.821,-1.32l-0.081,3.319c-0.045,1.826 -0.144,5.102 -0.221,7.28c-0.173,4.893 -0.237,5.165 -1.774,7.581c-1.978,3.109 -5.234,5.849 -9.606,8.083c-4.734,2.419 -9.382,3.652 -14.412,3.821l-2.818,0.095l0.07,-2.337Z" style="fill:#fc0;fill-opacity:0.96;fill-rule:nonzero;stroke:#d9d9d9;stroke-opacity:0.96;stroke-width:0.04px;"/><path id="path3327" d="M6.2,48.662c-1.249,-1.716 -1.584,-2.456 -1.673,-3.694c-0.068,-0.951 0.091,-11.909 0.239,-16.381l0.077,-2.319l0.472,0.954c0.26,0.525 0.875,1.45 1.367,2.057l0.894,1.103l-0.064,3.319c-0.035,1.825 -0.119,6.227 -0.187,9.782c-0.067,3.555 -0.129,6.475 -0.138,6.49c-0.008,0.014 -0.452,-0.576 -0.987,-1.311l0,0Z" style="fill:#fc0;fill-opacity:0.96;fill-rule:nonzero;stroke:#d9d9d9;stroke-opacity:0.96;stroke-width:0.04px;"/><path id="path3331" d="M8.368,49.493c0.036,-0.423 0.124,-4.385 0.194,-8.805c0.071,-4.419 0.162,-8.58 0.202,-9.245l0.073,-1.211l11.649,-3.871c11.215,-3.727 11.65,-3.858 11.679,-3.506c0.032,0.385 -0.707,10.747 -0.774,10.852c-0.068,0.108 -22.658,16.362 -22.877,16.461c-0.192,0.086 -0.206,0.023 -0.146,-0.675Zm4.545,-3.779c0.252,-0.357 0.423,-1.352 0.342,-1.987c-0.035,-0.276 -0.193,-0.705 -0.352,-0.955c-0.229,-0.361 -0.372,-0.441 -0.703,-0.391c-0.396,0.059 -0.412,0.042 -0.34,-0.379c0.183,-1.076 -0.041,-2.232 -0.521,-2.678c-0.515,-0.479 -0.972,-0.382 -1.404,0.299c-0.335,0.527 -0.377,0.698 -0.377,1.528c0,0.613 0.074,1.124 0.213,1.484c0.263,0.68 0.841,1.026 1.276,0.766c0.165,-0.099 0.309,-0.18 0.321,-0.18c0.011,-0 0.003,0.395 -0.018,0.878c-0.076,1.716 0.831,2.653 1.563,1.615Zm3.295,-1.702c0.338,-0.275 0.594,-1.135 0.484,-1.626c-0.149,-0.667 -0.51,-1.087 -0.935,-1.087c-0.466,0 -0.954,0.553 -1.001,1.136c-0.06,0.723 0.129,1.328 0.491,1.576c0.458,0.313 0.577,0.314 0.961,0.001l-0,0Zm3.416,-2.815c0.384,-0.39 0.615,-1.066 0.615,-1.805c-0,-2.098 -1.888,-2.912 -2.71,-1.168c-0.34,0.719 -0.304,1.815 0.081,2.537c0.467,0.874 1.386,1.073 2.014,0.436Zm-5.449,-1.928c0.209,-0.156 0.482,-0.51 0.607,-0.787c0.556,-1.228 0.515,-2.562 -0.113,-3.675c-0.365,-0.648 -0.469,-0.73 -1.012,-0.799c-0.501,-0.063 -0.67,-0.006 -0.987,0.333c-1.142,1.222 -1.054,4.018 0.152,4.881c0.56,0.4 0.866,0.411 1.353,0.047l0,0Zm9.738,-0.473c0.575,-0.273 0.917,-0.974 0.735,-1.507c-0.426,-1.255 -2.82,-1.152 -3.122,0.134c-0.066,0.279 -0.025,0.491 0.156,0.809c0.414,0.726 1.378,0.97 2.231,0.564l0,0Zm3.389,-2.47c0.868,-0.706 0.529,-2.887 -0.448,-2.887c-0.527,-0 -0.877,0.624 -0.877,1.562c0,0.683 0.141,1.071 0.5,1.38c0.299,0.258 0.454,0.248 0.825,-0.055l0,0Zm-16.482,-0.608c0.502,-0.301 0.803,-1.729 0.609,-2.891c-0.399,-2.396 -1.901,-1.747 -1.888,0.817c0.006,1.224 0.358,2.069 0.925,2.22c0.042,0.011 0.201,-0.055 0.354,-0.146Zm6.069,-0.764c0.628,-0.522 0.923,-1.311 0.912,-2.437c-0.014,-1.494 -0.749,-2.572 -1.753,-2.572c-1.828,0 -2.428,3.782 -0.802,5.05c0.606,0.472 1.04,0.461 1.643,-0.041l-0,0Zm6.584,-0.649c1.484,-0.267 2.307,-0.981 2.102,-1.821c-0.432,-1.772 -6.432,-1.716 -6.727,0.063c-0.136,0.818 0.596,1.464 1.971,1.74c1.092,0.219 1.525,0.222 2.654,0.018l-0,0Zm6.131,-1.577c1.531,-0.913 1.773,-5.097 0.379,-6.575c-0.5,-0.53 -1.185,-0.533 -1.68,-0.007c-1.327,1.407 -1.149,5.521 0.282,6.522c0.41,0.287 0.618,0.3 1.019,0.06Zm-3.965,-3.628c0.217,-0.176 0.462,-0.538 0.545,-0.806c0.134,-0.431 0.126,-0.536 -0.066,-0.945c-0.308,-0.656 -0.758,-0.956 -1.559,-1.04c-1.247,-0.132 -2.16,0.567 -2.16,1.652c0,0.596 0.462,1.215 1.082,1.45c0.608,0.23 1.682,0.075 2.158,-0.311Z" style="fill:#ffeb97;fill-opacity:0.96;fill-rule:nonzero;stroke:#d9d9d9;stroke-opacity:0.96;stroke-width:0.04px;"/><path id="path3333" d="M10.476,42.681c-0.506,-0.295 -0.644,-1.695 -0.245,-2.493c0.461,-0.923 1.213,-0.277 1.213,1.04c-0,1.134 -0.424,1.77 -0.968,1.453Z" style="fill:#ffb100;fill-opacity:0.96;fill-rule:nonzero;stroke:#d9d9d9;stroke-opacity:0.96;stroke-width:0.04px;"/><path id="path3337" d="M15.543,34.39c-0.795,-0.529 -1.033,-2.138 -0.452,-3.052c0.865,-1.362 2.233,-0.556 2.233,1.315c-0,0.615 -0.065,0.861 -0.342,1.296c-0.187,0.296 -0.4,0.539 -0.471,0.54c-0.072,0.002 -0.23,0.039 -0.352,0.083c-0.122,0.044 -0.399,-0.038 -0.616,-0.182l0,0Z" style="fill:#ffb100;fill-opacity:0.96;fill-rule:nonzero;stroke:#d9d9d9;stroke-opacity:0.96;stroke-width:0.04px;"/><path id="path3339" d="M13.084,38.653c-0.409,-0.235 -0.753,-1.165 -0.753,-2.034c0,-1.003 0.567,-1.957 1.162,-1.957c0.61,-0 1.168,0.913 1.168,1.912c0,0.979 -0.268,1.731 -0.725,2.032c-0.429,0.282 -0.442,0.283 -0.852,0.047l0,0Z" style="fill:#ffb100;fill-opacity:0.96;fill-rule:nonzero;stroke:#d9d9d9;stroke-opacity:0.96;stroke-width:0.04px;"/><path id="path3341" d="M10.174,34.623c-0.344,-0.775 -0.116,-2.582 0.327,-2.582c0.409,0 0.64,1.491 0.391,2.522c-0.135,0.558 -0.483,0.587 -0.718,0.06l0,-0Z" style="fill:#ffb100;fill-opacity:0.96;fill-rule:nonzero;stroke:#d9d9d9;stroke-opacity:0.96;stroke-width:0.04px;"/><path id="path3343" d="M28.584,31.88c-0.498,-0.528 -0.764,-1.436 -0.761,-2.599c0.001,-0.36 0.03,-0.812 0.064,-1.004c0.099,-0.56 0.406,-1.282 0.666,-1.569c0.207,-0.228 0.291,-0.265 0.592,-0.265c0.301,-0 0.385,0.037 0.59,0.264c0.473,0.524 0.736,1.445 0.736,2.574c0,1.16 -0.268,2.072 -0.766,2.599c-0.218,0.231 -0.322,0.284 -0.56,0.284c-0.238,-0 -0.343,-0.053 -0.561,-0.284Z" style="fill:#ffb100;fill-opacity:0.96;fill-rule:nonzero;stroke:#d9d9d9;stroke-opacity:0.96;stroke-width:0.02px;"/><path id="path3345" d="M23.611,28.755c-0.318,-0.126 -0.639,-0.411 -0.742,-0.659c-0.088,-0.21 -0.087,-0.235 0.018,-0.457c0.061,-0.13 0.258,-0.333 0.438,-0.452c0.288,-0.19 0.41,-0.217 0.994,-0.217c0.583,0 0.706,0.027 0.993,0.217c0.18,0.119 0.378,0.322 0.439,0.452c0.106,0.225 0.106,0.244 0.014,0.466c-0.053,0.128 -0.238,0.334 -0.411,0.459c-0.268,0.193 -0.404,0.23 -0.924,0.25c-0.336,0.013 -0.704,-0.014 -0.819,-0.059Z" style="fill:#ffb100;fill-opacity:0.96;fill-rule:nonzero;stroke:#d9d9d9;stroke-opacity:0.96;stroke-width:0.02px;"/><path id="path3347" d="M21.103,34.257c-1.392,-0.251 -2.193,-0.79 -2.193,-1.478c0,-0.534 0.433,-0.948 1.297,-1.243c0.649,-0.221 2.644,-0.319 3.391,-0.166c1.042,0.214 1.813,0.701 1.892,1.195c0.116,0.726 -0.406,1.232 -1.615,1.566c-0.599,0.166 -2.157,0.237 -2.772,0.126Zm2.904,-0.648c0.584,-0.184 1.015,-0.435 1.15,-0.67c0.102,-0.177 0.102,-0.184 -0.023,-0.342c-0.182,-0.233 -0.648,-0.489 -1.212,-0.667c-0.381,-0.12 -0.764,-0.155 -1.711,-0.155c-0.947,0 -1.331,0.035 -1.711,0.155c-0.565,0.178 -1.03,0.434 -1.213,0.667c-0.124,0.158 -0.124,0.165 -0.022,0.342c0.181,0.316 0.922,0.655 1.809,0.829c0.474,0.092 2.481,-0.016 2.933,-0.159Z" style="fill:#ffb100;fill-opacity:0.96;fill-rule:nonzero;stroke:#d9d9d9;stroke-opacity:0.96;stroke-width:0.02px;"/><path id="path3349" d="M26.538,35.607c-0.245,-0.417 -0.231,-0.949 0.034,-1.339c0.268,-0.392 0.71,-0.111 0.797,0.508c0.111,0.797 -0.494,1.403 -0.831,0.831Z" style="fill:#ffb100;fill-opacity:0.96;fill-rule:nonzero;stroke:#d9d9d9;stroke-opacity:0.96;stroke-width:0.02px;"/><path id="path3351" d="M22.325,38.101c-0.151,-0.093 -0.309,-0.224 -0.352,-0.292c-0.068,-0.107 -0.064,-0.149 0.035,-0.304c0.171,-0.27 0.535,-0.405 1.09,-0.405c0.538,0 0.885,0.122 1.089,0.383c0.109,0.138 0.117,0.184 0.056,0.301c-0.25,0.472 -1.365,0.657 -1.918,0.317Z" style="fill:#ffb100;fill-opacity:0.96;fill-rule:nonzero;stroke:#d9d9d9;stroke-opacity:0.96;stroke-width:0.02px;"/><path id="path3353" d="M18.258,40.718c-0.945,-0.756 -0.571,-2.79 0.514,-2.79c1.005,0 1.442,1.837 0.636,2.676c-0.322,0.335 -0.813,0.384 -1.15,0.114Z" style="fill:#ffb100;fill-opacity:0.96;fill-rule:nonzero;stroke:#d9d9d9;stroke-opacity:0.96;stroke-width:0.02px;"/><path id="path3357" d="M15.409,43.387c-0.33,-0.282 -0.328,-0.985 0.004,-1.294c0.444,-0.413 1.018,0.202 0.836,0.897c-0.13,0.491 -0.516,0.674 -0.84,0.397Z" style="fill:#ffb100;fill-opacity:0.96;fill-rule:nonzero;stroke:#d9d9d9;stroke-opacity:0.96;stroke-width:0.02px;"/><path id="path3359" d="M11.932,45.141c-0.306,-0.548 -0.277,-1.489 0.058,-1.934c0.206,-0.273 0.379,-0.27 0.591,0.012c0.333,0.44 0.356,1.371 0.05,1.922c-0.127,0.226 -0.211,0.298 -0.35,0.298c-0.138,0 -0.223,-0.072 -0.349,-0.298l0,-0Z" style="fill-opacity:0.96;fill-rule:nonzero;stroke:#d9d9d9;stroke-opacity:0.96;stroke-width:0.02px;"/><path id="path3363" d="M20.574,34.083c-1.228,-0.343 -1.731,-0.841 -1.575,-1.56c0.035,-0.162 0.155,-0.31 0.411,-0.509c0.591,-0.459 1.019,-0.558 2.634,-0.609c1.296,-0.04 1.496,-0.027 1.97,0.129c0.998,0.33 1.442,0.694 1.442,1.184c-0,0.374 -0.105,0.589 -0.402,0.823c-0.839,0.66 -3.085,0.931 -4.48,0.542Zm2.826,-0.35c0.938,-0.131 1.719,-0.5 1.805,-0.855c0.088,-0.36 -0.568,-0.796 -1.552,-1.031c-0.274,-0.065 -0.923,-0.119 -1.442,-0.119c-1.366,0 -2.534,0.332 -2.896,0.822c-0.136,0.185 -0.143,0.22 -0.07,0.36c0.124,0.237 0.607,0.541 1.09,0.687c0.238,0.072 0.484,0.148 0.545,0.169c0.224,0.075 1.904,0.053 2.52,-0.033Z" style="fill-opacity:0.96;fill-rule:nonzero;stroke:#d9d9d9;stroke-opacity:0.96;stroke-width:0.02px;"/><path id="path3365" d="M11.943,45.043c-0.289,-0.596 -0.21,-1.552 0.154,-1.87c0.19,-0.165 0.405,-0.057 0.567,0.286c0.183,0.386 0.164,1.154 -0.039,1.572c-0.125,0.259 -0.192,0.321 -0.344,0.321c-0.15,0 -0.218,-0.062 -0.338,-0.309Z" style="fill:#ffb100;fill-opacity:0.92;fill-rule:nonzero;stroke:#d9d9d9;stroke-opacity:0.96;stroke-width:0.02px;"/><path id="path3367" d="M21.074,33.681c-0.86,-0.171 -1.575,-0.499 -1.73,-0.795c-0.1,-0.188 0.096,-0.414 0.556,-0.64c1.45,-0.711 4.505,-0.484 5.145,0.382l0.145,0.197l-0.286,0.245c-0.489,0.419 -1.153,0.585 -2.471,0.619c-0.641,0.017 -1.253,0.013 -1.359,-0.008Z" style="fill:#ffb100;fill-opacity:0.92;fill-rule:nonzero;stroke:#d9d9d9;stroke-opacity:0.96;stroke-width:0.02px;"/><path id="path3369" d="M32.301,37.691c-0.005,-0.015 0.24,-3.48 0.546,-7.701c0.306,-4.221 0.558,-7.649 0.56,-7.618c0.008,0.104 -0.19,2.921 -0.753,10.707c-0.16,2.21 -0.297,4.114 -0.305,4.23c-0.008,0.116 -0.018,0.245 -0.022,0.287l-0.008,0.076l1.32,-0.014c1.521,-0.016 2.121,-0.043 3.306,-0.15c6.275,-0.564 12.853,-2.711 17.03,-5.559c1.631,-1.112 3.035,-2.376 4.138,-3.727c1.366,-1.672 2.256,-3.445 2.618,-5.216c0.129,-0.627 0.181,-1.14 0.18,-1.758c-0,-0.59 -0.039,-1.022 -0.137,-1.556c-0.089,-0.48 -0.248,-1.059 -0.427,-1.55c-0.077,-0.212 -0.082,-0.235 -0.057,-0.242c0.036,-0.009 0.046,0.012 0.165,0.374c0.733,2.224 0.643,4.459 -0.27,6.691c-0.135,0.329 -0.385,0.853 -0.563,1.18c-0.301,0.552 -0.822,1.338 -1.25,1.884c-1.112,1.419 -2.578,2.76 -4.312,3.942c-2.204,1.504 -4.833,2.753 -7.828,3.722c-3.372,1.09 -6.694,1.716 -10.228,1.927c-1.235,0.074 -3.683,0.121 -3.703,0.071Z" style="fill:#fc0;fill-opacity:0.92;fill-rule:nonzero;stroke:#d9d9d9;stroke-opacity:0.96;stroke-width:0.01px;"/><path id="path3371" d="M33.064,56.966l-0.863,-0.029l0.12,-0.018c0.066,-0.01 0.633,-0.034 1.259,-0.053c1.318,-0.04 1.875,-0.065 2.523,-0.112c4.031,-0.294 7.851,-1.3 11.679,-3.074c2.456,-1.138 4.59,-2.417 6.405,-3.839c1.855,-1.453 3.288,-2.964 4.43,-4.673c0.26,-0.389 0.786,-1.245 0.952,-1.551c0.589,-1.083 0.776,-1.904 0.895,-3.926c0.034,-0.567 0.086,-1.939 0.151,-3.935c0.032,-1.001 0.061,-1.824 0.064,-1.829c0.003,-0.005 0.009,-0.002 0.015,0.006c0.013,0.021 -0.102,3.566 -0.209,6.437l-0.03,0.801l-0.053,0.256c-0.493,2.362 -2.123,4.864 -4.699,7.211c-3.494,3.182 -8.41,5.767 -13.64,7.169c-3.092,0.829 -6.35,1.249 -8.999,1.159Z" style="fill:#fc0;fill-opacity:0.92;fill-rule:nonzero;stroke:#d9d9d9;stroke-opacity:0.96;stroke-width:0.01px;"/><path id="path3375" d="M31.992,53.546c-0.001,-0.038 0.011,-0.844 0.026,-1.792c0.077,-4.701 0.184,-11.763 0.184,-12.142l-0,-0.179l0.887,-0.001c0.636,-0.001 0.819,0.004 0.647,0.017c-0.523,0.039 -1.283,0.112 -1.351,0.129c-0.039,0.01 -0.078,0.027 -0.085,0.039c-0.022,0.035 -0.039,0.342 -0.069,1.253c-0.047,1.433 -0.064,2.37 -0.142,7.904c-0.039,2.792 -0.071,4.529 -0.084,4.697c-0.006,0.079 -0.012,0.113 -0.013,0.075Z" style="fill:#fc0;fill-opacity:0.92;fill-rule:nonzero;stroke:#d9d9d9;stroke-opacity:0.96;stroke-width:0.01px;"/><path id="path3377" d="M32.35,37.688c-0.026,-0.011 0.039,-0.019 0.169,-0.02c0.116,-0.002 0.208,0.001 0.205,0.005c-0.013,0.018 -0.334,0.031 -0.374,0.015Z" style="fill:#fc0;fill-opacity:0.92;fill-rule:nonzero;stroke:#d9d9d9;stroke-opacity:0.96;stroke-width:0.01px;"/><path id="path3379" d="M7.121,50.098c-0.195,-0.246 -0.365,-0.494 -0.524,-0.766c-0.088,-0.153 -0.158,-0.282 -0.155,-0.287c0.003,-0.005 0.116,0.141 0.251,0.324c0.256,0.349 0.491,0.651 0.506,0.651c0.017,0 0.084,-3.249 0.271,-13.034c0.057,-2.987 0.106,-5.352 0.108,-5.254c0.009,0.362 -0.119,8.188 -0.195,11.999c-0.056,2.745 -0.139,6.108 -0.16,6.44c-0.003,0.047 -0.01,0.042 -0.102,-0.073Z" style="fill:#fc0;fill-opacity:0.92;fill-rule:nonzero;stroke:#d9d9d9;stroke-opacity:0.96;stroke-width:0.01px;"/><path id="path3381" d="M7.058,49.773c-0.924,-1.213 -1.71,-2.359 -1.97,-2.869c-0.283,-0.554 -0.423,-0.997 -0.507,-1.603l-0.033,-0.234l0.001,-2.159c0,-1.188 0.008,-2.696 0.018,-3.351c0.06,-4.179 0.129,-7.797 0.193,-9.995c0.049,-1.709 0.094,-3.065 0.103,-3.12c0.009,-0.056 0.019,-0.041 0.159,0.243c0.311,0.635 0.38,0.762 0.614,1.137c0.466,0.748 0.731,1.113 1.456,2.008c0.233,0.287 0.432,0.532 0.443,0.545c0.016,0.019 -0.001,1.035 -0.102,6.367c-0.175,9.157 -0.252,12.942 -0.266,13.13c-0.003,0.032 -0.025,0.011 -0.109,-0.099Z" style="fill:#fc0;fill-opacity:0.92;fill-rule:nonzero;stroke:#d9d9d9;stroke-opacity:0.96;stroke-width:0.01px;"/><path id="path3383" d="M5.99,48.466c-0.047,-0.059 -0.19,-0.228 -0.318,-0.375c-0.314,-0.362 -0.42,-0.52 -0.488,-0.724c-0.101,-0.305 -0.176,-0.461 -0.537,-1.122l-0.155,-0.283l-0.01,-0.147c-0.029,-0.423 -0.043,-1.864 -0.035,-3.486c0.018,-3.381 0.106,-8.064 0.271,-14.325c0.027,-1.034 0.049,-1.91 0.049,-1.947c0,-0.066 0.001,-0.065 0.05,0.048c0.053,0.124 0.062,0.162 0.028,0.118c-0.016,-0.02 -0.021,-0.021 -0.021,-0.002c-0,0.014 -0.016,0.498 -0.036,1.076c-0.112,3.343 -0.186,6.798 -0.264,12.26c-0.009,0.655 -0.017,2.153 -0.018,3.328c-0,1.996 0.001,2.152 0.026,2.36c0.054,0.458 0.178,0.942 0.335,1.306c0.172,0.397 0.535,1.017 0.914,1.558c0.308,0.44 0.323,0.463 0.308,0.463c-0.008,-0 -0.052,-0.048 -0.099,-0.106Z" style="fill:#fc0;fill-opacity:0.92;fill-rule:nonzero;stroke:#d9d9d9;stroke-opacity:0.96;stroke-width:0.01px;"/><path id="path3385" d="M7.171,50.139c-0.148,-0.159 -0.671,-0.942 -0.63,-0.942c0.006,-0 0.106,0.128 0.224,0.284c0.289,0.384 0.413,0.539 0.43,0.539c0.024,0 0.043,-0.826 0.181,-7.836c0.12,-6.161 0.129,-6.566 0.132,-6.222c0.001,0.135 -0.03,2.013 -0.069,4.174c-0.088,4.913 -0.195,9.667 -0.223,9.946l-0.01,0.095l-0.035,-0.038Z" style="fill:#fc0;fill-opacity:0.92;fill-rule:nonzero;stroke:#d9d9d9;stroke-opacity:0.96;stroke-width:0.01px;"/><path id="path3389" d="M7.826,28.457c-1.133,-1.343 -1.949,-2.75 -2.423,-4.181c-0.357,-1.073 -0.511,-2.068 -0.49,-3.16c0.03,-1.627 0.463,-3.16 1.35,-4.783c0.094,-0.172 0.127,-0.217 0.156,-0.217c0.035,-0 0.034,0.004 -0.035,0.117c-0.197,0.323 -0.486,0.911 -0.666,1.355c-0.403,0.993 -0.626,1.962 -0.704,3.068c-0.034,0.483 -0.024,1.474 0.019,1.851c0.052,0.457 0.162,0.907 0.414,1.691c0.303,0.944 0.516,1.375 1.249,2.526c0.596,0.936 1.15,1.721 1.289,1.824c0.043,0.032 0.073,0.025 0.601,-0.143c0.934,-0.296 3.349,-1.092 9.33,-3.073c9.4,-3.114 9.487,-3.142 9.515,-3.134c0.011,0.004 -4.344,1.457 -9.678,3.23c-5.334,1.773 -9.709,3.228 -9.722,3.234c-0.014,0.007 -0.094,-0.074 -0.205,-0.205Z" style="fill:#fc0;fill-opacity:0.92;fill-rule:nonzero;stroke:#d9d9d9;stroke-opacity:0.96;stroke-width:0.01px;"/><path id="path3393" d="M6.493,15.935c0.111,-0.192 0.451,-0.707 0.649,-0.981c1.316,-1.815 3.189,-3.499 5.486,-4.932c4.119,-2.569 9.531,-4.304 15.355,-4.925c1.182,-0.126 3.019,-0.246 3.761,-0.246l0.283,0l-0,0.149l-0.18,0.015c-0.1,0.008 -0.397,0.014 -0.661,0.014c-1.064,0.001 -2.91,0.09 -3.924,0.19c-0.517,0.051 -0.901,0.11 -1.753,0.267c-7.036,1.299 -12.481,3.69 -16.133,7.085c-1.057,0.983 -2.008,2.108 -2.72,3.216c-0.127,0.199 -0.222,0.329 -0.238,0.329c-0.022,-0 -0.004,-0.042 0.075,-0.181Z" style="fill:#fc0;fill-opacity:0.92;fill-rule:nonzero;stroke:#d9d9d9;stroke-opacity:0.96;stroke-width:0.01px;"/><path id="path3395" d="M58.684,15.067c-0.971,-1.35 -2.241,-2.618 -3.79,-3.783c-3.867,-2.909 -8.409,-4.707 -14.725,-5.83c-0.973,-0.173 -1.463,-0.234 -2.425,-0.301c-1.221,-0.086 -2.227,-0.119 -4.182,-0.138l-1.53,-0.015l-0,-0.144l0.292,-0.016c0.598,-0.034 2.572,0.024 3.829,0.112c8.843,0.621 16.629,3.672 21.088,8.265c0.547,0.563 1.061,1.171 1.481,1.75c0.13,0.178 0.145,0.207 0.145,0.273c0,0.041 -0.001,0.074 -0.003,0.073c-0.002,-0 -0.083,-0.111 -0.18,-0.246Z" style="fill:#fc0;fill-opacity:0.92;fill-rule:nonzero;stroke:#d9d9d9;stroke-opacity:0.96;stroke-width:0.01px;"/><path id="path3397" d="M60.147,17.635c-0.295,-0.696 -0.632,-1.327 -1.049,-1.964c-0.218,-0.332 -0.233,-0.359 -0.228,-0.428c0.004,-0.073 0.008,-0.068 0.323,0.427c0.463,0.727 0.771,1.316 1.031,1.971c0.034,0.085 0.071,0.178 0.082,0.206c0.019,0.047 0.019,0.05 -0.014,0.05c-0.028,-0 -0.054,-0.047 -0.145,-0.262Z" style="fill:#fc0;fill-opacity:0.92;fill-rule:nonzero;stroke:#d9d9d9;stroke-opacity:0.96;stroke-width:0.01px;"/><path id="path3399" d="M15.808,34.638c-0.514,-0.146 -0.931,-0.734 -1.074,-1.511c-0.027,-0.147 -0.031,-0.222 -0.031,-0.538c0.001,-0.351 0.003,-0.376 0.046,-0.578c0.156,-0.737 0.539,-1.261 1.042,-1.428c0.127,-0.042 0.416,-0.038 0.554,0.009c0.68,0.23 1.143,1.202 1.065,2.233c-0.035,0.457 -0.148,0.835 -0.353,1.175c-0.167,0.276 -0.369,0.466 -0.623,0.586c-0.101,0.048 -0.154,0.058 -0.339,0.064c-0.12,0.004 -0.25,-0.001 -0.287,-0.012Zm0.45,-0.067c0.084,-0.025 0.177,-0.045 0.206,-0.045c0.108,0 0.299,-0.204 0.531,-0.567c0.272,-0.426 0.344,-0.697 0.344,-1.29c0,-0.571 -0.123,-1.073 -0.353,-1.44c-0.124,-0.196 -0.235,-0.319 -0.379,-0.418c-0.492,-0.34 -1.058,-0.175 -1.468,0.429c-0.245,0.36 -0.359,0.727 -0.382,1.226c-0.036,0.822 0.292,1.627 0.797,1.952c0.072,0.047 0.187,0.105 0.255,0.129c0.218,0.078 0.253,0.08 0.449,0.024Z" style="fill:#fc0;fill-opacity:0.92;fill-rule:nonzero;stroke:#d9d9d9;stroke-opacity:0.96;stroke-width:0.01px;"/><path id="path3401" d="M20.62,33.678c-0,-0.011 0.013,-0.02 0.03,-0.02c0.017,-0 0.026,0.007 0.021,0.015c-0.015,0.025 -0.051,0.028 -0.051,0.005Z" style="fill:#fc0;fill-opacity:0.92;fill-rule:nonzero;stroke:#d9d9d9;stroke-opacity:0.96;stroke-width:0.01px;"/><path id="path3405" d="M21.817,33.82c0.041,-0.005 0.111,-0.005 0.156,-0c0.045,0.004 0.012,0.008 -0.074,0.008c-0.085,-0 -0.122,-0.004 -0.082,-0.008Z" style="fill:#ffb100;fill-opacity:0.92;fill-rule:nonzero;stroke:#d9d9d9;stroke-opacity:0.96;stroke-width:0.01px;"/><path id="path3407" d="M13.217,38.801c-0.648,-0.267 -1.067,-1.358 -0.946,-2.463c0.09,-0.827 0.431,-1.466 0.904,-1.699c0.125,-0.062 0.386,-0.085 0.522,-0.048c0.475,0.13 0.849,0.69 1.008,1.509c0.035,0.181 0.038,0.227 0.039,0.597c0,0.345 -0.004,0.426 -0.031,0.59c-0.1,0.597 -0.359,1.112 -0.69,1.375c-0.117,0.093 -0.245,0.156 -0.349,0.172l-0.088,0.014l0.113,-0.065c0.374,-0.213 0.541,-0.382 0.693,-0.701c0.172,-0.361 0.263,-0.802 0.284,-1.386c0.032,-0.858 -0.326,-1.684 -0.857,-1.978c-0.111,-0.061 -0.136,-0.067 -0.318,-0.068c-0.187,-0.001 -0.205,0.002 -0.321,0.068c-0.172,0.097 -0.323,0.251 -0.465,0.474c-0.267,0.422 -0.398,0.897 -0.398,1.449c-0,0.616 0.176,1.281 0.454,1.714c0.127,0.197 0.227,0.287 0.453,0.404c0.17,0.088 0.166,0.114 -0.007,0.042Z" style="fill:#ffb100;fill-opacity:0.92;fill-rule:nonzero;stroke:#d9d9d9;stroke-opacity:0.96;stroke-width:0.01px;"/><path id="path3411" d="M15.706,34.585c-0.338,-0.155 -0.553,-0.388 -0.765,-0.827c-0.066,-0.138 -0.132,-0.337 -0.18,-0.545c-0.043,-0.187 -0.044,-0.194 -0.044,-0.612c0.001,-0.421 0.001,-0.424 0.046,-0.61c0.141,-0.583 0.368,-0.973 0.714,-1.227c0.452,-0.331 1,-0.244 1.403,0.223c0.113,0.131 0.291,0.445 0.359,0.631c0.123,0.341 0.18,0.711 0.167,1.083c-0.018,0.518 -0.144,0.953 -0.383,1.325c-0.103,0.16 -0.325,0.41 -0.341,0.385c-0.004,-0.006 0.037,-0.062 0.09,-0.126c0.131,-0.157 0.369,-0.545 0.44,-0.717c0.076,-0.188 0.114,-0.384 0.125,-0.664c0.032,-0.752 -0.094,-1.305 -0.398,-1.753c-0.14,-0.206 -0.303,-0.352 -0.497,-0.446c-0.116,-0.056 -0.148,-0.061 -0.354,-0.061c-0.206,-0.001 -0.238,0.004 -0.36,0.061c-0.466,0.215 -0.831,0.76 -0.942,1.406c-0.032,0.185 -0.042,0.575 -0.02,0.785c0.075,0.738 0.418,1.346 0.898,1.593c0.25,0.129 0.387,0.15 0.608,0.093c0.165,-0.043 0.221,-0.041 0.134,0.004c-0.043,0.022 -0.146,0.036 -0.325,0.042c-0.242,0.009 -0.27,0.005 -0.375,-0.043Z" style="fill:#ffb100;fill-opacity:0.92;fill-rule:nonzero;stroke:#d9d9d9;stroke-opacity:0.96;stroke-width:0.01px;"/><path id="path3415" d="M22.787,33.8c0.004,-0.007 0.017,-0.008 0.027,-0.001c0.011,0.007 0.008,0.012 -0.009,0.013c-0.015,0.001 -0.023,-0.004 -0.018,-0.012Z" style="fill:#ffb100;fill-opacity:0.92;fill-rule:nonzero;stroke:#d9d9d9;stroke-opacity:0.96;stroke-width:0.01px;"/><path id="path3419" d="M22.928,37.115c0.021,-0.005 0.056,-0.005 0.078,-0c0.021,0.005 0.003,0.009 -0.039,0.009c-0.043,0 -0.061,-0.004 -0.039,-0.009Z" style="fill:#ffb100;fill-opacity:0.92;fill-rule:nonzero;stroke:#d9d9d9;stroke-opacity:0.96;stroke-width:0.01px;"/><path id="path3421" d="M22.276,37.221c0.039,-0.039 0.277,-0.131 0.435,-0.168c0.089,-0.021 0.243,-0.035 0.39,-0.035c0.306,0 0.539,0.052 0.775,0.172c0.105,0.053 0.069,0.059 -0.056,0.009c-0.177,-0.072 -0.29,-0.092 -0.601,-0.106c-0.39,-0.017 -0.606,0.015 -0.931,0.139c-0.029,0.011 -0.031,0.009 -0.012,-0.011Z" style="fill:#ffb100;fill-opacity:0.92;fill-rule:nonzero;stroke:#d9d9d9;stroke-opacity:0.96;stroke-width:0.01px;"/><path id="path3425" d="M18.593,40.938c-0.104,-0.03 -0.262,-0.11 -0.341,-0.173c-0.09,-0.071 -0.196,-0.184 -0.186,-0.199c0.003,-0.006 0.036,0.02 0.071,0.058c0.295,0.32 0.763,0.372 1.117,0.126c0.127,-0.088 0.27,-0.249 0.351,-0.393c0.082,-0.147 0.11,-0.161 0.038,-0.019c-0.118,0.235 -0.327,0.444 -0.544,0.544c-0.14,0.065 -0.382,0.091 -0.506,0.056Z" style="fill:#ffb100;fill-opacity:0.92;fill-rule:nonzero;stroke:#d9d9d9;stroke-opacity:0.96;stroke-width:0.01px;"/><path id="path3427" d="M11.877,44.986c-0.045,-0.108 -0.106,-0.347 -0.122,-0.481c-0.02,-0.159 -0.012,-0.569 0.014,-0.703c0.026,-0.135 0.031,-0.081 0.008,0.076c-0.046,0.308 -0.018,0.667 0.076,0.966c0.055,0.175 0.066,0.243 0.024,0.142Z" style="fill:#ffb100;fill-opacity:0.92;fill-rule:nonzero;stroke:#d9d9d9;stroke-opacity:0.96;stroke-width:0.01px;"/><path id="path3429" d="M11.706,43.989c-0.004,-0.011 -0.002,-0.027 0.006,-0.035c0.008,-0.007 0.015,0.002 0.015,0.021c-0,0.039 -0.009,0.045 -0.021,0.014l0,-0Z" style="fill:#ffb100;fill-opacity:0.92;fill-rule:nonzero;stroke:#d9d9d9;stroke-opacity:0.96;stroke-width:0.01px;"/><path id="path3431" d="M11.925,43.35c-0,-0.029 0.068,-0.131 0.077,-0.116c0.004,0.006 -0.012,0.04 -0.035,0.075c-0.023,0.035 -0.042,0.053 -0.042,0.041Z" style="fill:#ffb100;fill-opacity:0.92;fill-rule:nonzero;stroke:#d9d9d9;stroke-opacity:0.96;stroke-width:0.01px;"/><path id="path3433" d="M11.728,43.824c-0.002,-0.064 0.069,-0.326 0.121,-0.452c0.157,-0.375 0.407,-0.518 0.621,-0.354c0.046,0.036 0.116,0.116 0.155,0.178c0.076,0.119 0.169,0.357 0.183,0.469c0.005,0.044 -0.004,0.026 -0.028,-0.055c-0.113,-0.377 -0.365,-0.661 -0.546,-0.615c-0.193,0.048 -0.39,0.358 -0.479,0.753c-0.014,0.064 -0.027,0.099 -0.027,0.076Z" style="fill:#ffb100;fill-opacity:0.92;fill-rule:nonzero;stroke:#d9d9d9;stroke-opacity:0.96;stroke-width:0.01px;"/><path id="path3437" d="M12.186,45.482c-0.283,-0.119 -0.491,-0.657 -0.485,-1.259l0.002,-0.224l0.01,0.267c0.018,0.437 0.105,0.743 0.286,1.001c0.102,0.146 0.189,0.199 0.305,0.186c0.11,-0.013 0.198,-0.086 0.295,-0.244c0.16,-0.261 0.239,-0.55 0.259,-0.954l0.012,-0.234l-0.005,0.245c-0.006,0.286 -0.03,0.448 -0.102,0.679c-0.064,0.207 -0.183,0.401 -0.294,0.481c-0.084,0.061 -0.211,0.086 -0.283,0.056Z" style="fill:#ffb100;fill-opacity:0.92;fill-rule:nonzero;stroke:#d9d9d9;stroke-opacity:0.96;stroke-width:0.01px;"/><path id="path3441" d="M12.632,45.068c-0,-0.009 0.013,-0.045 0.028,-0.08c0.12,-0.264 0.172,-0.76 0.12,-1.144c-0.011,-0.085 -0.018,-0.158 -0.015,-0.163c0.016,-0.025 0.054,0.253 0.061,0.443c0.009,0.27 -0.02,0.488 -0.097,0.73c-0.048,0.153 -0.097,0.26 -0.097,0.214Z" style="fill:#ffb100;fill-opacity:0.92;fill-rule:nonzero;stroke:#d9d9d9;stroke-opacity:0.96;stroke-width:0.01px;"/><path id="path3443" d="M12.561,45.197c-0,-0.012 0.016,-0.045 0.035,-0.074c0.02,-0.029 0.036,-0.043 0.036,-0.03c-0,0.012 -0.016,0.046 -0.036,0.074c-0.019,0.029 -0.035,0.043 -0.035,0.03Z" style="fill:#ffb100;fill-opacity:0.92;fill-rule:nonzero;stroke:#d9d9d9;stroke-opacity:0.96;stroke-width:0.01px;"/></g></svg>