<?xml version="1.0" encoding="UTF-8" standalone="no"?><!DOCTYPE svg PUBLIC "-//W3C//DTD SVG 1.1//EN"
        "http://www.w3.org/Graphics/SVG/1.1/DTD/svg11.dtd">
<svg width="100%" height="100%" viewBox="0 0 64 64" version="1.1" xmlns="http://www.w3.org/2000/svg"
        xml:space="preserve" xmlns:serif="http://www.serif.com/"
        style="fill-rule:evenodd;clip-rule:evenodd;"><g id="Layer-1" serif:id="Layer 1"><path id="path3503" d="M46.704,14.329C46.795,14.001 46.798,13.178 46.696,12.863C46.668,12.777 46.6,11.916 46.568,11.82C46.458,11.489 46.204,10.95 46.023,10.489C45.901,10.181 45.514,9.747 45.324,9.511C45.134,9.273 44.57,9.208 44.19,9.09C43.811,8.972 42.953,9.019 42.53,9.203C42.172,9.359 41.905,9.359 41.555,9.473C41.126,9.614 40.815,10.023 40.461,10.139C39.975,10.298 39.777,10.658 39.481,10.874C39.121,11.135 38.864,11.588 38.693,11.901C38.468,12.315 38.345,12.665 38.243,12.945C38.084,13.376 38.153,13.552 37.995,13.955C37.888,14.228 37.992,14.762 37.926,15.123C37.858,15.493 38.057,15.994 38.095,16.41C38.125,16.739 38.405,17.086 38.515,17.328C38.742,17.823 38.82,17.925 39.105,18.339C39.399,18.767 39.685,19.02 40.031,19.35C40.306,19.613 40.596,19.825 40.872,19.993C41.228,20.209 41.753,20.355 42.051,20.453C42.512,20.604 44.143,20.391 44.417,20.361" style="fill:none;stroke:#000;stroke-width:1.51px;"/><path
        id="path3505"
        d="M45.165,9.701C45.408,9.675 45.66,8.675 45.888,8.425C46.189,8.097 46.492,8.043 46.909,7.912C47.564,7.705 47.779,7.723 48.231,7.723C48.439,7.723 49.095,8.382 49.226,8.49C49.572,8.773 49.906,9.421 50.019,9.728C50.273,10.422 50.273,10.687 50.38,11.112C50.481,11.513 50.438,12.152 50.37,12.431C50.268,12.851 50.132,13.315 50.132,13.745C50.132,13.871 50.076,13.99 50.048,14.112"
        style="fill:none;stroke:#000;stroke-width:1.51px;" /><path id="path3489"
        d="M46.596,14.296C46.808,14.119 47.463,14.165 47.943,14.112C48.329,14.07 48.641,14.112 49.038,14.112C49.435,14.112 49.631,14.058 50.132,14.112C50.508,14.153 50.732,14.44 50.974,14.572C51.316,14.758 51.608,15.2 51.815,15.399C52.021,15.595 52.431,15.826 52.657,16.042C52.924,16.297 52.993,16.592 53.162,16.869C53.354,17.183 53.559,17.363 53.751,17.604C53.935,17.833 54.437,18.029 54.762,18.339C55.102,18.664 55.332,18.775 55.603,18.982C55.94,19.24 56.313,19.324 56.698,19.534C56.923,19.657 57.214,19.59 57.539,19.626"
        style="fill:none;stroke:#000;stroke-width:1.51px;stroke-linejoin:round;" /><path
        id="path3491"
        d="M57.455,22.474C57.79,21.958 57.098,23.41 57.034,23.577C56.909,23.906 56.58,24.073 56.361,24.312C56.102,24.595 55.772,24.569 55.435,24.68C54.967,24.833 54.761,24.956 54.341,25.139C54.001,25.288 53.556,25.231 53.162,25.231C52.784,25.231 52.405,25.277 51.984,25.231C51.621,25.191 51.326,24.979 50.974,24.863C50.619,24.747 50.366,24.733 49.879,24.68C49.546,24.643 49.219,24.543 48.785,24.496"
        style="fill:none;stroke:#000;stroke-width:1.51px;" /><path id="path3499"
        d="M48.217,28.755C48.533,29.109 48.967,28.864 49.48,28.939C49.79,28.984 50.323,28.653 50.574,28.571C50.931,28.454 51.23,28.234 51.584,28.02C51.855,27.856 52.033,27.717 52.363,27.609C52.713,27.494 52.948,27.282 53.25,27.15C53.591,27.001 53.942,25.914 53.951,25.876"
        style="fill:none;stroke:#000;stroke-width:1.51px;stroke-linecap:round;" /><path
        id="path3501"
        d="M49.038,25.782C49.4,25.624 48.757,24.986 48.617,24.588C48.46,24.143 48.79,23.59 48.869,23.301C49.148,22.285 48.869,23.847 48.869,23.209"
        style="fill:none;stroke:#000;stroke-width:0.4px;" /><path id="path3507"
        d="M41.293,13.285C41.293,13.293 41.894,12.463 42.07,12.323C42.412,12.051 43.048,12.027 43.319,12.166C43.761,12.393 44.236,12.595 44.428,12.966C44.652,13.397 44.692,13.494 44.893,13.95C45.082,14.377 45.074,14.59 45.329,14.961C45.448,15.134 45.147,14.61 45.443,15.409"
        style="fill:none;stroke:#000;stroke-width:1.14px;" /><path id="path3509"
        d="M44.498,13.436C45.058,13.384 43.561,13.635 43.482,13.877C43.363,14.241 42.702,14.346 42.634,14.715C42.569,15.072 42.242,15.577 42.272,15.866"
        style="fill:none;stroke:#000;stroke-width:1.51px;" /><path id="path3513"
        d="M9.559,29.09C9.446,29.09 9.446,29.09 9.559,29.09Z"
        style="fill:none;stroke:#000;stroke-width:0.4px;" /><path id="path3517"
        d="M9.485,29.68C9.34,29.294 9.453,29.611 9.648,28.426C9.786,27.583 9.515,28.246 9.98,27.161C10.153,26.756 10.226,26.387 10.316,26.058C10.417,25.692 10.714,25.115 10.811,24.695C10.926,24.199 11.061,23.848 11.227,23.463C11.404,23.053 11.523,22.71 11.643,22.274C11.782,21.768 12.053,21.39 12.232,20.901C12.438,20.338 12.659,20.05 12.91,19.555C13.235,18.918 13.644,18.392 13.98,17.977C14.61,17.201 15.196,16.779 15.872,16.226C16.407,15.787 16.983,15.356 17.555,14.939C18.046,14.582 18.48,14.327 18.986,14.02C19.682,13.599 20.269,13.148 21.007,12.826C21.739,12.506 22.622,12.528 23.364,12.366C23.954,12.237 24.464,12.308 25.047,12.366C25.611,12.422 26.156,12.458 26.731,12.458C27.204,12.458 27.66,12.587 28.162,12.642C28.647,12.695 29.078,12.734 29.593,12.734C29.882,12.734 30.299,13.017 30.687,13.101C31.147,13.202 31.532,13.415 31.866,13.561C32.524,13.848 33.189,14.017 33.802,14.388C34.238,14.653 34.544,14.767 34.98,15.031C35.38,15.273 35.635,15.427 35.99,15.766C36.227,15.993 36.937,16.177 37.169,16.318C37.49,16.513 37.662,16.676 37.926,16.869C38.098,16.994 38.101,16.964 38.263,17.053"
        style="fill:none;stroke:#000;stroke-width:1.51px;" /><path id="path3523"
        d="M48.28,28.815C48.392,28.815 48.392,28.815 48.28,28.815Z"
        style="fill:none;stroke:#000;stroke-width:0.4px;" /><path id="path3533"
        d="M9.727,28.08C9.649,28.115 9.323,29.596 9.264,29.917C9.195,30.296 9.173,30.587 9.18,30.974C9.195,31.859 9.096,31.901 9.096,32.353C9.096,32.809 9.01,33.118 9.054,33.593C9.09,33.993 9.178,34.579 9.222,35.063C9.255,35.421 9.332,35.664 9.39,35.982C9.468,36.404 9.753,36.696 9.895,37.085C10.063,37.544 10.288,37.47 10.569,37.82C10.886,38.216 11.234,38.341 11.663,38.601C12.048,38.834 11.982,38.733 12.421,38.877C12.815,39.006 13.27,39.057 13.725,39.107C14.239,39.163 14.534,39.004 14.988,39.153C15.413,39.292 15.633,39.103 16.082,39.153C16.385,39.186 16.847,39.107 17.261,39.107C17.664,39.107 18.162,39.26 18.439,39.29C18.864,39.337 19.163,39.29 19.618,39.29C20.031,39.29 20.488,39.287 20.88,39.244C21.37,39.191 21.8,39.325 22.185,39.198C22.578,39.07 22.919,39.063 23.364,39.015C23.802,38.967 24.27,39.015 24.711,39.015C25.066,39.015 25.463,38.786 25.889,38.739C26.16,38.709 26.322,38.739 26.478,38.739"
        style="fill:none;stroke:#000;stroke-width:1.51px;stroke-linecap:round;stroke-linejoin:round;" /><path
        id="path3535"
        d="M16.63,35.247C16.768,35.232 17.422,34.527 17.64,34.328C18.003,33.997 18.258,33.933 18.734,33.777C19.163,33.636 19.508,33.514 19.828,33.409C20.199,33.288 20.781,33.409 21.175,33.409C21.647,33.409 21.96,33.458 22.354,33.501C22.841,33.554 23.358,33.757 23.7,33.869C24.071,33.99 24.235,34.593 24.374,34.788C24.688,35.229 24.867,35.595 25.047,35.89C25.271,36.256 25.432,36.475 25.636,36.809C25.889,37.222 25.937,37.418 26.142,37.82C26.521,38.566 25.873,38.405 25.721,38.739C25.657,38.879 25.44,38.678 25.3,38.647"
        style="fill:none;stroke:#000;stroke-width:1.51px;stroke-linecap:round;stroke-linejoin:round;" /><path
        id="path3537"
        d="M14.02,28.815C13.833,29.222 14.806,28.508 15.199,28.355C15.576,28.208 16.051,28.308 16.461,28.263C17.061,28.198 17.13,28.516 17.471,28.723C17.941,29.008 18.224,29.24 18.65,29.55C19.09,29.87 19.316,30.185 19.66,30.561C19.965,30.894 19.996,31.147 20.165,31.48C20.377,31.896 20.446,32.2 20.586,32.582C20.761,33.059 20.595,32.586 20.838,32.674"
        style="fill:none;stroke:#000;stroke-width:1.51px;stroke-linecap:round;" /><path
        id="path3541"
        d="M25.899,36.907C25.983,36.793 26.734,36.862 27.162,36.815C27.498,36.778 27.881,36.765 28.34,36.815C28.752,36.86 29.189,36.815 29.603,36.815C29.922,36.815 30.477,36.569 30.613,36.539C30.944,36.467 30.595,35.798 30.529,35.436C30.466,35.093 30.163,34.771 30.024,34.518C29.822,34.15 29.402,34.054 29.182,33.874C29.043,33.76 29.074,33.835 28.93,33.782"
        style="fill:none;stroke:#000;stroke-width:1.51px;stroke-linecap:round;" /><path
        id="path3543"
        d="M57.156,24.214C57.158,24.432 57.181,24.814 57.216,25.189C57.248,25.548 57.183,25.802 57.156,26.099C57.131,26.369 56.882,26.584 56.799,26.749C56.737,26.871 56.229,26.912 56.085,26.943C55.9,26.984 55.982,26.776 55.966,26.749"
        style="fill:none;stroke:#000;stroke-width:1.14px;" /><path id="path3545"
        d="M55.581,25.037C55.426,25.071 55.725,25.769 55.76,25.947C55.824,26.273 55.789,26.587 55.819,26.921C55.826,26.999 55.899,26.791 55.938,26.726"
        style="fill:none;stroke:#000;stroke-width:0.77px;" /><path id="path3547"
        d="M54.49,25.801C54.512,26.038 54.545,26.427 54.609,26.776C54.707,27.311 54.795,27.009 55.026,27.296C55.092,27.379 55.698,27.11 55.74,27.101"
        style="fill:none;stroke:#000;stroke-width:1.14px;" /><path id="path3557"
        d="M20.561,33.051L23.239,33.571" style="fill:none;stroke:#000;stroke-width:0.4px;" /><path
        id="path3559"
        d="M21.632,33.246C21.754,33.392 22.319,33.269 22.525,33.246C22.763,33.22 22.999,33.104 23.239,33.051C23.508,32.993 23.73,32.884 24.013,32.791C24.234,32.719 24.517,32.555 24.787,32.466C25.111,32.36 25.387,32.302 25.68,32.207C25.99,32.105 26.149,32.053 26.394,31.947C26.606,31.854 26.892,31.716 27.108,31.622C27.314,31.532 27.526,31.41 27.733,31.297C28.001,31.151 28.207,31.096 28.477,31.037C28.771,30.973 28.979,31.008 29.31,30.972C29.529,30.948 29.386,30.875 30.62,30.94C31.484,30.985 29.435,30.993 29.638,31.037C29.951,31.105 29.906,30.745 32.168,31.167C32.419,31.214 32.534,31.334 32.763,31.459C34.737,32.54 33.11,31.728 33.417,31.882C34.781,32.562 34.008,32.172 34.191,32.272C34.491,32.435 34.619,32.618 34.906,32.791C35.151,32.94 35.262,33.218 35.441,33.441C35.62,33.664 36.004,33.826 36.185,34.123C36.428,34.521 36.521,34.519 36.751,34.806C36.965,35.072 37.173,35.026 37.405,35.196L37.733,35.455C37.766,35.479 37.584,35.629 37.584,35.585"
        style="fill:none;stroke:#000;stroke-width:1.51px;stroke-linecap:round;" /><path
        id="path3561"
        d="M37.097,35.433C37.264,35.555 37.455,35.555 37.663,35.726C37.865,35.891 37.977,35.819 38.407,36.18C38.608,36.35 38.742,36.31 39.002,36.473C39.352,36.692 39.36,36.878 39.567,36.96C39.85,37.072 40.102,38.049 40.374,38.138C40.644,38.226 40.024,38.086 40.584,38.431C40.824,38.579 40.913,38.438 41.354,38.687C41.869,38.977 41.678,38.927 42.985,39.065C43.315,39.1 43.777,39.214 44.293,39.255C44.598,39.279 45.791,39.202 46.104,39.168C46.468,39.129 47.225,38.987 47.513,38.812C47.672,38.716 48.401,38.444 47.156,37.253C46.705,36.82 46.884,37.048 45.698,36.538C45.22,36.332 44.541,36.101 44.21,35.985C43.919,35.884 43.515,35.654 43.258,35.498C43.016,35.352 42.76,35.045 42.603,34.848C42.489,34.706 42.265,34.443 42.216,34.264C42.125,33.932 42.1,33.693 42.037,33.354C41.979,33.036 41.949,32.847 41.918,32.509C41.889,32.192 41.918,31.854 41.918,31.535C41.918,31.284 42.016,30.928 42.037,30.69C42.068,30.354 42.234,30.187 42.335,29.91C42.42,29.679 42.726,29.441 42.871,29.26C43.077,29.003 43.297,28.972 43.526,28.806C43.751,28.641 44.021,28.617 44.24,28.546C44.472,28.47 44.936,28.546 45.073,28.546C45.346,28.546 45.56,28.506 45.787,28.481C46.031,28.454 46.437,28.584 46.68,28.611C46.952,28.64 47.2,28.75 47.454,28.806C47.749,28.87 48.035,28.902 48.347,28.935C48.58,28.961 48.288,28.807 48.406,29.065"
        style="fill:none;stroke:#000;stroke-width:1.51px;stroke-linecap:round;" /><path
        id="path3563"
        d="M44.737,36C44.882,36.083 45.081,36.081 45.327,36.138C45.517,36.183 45.763,36.138 45.958,36.138C46.162,36.138 46.319,36.159 46.547,36.184C46.746,36.206 46.75,36.232 46.968,36.184C47.163,36.142 47.347,36.181 47.536,36.115C47.792,36.027 48.054,35.959 48.062,35.955"
        style="fill:none;stroke:#000;stroke-width:1.51px;" /><path id="path3565"
        d="M42.171,30.946C42.076,30.697 42.288,31.386 42.381,31.59C42.452,31.745 42.619,31.879 42.718,32.003C42.821,32.131 42.91,32.313 43.012,32.463C43.128,32.632 43.258,32.763 43.349,32.876C43.469,33.026 43.597,33.057 43.728,33.152C43.843,33.236 44.126,33.227 44.275,33.244C44.481,33.266 44.699,33.244 44.906,33.244L45.538,33.244C45.76,33.244 45.969,33.268 46.169,33.29C46.403,33.315 46.588,33.358 46.8,33.428C46.971,33.483 47.163,33.515 47.284,33.588C47.415,33.668 47.76,33.851 47.831,33.956C47.989,34.185 48.116,34.599 48.147,34.829C48.172,35.009 48.147,35.146 48.063,35.403C47.949,35.754 47.877,35.664 47.768,35.817C47.678,35.944 47.359,35.969 47.263,36"
        style="fill:none;stroke:#000;stroke-width:1.51px;" /><path id="path3567"
        d="M25.918,32.142C26.324,32.15 26.89,32.584 27.346,32.791C27.791,32.994 28.171,33.242 28.537,33.441C29.065,33.73 29.377,34.096 29.727,34.351"
        style="fill:none;stroke:#000;stroke-width:1.51px;stroke-linecap:round;" /><path
        id="path3569" d="M47.451,38.035C47.629,38.165 47.61,38.469 47.69,38.685"
        style="fill:none;stroke:#000;stroke-width:0.4px;" /><path id="path3571"
        d="M45.798,38.249L45.798,38.249Z" style="fill:none;stroke:#000;stroke-width:0.4px;" /><path
        id="path3587"
        d="M59.53,20.144C59.53,21.071 58.885,21.834 58.102,21.834C57.318,21.834 56.673,21.071 56.673,20.144C56.673,19.218 57.318,18.455 58.102,18.455C58.885,18.455 59.53,19.218 59.53,20.144Z"
        style="fill:#faa;stroke:#000;stroke-width:0.77px;" /><path id="path3589"
        d="M51.015,18.249C50.952,19.214 50.078,19.738 49.077,19.411C48.077,19.084 47.305,18.02 47.367,17.055C47.429,16.09 48.304,15.565 49.304,15.893C50.305,16.22 51.077,17.283 51.015,18.249Z"
        style="fill:none;stroke:#000;stroke-width:0.91px;" /><path id="path3593"
        d="M50.896,18.118C50.896,18.789 50.309,19.342 49.595,19.342C48.882,19.342 48.295,18.789 48.295,18.118C48.295,17.446 48.882,16.893 49.595,16.893C50.309,16.893 50.896,17.446 50.896,18.118Z" /><path
        id="path3595" d="M56.691,20.251C47.286,22.655 46.691,23.045 46.691,23.045"
        style="fill:none;stroke:#000;stroke-width:0.77px;stroke-linecap:round;" /><path
        id="path3597" d="M56.81,21.031C47.881,26.034 48,26.878 48,26.878"
        style="fill:#240000;fill-opacity:0.99;stroke:#000;stroke-opacity:0.99;stroke-width:0.77px;stroke-linecap:round;" /><path
        id="path3599" d="M57.226,21.745L51.453,27.073"
        style="fill:none;stroke:#000;stroke-width:0.77px;stroke-linecap:round;" /><path
        id="path3603" d="M58.621,22.021C60.705,24.649 61.213,25.478 61.213,25.478"
        style="fill:none;stroke:#000;stroke-width:0.56px;stroke-linecap:round;" /><path
        id="path3605" d="M59.311,21.41C61.792,23.002 61.97,23.002 61.97,23.002"
        style="fill:none;stroke:#000;stroke-width:0.56px;stroke-linecap:round;" /><path
        id="path3607" d="M59.718,20.461C62.046,20.913 62.473,21.153 62.473,21.153"
        style="fill:none;stroke:#000;stroke-width:0.55px;stroke-linecap:round;" /><path
        id="path3609"
        d="M9.073,32.596C9.034,32.734 8.896,33.238 8.835,33.571C8.794,33.792 8.63,34.018 8.537,34.221C8.434,34.446 8.234,34.647 8.121,34.806C7.913,35.097 7.849,35.169 7.644,35.455C7.406,35.79 7.255,35.908 7.049,36.105C6.83,36.315 6.63,36.481 6.454,36.625C6.177,36.852 5.961,37.071 5.68,37.34C5.403,37.604 5.184,37.783 4.966,38.054C4.733,38.345 4.664,38.715 4.49,39.094C4.292,39.526 4.13,39.972 3.954,40.394C3.789,40.789 3.681,41.172 3.537,41.563C3.403,41.93 3.242,42.169 3.121,42.408C2.943,42.758 2.894,43.026 2.764,43.383C2.658,43.671 2.62,44.108 2.585,44.487C2.556,44.804 2.526,45.125 2.526,45.462L2.526,46.566C2.526,46.929 2.553,47.258 2.585,47.606C2.617,47.955 2.753,48.326 2.823,48.581C2.908,48.888 2.958,49.179 3.061,49.555C3.148,49.869 3.184,50.288 3.24,50.595C3.301,50.929 3.389,51.248 3.478,51.57C3.569,51.902 3.6,52.169 3.656,52.479C3.712,52.78 3.885,53.006 3.954,53.194C4.036,53.417 4.252,53.566 4.371,53.714C4.602,54.002 4.719,54.054 4.966,54.234C5.097,54.329 5.2,54.532 5.323,54.689"
        style="fill:none;stroke:#000;stroke-width:1.51px;" /><path id="path3611"
        d="M10.382,37.99C10.423,38.019 10.069,38.696 9.966,38.899C9.856,39.115 9.527,39.335 9.371,39.484C9.143,39.701 8.95,39.812 8.716,40.004C8.546,40.143 8.365,40.387 8.24,40.524C7.988,40.798 7.859,40.98 7.704,41.173C7.478,41.455 7.427,41.549 7.287,41.823C7.158,42.077 7.092,42.258 6.99,42.538C6.882,42.832 6.869,43.198 6.811,43.513C6.75,43.845 6.722,44.22 6.692,44.552C6.658,44.923 6.607,45.056 6.514,45.397C6.427,45.712 6.393,46.055 6.335,46.372C6.281,46.669 6.335,47.042 6.335,47.346C6.335,47.71 6.308,47.895 6.275,48.256C6.244,48.594 6.353,48.94 6.394,49.166C6.448,49.456 6.504,49.76 6.573,50.01C6.635,50.235 6.83,50.529 6.93,50.725C7.086,51.031 7.285,51.084 7.466,51.31C7.613,51.493 7.922,51.579 8.121,51.7"
        style="fill:none;stroke:#000;stroke-width:1.51px;stroke-linecap:round;stroke-linejoin:round;" /><path
        id="path3617"
        d="M5.204,54.559C5.297,54.548 5.855,54.968 6.037,55.078C6.327,55.254 6.442,55.316 6.692,55.468C6.968,55.635 7.204,55.563 7.525,55.598C7.83,55.631 8.102,55.694 8.418,55.728C8.712,55.76 9.048,55.6 9.252,55.533C9.561,55.432 9.772,55.261 9.966,55.143C10.269,54.96 10.65,54.887 10.978,54.689C11.438,54.409 11.776,54.094 12.168,53.714C12.391,53.498 12.575,53.431 12.823,53.194C13.019,53.006 13.196,52.559 13.299,52.414C13.623,51.959 14.226,51.555 14.668,51.18C15.215,50.715 15.686,50.266 16.275,49.88C16.589,49.675 16.911,49.501 17.168,49.36C17.489,49.185 17.668,49.072 17.942,48.906C18.329,48.671 18.723,48.499 19.132,48.321C19.462,48.177 19.802,48.08 20.144,47.931C20.467,47.79 20.886,47.75 21.23,47.817C21.97,47.96 21.521,47.864 21.826,47.947C22.658,48.173 22.795,48.261 22.912,48.353"
        style="fill:none;stroke:#000;stroke-width:1.51px;" /><path id="path3619"
        d="M8.18,51.505C8.366,51.484 8.656,51.375 8.894,51.31C9.139,51.243 9.341,50.867 9.49,50.725C9.816,50.413 10.165,50.023 10.442,49.62C10.686,49.265 10.807,49.302 11.037,49.101C11.273,48.895 11.591,48.867 11.871,48.776C12.263,48.647 12.597,48.289 12.942,47.996C13.275,47.713 13.616,47.438 13.954,47.151C14.264,46.888 14.538,46.661 14.847,46.436C15.135,46.227 15.488,46.148 15.799,46.047C16.151,45.931 16.364,45.8 16.692,45.657C17.055,45.498 17.339,45.321 17.704,45.202C18.112,45.068 18.492,44.923 18.894,44.747C19.116,44.65 19.556,44.707 19.787,44.682C20.061,44.652 20.402,44.548 20.68,44.487C20.992,44.419 21.298,44.422 21.632,44.422C21.823,44.422 22.029,44.466 22.227,44.487C22.539,44.487 22.927,44.926 23.224,45.056C23.463,45.16 23.835,45.332 24.132,45.429C24.44,45.53 24.56,45.623 24.861,45.722C25.206,45.835 25.752,45.955 26.067,46.16C26.348,46.344 26.575,46.212 26.915,46.323C27.288,46.445 27.591,46.387 27.941,46.501C28.367,46.641 28.742,46.851 29.132,47.021C29.624,47.236 30.05,47.425 30.501,47.671C30.762,47.813 31.161,47.909 31.453,47.996C31.794,48.097 32.091,48.296 32.346,48.451C32.643,48.631 32.926,48.795 33.179,48.906C33.479,49.037 33.682,49.122 34.013,49.23C34.335,49.336 34.577,49.419 34.906,49.49C35.208,49.557 36.886,50.121 37.182,50.14C37.414,50.155 35.922,49.857 36.036,49.832"
        style="fill:none;stroke:#000;stroke-width:1.51px;stroke-linecap:round;stroke-linejoin:round;" /><path
        id="path3623"
        d="M22.704,48.256C22.897,48.401 23.234,48.421 23.537,48.516C23.845,48.612 24.125,48.644 24.43,48.711C24.748,48.78 24.939,48.74 25.263,48.776C25.538,48.806 25.865,48.939 26.156,48.971C26.466,49.004 26.796,48.971 27.108,48.971C27.49,48.971 27.662,49.065 28.001,49.166C28.307,49.257 28.575,49.304 28.834,49.36C29.12,49.423 29.443,49.459 29.727,49.49C30.145,49.536 30.241,49.65 30.62,49.815C30.921,49.947 31.209,49.939 31.453,50.026C31.875,50.177 32.334,50.4 32.584,50.4C32.869,50.4 33.296,50.454 33.507,50.546C33.827,50.686 34.295,50.753 34.623,50.806C35.066,50.879 35.434,50.987 35.828,51.001C36.715,51.033 36.394,51.05 36.498,51.05C36.773,51.05 40.091,51.682 39.816,51.667C39.371,51.643 40.625,51.824 40.01,51.797"
        style="fill:none;stroke:#000;stroke-width:1.51px;stroke-linecap:round;" /><path
        id="path3625"
        d="M36.638,50.085C37.402,50.189 37.702,50.208 38.182,50.477C44.016,53.751 39.582,51.406 39.596,51.405"
        style="fill:none;stroke:#000;stroke-width:1.64px;stroke-linecap:round;" /><path
        id="path4373"
        d="M18.329,38.41C18.29,38.363 17.175,38.306 15.852,38.282C14.528,38.259 13.163,38.176 12.817,38.097C11.487,37.793 10.438,36.813 10.087,35.546C9.935,34.995 9.902,34.443 9.915,32.666C9.929,30.699 9.962,30.34 10.224,29.247C10.529,27.974 10.87,26.827 11.31,25.584C11.453,25.181 11.729,24.384 11.924,23.814C12.385,22.465 13.254,20.511 13.77,19.662C14.606,18.289 16.34,16.74 18.917,15.062C20.98,13.719 21.297,13.57 22.573,13.349C23.614,13.168 23.977,13.163 25.869,13.3C29.661,13.577 29.705,13.584 31.406,14.277C33.232,15.02 34.424,15.613 35.06,16.092C35.311,16.282 36.043,16.73 36.686,17.087C37.682,17.642 37.894,17.812 38.12,18.242C38.436,18.844 39.385,19.915 40.032,20.402C41.024,21.149 42.356,21.487 43.229,21.216C43.481,21.138 43.529,21.057 43.529,20.707C43.529,20.413 43.585,20.274 43.72,20.235C43.895,20.183 43.895,20.178 43.712,20.165C43.576,20.155 43.533,20.084 43.573,19.937C43.698,19.488 43.482,19.355 42.855,19.499C42.111,19.67 41.466,19.468 40.7,18.823C39.988,18.224 39.505,17.588 39.075,16.684C38.777,16.058 38.732,15.844 38.733,15.035C38.735,13.473 39.191,12.256 40.08,11.44C40.348,11.194 40.604,10.993 40.649,10.993C40.693,10.993 40.955,10.843 41.23,10.66C42.208,10.009 43.681,9.737 44.51,10.053C45.262,10.341 45.948,11.975 45.961,13.509C45.967,14.244 45.977,14.27 46.279,14.338C46.495,14.386 46.624,14.514 46.698,14.751L46.805,15.095L47.647,15.004C48.11,14.955 48.861,14.925 49.316,14.937C50.043,14.958 50.189,15.002 50.516,15.301C50.72,15.488 51.175,15.887 51.527,16.188C51.88,16.488 52.364,17.041 52.604,17.416C52.942,17.946 53.333,18.315 54.344,19.063C55.061,19.594 55.582,20.052 55.502,20.081C55.422,20.11 53.958,20.501 52.25,20.951C46.597,22.438 45.81,22.761 46.429,23.336C46.577,23.473 46.774,23.448 47.689,23.178C48.367,22.978 48.753,22.911 48.72,23C48.691,23.078 48.581,23.431 48.476,23.784C48.288,24.414 48.289,24.436 48.519,24.943L48.753,25.459L48.226,25.975C47.641,26.548 47.499,26.901 47.743,27.174C47.969,27.427 48.045,27.406 48.455,26.978C49.042,26.365 50.104,25.596 50.335,25.616C50.453,25.626 50.835,25.729 51.183,25.846L51.817,26.059L51.434,26.498C51.223,26.74 51.051,27.025 51.051,27.131C51.051,27.382 50.905,27.499 50.191,27.822C49.644,28.069 48.77,28.178 48.625,28.016C48.591,27.977 48.251,27.93 47.871,27.911C47.491,27.892 46.886,27.816 46.527,27.742C45.499,27.53 43.808,27.721 43.053,28.135C42.303,28.546 41.64,29.37 41.387,30.203C41.149,30.992 41.128,32.583 41.341,33.81C41.48,34.607 41.558,34.785 42.029,35.362C42.747,36.242 43.01,36.404 44.898,37.13C46.463,37.732 46.929,37.994 46.763,38.181C46.623,38.338 44.223,38.376 43.175,38.238C42.01,38.084 40.758,37.538 40.643,37.135C40.548,36.797 39.733,35.94 39.278,35.699C39.068,35.587 38.773,35.349 38.623,35.171C38.473,34.993 38.105,34.687 37.806,34.491C37.506,34.296 36.823,33.658 36.287,33.073C35.48,32.19 35.083,31.871 33.958,31.194C32.69,30.43 32.529,30.366 31.443,30.195C29.772,29.932 28.299,30.099 27.103,30.688C26.622,30.925 25.865,31.238 25.422,31.384C24.978,31.529 24.19,31.806 23.67,31.999C23.15,32.192 22.473,32.387 22.166,32.433C21.511,32.53 21.515,32.534 20.842,31.11C20.308,29.981 19.587,29.196 18.125,28.152L17.104,27.424L16.143,27.43C15.413,27.435 15.058,27.499 14.666,27.693C14.382,27.834 14.021,27.979 13.864,28.017C13.522,28.097 13.284,28.472 13.182,29.088C13.109,29.529 13.116,29.542 13.52,29.667C14.094,29.846 14.183,29.834 14.835,29.494C15.152,29.329 15.652,29.158 15.947,29.114C16.46,29.038 16.523,29.063 17.442,29.714C18.53,30.484 19.197,31.202 19.542,31.976C19.673,32.268 19.764,32.522 19.745,32.54C19.725,32.558 19.317,32.699 18.838,32.852C17.811,33.181 17.42,33.418 16.576,34.227C16.057,34.724 15.949,34.893 15.95,35.212C15.953,35.695 16.043,35.855 16.4,36.007C16.739,36.152 17.023,36.009 17.828,35.291C18.205,34.955 18.66,34.704 19.268,34.496C20.31,34.14 20.453,34.128 20.642,34.383C20.758,34.54 20.798,34.545 20.866,34.408C20.932,34.277 21.143,34.261 21.868,34.332C23.237,34.467 23.319,34.53 24.352,36.247C25.295,37.815 25.312,37.897 24.724,38.029C23.815,38.234 18.45,38.554 18.329,38.41L18.329,38.41ZM50.665,19.682C51.442,19.174 51.644,17.934 51.115,16.923C50.617,15.972 49.711,15.366 48.772,15.356C47.32,15.341 46.564,16.584 47.129,18.056C47.737,19.637 49.496,20.446 50.665,19.682ZM43.173,15.511C43.267,15.242 43.382,15.022 43.428,15.022C43.474,15.022 43.664,14.879 43.849,14.705C44.034,14.53 44.252,14.415 44.333,14.45C44.415,14.485 44.573,14.767 44.686,15.077C44.908,15.686 44.976,15.704 45.721,15.351L46.029,15.205L45.591,14.106C44.99,12.599 44.77,12.274 44.059,11.849C43.583,11.564 43.304,11.481 42.827,11.481C42.072,11.481 41.741,11.665 41.214,12.378L40.806,12.928L41.69,13.713L42.092,13.286C42.566,12.782 42.792,12.676 43.108,12.807C43.327,12.898 43.313,12.929 42.876,13.322C42.122,13.998 41.956,14.228 41.745,14.888C41.501,15.648 41.555,15.845 42.024,15.91C42.965,16.04 42.99,16.031 43.173,15.511Z"
        style="fill:#c8b7b7;fill-opacity:0;fill-rule:nonzero;" /><path id="path4375"
        d="M18.329,38.41C18.29,38.363 17.175,38.306 15.852,38.282C14.528,38.259 13.163,38.176 12.817,38.097C11.487,37.793 10.438,36.813 10.087,35.546C9.935,34.995 9.902,34.443 9.915,32.666C9.929,30.699 9.962,30.34 10.224,29.247C10.529,27.974 10.87,26.827 11.31,25.584C11.453,25.181 11.729,24.384 11.924,23.814C12.385,22.465 13.254,20.511 13.77,19.662C14.606,18.289 16.34,16.74 18.917,15.062C20.98,13.719 21.297,13.57 22.573,13.349C23.614,13.168 23.977,13.163 25.869,13.3C29.661,13.577 29.705,13.584 31.406,14.277C33.232,15.02 34.424,15.613 35.06,16.092C35.311,16.282 36.043,16.73 36.686,17.087C37.682,17.642 37.894,17.812 38.12,18.242C38.436,18.844 39.385,19.915 40.032,20.402C41.024,21.149 42.356,21.487 43.229,21.216C43.481,21.138 43.529,21.057 43.529,20.707C43.529,20.413 43.585,20.274 43.72,20.235C43.895,20.183 43.895,20.178 43.712,20.165C43.576,20.155 43.533,20.084 43.573,19.937C43.691,19.512 43.504,19.371 42.953,19.478C42.922,19.484 42.889,19.491 42.855,19.499C42.111,19.67 41.466,19.468 40.7,18.823C39.988,18.224 39.505,17.588 39.075,16.684C38.777,16.058 38.732,15.844 38.733,15.035C38.735,13.473 39.191,12.256 40.08,11.44C40.348,11.194 40.604,10.993 40.649,10.993C40.693,10.993 40.955,10.843 41.23,10.66C42.208,10.009 43.681,9.737 44.51,10.053C45.262,10.341 45.948,11.975 45.961,13.509C45.967,14.244 45.977,14.27 46.279,14.338C46.495,14.386 46.624,14.514 46.698,14.751L46.805,15.095L47.647,15.004C48.11,14.955 48.861,14.925 49.316,14.937C50.043,14.958 50.189,15.002 50.516,15.301C50.72,15.488 51.175,15.887 51.527,16.188C51.88,16.488 52.364,17.041 52.604,17.416C52.942,17.946 53.333,18.315 54.344,19.063C55.061,19.594 55.582,20.052 55.502,20.081C55.422,20.11 53.958,20.501 52.25,20.951C46.597,22.438 45.81,22.761 46.429,23.336C46.577,23.473 46.774,23.448 47.689,23.178C48.367,22.978 48.753,22.911 48.72,23C48.691,23.078 48.581,23.431 48.476,23.784C48.288,24.414 48.289,24.436 48.519,24.943L48.753,25.459L48.226,25.975C47.641,26.548 47.499,26.901 47.743,27.174C47.969,27.427 48.045,27.406 48.455,26.978C49.042,26.365 50.104,25.596 50.335,25.616C50.453,25.626 50.835,25.729 51.183,25.846L51.817,26.059L51.434,26.498C51.223,26.74 51.051,27.025 51.051,27.131C51.051,27.382 50.905,27.499 50.191,27.822C49.644,28.069 48.77,28.178 48.625,28.016C48.591,27.977 48.251,27.93 47.871,27.911C47.491,27.892 46.886,27.816 46.527,27.742C45.499,27.53 43.808,27.721 43.053,28.135C42.303,28.546 41.64,29.37 41.387,30.203C41.149,30.992 41.128,32.583 41.341,33.81C41.48,34.607 41.558,34.785 42.029,35.362C42.747,36.242 43.01,36.404 44.898,37.13C46.463,37.732 46.929,37.994 46.763,38.181C46.623,38.338 44.223,38.376 43.175,38.238C42.01,38.084 40.758,37.538 40.643,37.135C40.548,36.797 39.733,35.94 39.278,35.699C39.068,35.587 38.773,35.349 38.623,35.171C38.473,34.993 38.105,34.687 37.806,34.491C37.506,34.296 36.823,33.658 36.287,33.073C35.48,32.19 35.083,31.871 33.958,31.194C32.69,30.43 32.529,30.366 31.443,30.195C29.772,29.932 28.299,30.099 27.103,30.688C26.622,30.925 25.865,31.238 25.422,31.384C24.978,31.529 24.19,31.806 23.67,31.999C23.15,32.192 22.473,32.387 22.166,32.433C21.511,32.53 21.515,32.534 20.842,31.11C20.308,29.981 19.587,29.196 18.125,28.152L17.104,27.424L16.143,27.43C15.413,27.435 15.058,27.499 14.666,27.693C14.382,27.834 14.021,27.979 13.864,28.017C13.522,28.097 13.284,28.472 13.182,29.088C13.109,29.529 13.116,29.542 13.52,29.667C14.094,29.846 14.183,29.834 14.835,29.494C15.152,29.329 15.652,29.158 15.947,29.114C16.46,29.038 16.523,29.063 17.442,29.714C18.53,30.484 19.197,31.202 19.542,31.976C19.673,32.268 19.764,32.522 19.745,32.54C19.725,32.558 19.317,32.699 18.838,32.852C17.811,33.181 17.42,33.418 16.576,34.227C16.057,34.724 15.949,34.893 15.95,35.212C15.953,35.695 16.043,35.855 16.4,36.007C16.739,36.152 17.023,36.009 17.828,35.291C18.205,34.955 18.66,34.704 19.268,34.496C20.31,34.14 20.453,34.128 20.642,34.383C20.758,34.54 20.798,34.545 20.866,34.408C20.932,34.277 21.143,34.261 21.868,34.332C23.237,34.467 23.319,34.53 24.352,36.247C25.295,37.815 25.312,37.897 24.724,38.029C23.815,38.234 18.45,38.554 18.329,38.41L18.329,38.41ZM50.665,19.682C51.442,19.174 51.644,17.934 51.115,16.923C50.617,15.972 49.711,15.366 48.772,15.356C47.32,15.341 46.564,16.584 47.129,18.056C47.737,19.637 49.496,20.446 50.665,19.682ZM43.173,15.511C43.267,15.242 43.382,15.022 43.428,15.022C43.474,15.022 43.664,14.879 43.849,14.705C44.034,14.53 44.252,14.415 44.333,14.45C44.415,14.485 44.573,14.767 44.686,15.077C44.851,15.532 44.932,15.657 45.271,15.545C45.291,15.538 45.312,15.53 45.335,15.522C45.439,15.483 45.565,15.425 45.721,15.351L46.029,15.205L45.591,14.106C44.99,12.599 44.77,12.274 44.059,11.849C43.583,11.564 43.304,11.481 42.827,11.481C42.072,11.481 41.741,11.665 41.214,12.378L40.806,12.928L41.69,13.713L42.092,13.286C42.566,12.782 42.792,12.676 43.108,12.807C43.327,12.898 43.313,12.929 42.876,13.322C42.122,13.998 41.956,14.228 41.745,14.888C41.501,15.648 41.555,15.845 42.024,15.91C42.965,16.04 42.99,16.031 43.173,15.511Z"
        style="fill:#b2b2b2;fill-opacity:0.99;fill-rule:nonzero;" /><path id="path4377"
        d="M50.342,23.874C50.282,23.851 49.948,23.796 49.6,23.752C49.072,23.686 48.988,23.644 49.094,23.5C49.164,23.406 49.193,23.201 49.158,23.046C49.099,22.779 49.151,22.747 50.1,22.483C52.046,21.941 55.641,21.005 55.771,21.007C55.843,21.009 55.166,21.439 54.266,21.964C53.367,22.489 52.271,23.147 51.831,23.427C51.121,23.879 50.689,24.008 50.342,23.874L50.342,23.874Z"
        style="fill:#b2b2b2;fill-opacity:0.99;fill-rule:nonzero;" /><path id="path4381"
        d="M51.985,24.383C51.985,24.314 56.712,21.514 56.759,21.555C56.791,21.584 56.644,21.726 55.225,23.037L53.725,24.422L52.855,24.422C52.357,24.422 51.985,24.405 51.985,24.383Z"
        style="fill:#b2b2b2;fill-opacity:0.99;fill-rule:nonzero;" /><path id="path4385"
        d="M55.601,23.796C55.601,23.777 56.472,22.982 56.481,22.992C56.486,22.998 56.462,23.064 56.427,23.138C56.375,23.245 56.328,23.303 56.189,23.427C56.093,23.513 55.972,23.623 55.92,23.671C55.857,23.73 55.793,23.767 55.731,23.782C55.63,23.806 55.601,23.81 55.601,23.796Z"
        style="fill:#b2b2b2;fill-opacity:0.99;fill-rule:nonzero;" /><path id="path4387"
        d="M52.6,26.558C52.772,26.388 53.057,26.136 53.057,26.153C53.057,26.164 53.023,26.231 52.981,26.304C52.912,26.424 52.89,26.443 52.728,26.534C52.63,26.588 52.545,26.632 52.539,26.631C52.532,26.631 52.56,26.598 52.6,26.558Z"
        style="fill:#b2b2b2;fill-opacity:0.99;fill-rule:nonzero;" /><path id="path4389"
        d="M44.568,35.263C44.217,35.134 43.787,34.914 43.563,34.75C43.453,34.671 43.18,34.368 42.99,34.116C42.907,34.006 42.89,33.967 42.851,33.786C42.827,33.674 42.801,33.535 42.794,33.479L42.78,33.378L42.903,33.509C42.977,33.587 43.107,33.69 43.228,33.766C43.651,34.032 43.679,34.036 44.992,34.059C46.129,34.079 46.185,34.084 46.656,34.218C46.914,34.291 47.13,34.389 47.259,34.492C47.327,34.546 47.438,34.877 47.423,34.983C47.404,35.112 47.365,35.154 47.236,35.182L47.118,35.208L47.142,35.348L46.95,35.374C46.798,35.395 46.717,35.395 46.55,35.372C46.435,35.357 46.124,35.343 45.859,35.341C45.408,35.337 45.214,35.317 45.008,35.254C44.974,35.243 44.965,35.252 44.954,35.307C44.947,35.344 44.935,35.378 44.928,35.382C44.921,35.387 44.759,35.334 44.568,35.263Z"
        style="fill:#b2b2b2;fill-opacity:0.99;fill-rule:nonzero;" /><path id="path4391"
        d="M25.283,34.761C24.885,34.094 24.559,33.521 24.559,33.488C24.559,33.412 25.65,33.051 25.898,33.044C26.16,33.037 28.041,34.07 28.836,34.657C29.526,35.167 29.892,35.611 29.812,35.843C29.774,35.956 29.499,35.974 27.887,35.974L26.008,35.974L25.283,34.761Z"
        style="fill:#b2b2b2;fill-opacity:0.99;fill-rule:nonzero;" /><path id="path4393"
        d="M7.597,54.8C6.863,54.707 6.279,54.365 5.203,53.4C4.899,53.128 4.6,52.776 4.528,52.608C4.405,52.317 4.042,50.773 3.866,49.789C3.819,49.528 3.671,48.887 3.537,48.364C3.309,47.477 3.293,47.324 3.292,46.033C3.291,44.28 3.389,43.711 3.877,42.651C4.087,42.196 4.328,41.624 4.413,41.381C4.778,40.338 5.437,38.765 5.588,38.575C5.678,38.462 6.237,37.924 6.83,37.379C7.424,36.834 8.051,36.202 8.225,35.974L8.541,35.559L8.632,36C8.721,36.428 9.342,37.815 9.492,37.918C9.654,38.031 9.31,38.485 8.655,39.024C7.845,39.69 6.887,40.861 6.561,41.585C6.275,42.22 6.144,42.768 6.023,43.833C5.971,44.283 5.859,44.924 5.773,45.256C5.654,45.714 5.607,46.207 5.579,47.295C5.546,48.555 5.561,48.83 5.709,49.554C5.902,50.504 6.24,51.217 6.735,51.715C7.405,52.391 8.225,52.68 8.547,52.354C8.627,52.273 8.742,52.205 8.802,52.204C9.103,52.198 9.575,51.809 10.433,50.859C11.313,49.886 11.414,49.801 11.898,49.628C12.511,49.408 12.609,49.343 13.615,48.489C14.934,47.369 15.375,47.047 15.73,46.94C15.919,46.883 16.578,46.611 17.195,46.336C17.811,46.061 18.506,45.776 18.74,45.703C19.286,45.532 20.43,45.367 21.366,45.323C22.094,45.289 22.11,45.292 22.561,45.589C23.236,46.033 26.082,47.065 26.987,47.194C27.561,47.276 27.945,47.401 28.76,47.774C29.333,48.036 30.217,48.414 30.726,48.615C31.593,48.958 32.654,49.513 32.229,49.402C31.543,49.222 30.824,48.995 30.58,48.88C30.423,48.807 29.941,48.688 29.508,48.617C29.076,48.545 28.433,48.411 28.08,48.318C27.727,48.224 27.189,48.148 26.885,48.149C25.945,48.149 23.539,47.704 22.709,47.376C22.455,47.275 21.956,47.129 21.601,47.051C21.062,46.932 20.871,46.925 20.445,47.009C19.694,47.158 18.469,47.688 17.119,48.448C15.796,49.193 15.692,49.268 14.153,50.55C13.059,51.462 12.865,51.662 12.541,52.21C12.309,52.602 10.802,53.877 10.342,54.07C10.149,54.151 9.735,54.354 9.423,54.521C8.799,54.854 8.449,54.907 7.597,54.8Z"
        style="fill:#b2b2b2;fill-opacity:0.99;fill-rule:nonzero;" /><path id="path4395"
        d="M47.424,12.616C47.376,12.258 47.337,11.903 47.337,11.829C47.337,11.627 46.739,10.173 46.475,9.735C46.248,9.357 46.248,9.352 46.391,9.138C46.567,8.873 46.99,8.699 47.621,8.632C48.079,8.583 48.111,8.593 48.483,8.898C48.943,9.276 49.272,9.844 49.49,10.634C49.658,11.244 49.699,12.117 49.579,12.542C49.54,12.679 49.487,12.899 49.462,13.029L49.416,13.267L47.51,13.267L47.424,12.616Z"
        style="fill:#b2b2b2;fill-opacity:0.99;fill-rule:nonzero;" /><path id="path4397"
        d="M48.008,17.922C47.669,17.276 47.739,16.677 48.184,16.419C48.627,16.162 49.582,16.36 49.887,16.771C49.962,16.874 49.913,16.893 49.579,16.893C48.875,16.893 48.409,17.286 48.277,17.993L48.216,18.318L48.008,17.922Z"
        style="fill:#fff;fill-opacity:0.99;fill-rule:nonzero;" /><path id="path4399"
        d="M56.177,26.058C56.152,25.92 56.109,25.705 56.082,25.58C56.046,25.42 56.061,25.354 56.136,25.354C56.193,25.354 56.336,25.298 56.452,25.23C56.663,25.107 56.664,25.108 56.657,25.381C56.645,25.809 56.56,26.059 56.384,26.19C56.234,26.302 56.219,26.292 56.177,26.058L56.177,26.058Z"
        style="fill:#fff;fill-opacity:0.99;fill-rule:nonzero;" /></g></svg>
